<svg xmlns="http://www.w3.org/2000/svg" xmlns:xlink="http://www.w3.org/1999/xlink" width="1511" zoomAndPan="magnify" viewBox="0 0 1134 567.000005" height="755" preserveAspectRatio="xMidYMid meet" version="1.0"><defs><g/><clipPath id="3a553d4dc9"><path d="M 975 143 L 1106 143 L 1106 263 L 975 263 Z M 975 143 " clip-rule="nonzero"/></clipPath><clipPath id="29706f75d8"><path d="M 1011.875 117.335938 L 1123.835938 197.601562 L 1065.820312 278.527344 L 953.859375 198.265625 Z M 1011.875 117.335938 " clip-rule="nonzero"/></clipPath><clipPath id="1ec96b09fa"><path d="M 1124.101562 197.789062 L 1012.144531 117.527344 L 954.125 198.453125 L 1066.085938 278.71875 Z M 1124.101562 197.789062 " clip-rule="nonzero"/></clipPath></defs><g fill="#ffffff" fill-opacity="1"><g transform="translate(399.136056, 186.972849)"><g><path d="M 21.65625 -89.9375 L 21.65625 -84.9375 L 14.984375 -84.9375 L 14.984375 0 L 8.328125 0 L 8.328125 -84.9375 L 1.671875 -84.9375 L 1.671875 -89.9375 Z M 21.65625 -89.9375 "/></g></g></g><g fill="#ffffff" fill-opacity="1"><g transform="translate(433.746952, 186.972849)"><g><path d="M 23.3125 -53.296875 C 23.3125 -50.796875 22.894531 -49.0625 22.0625 -48.09375 C 21.226562 -47.125 19.984375 -46.640625 18.328125 -46.640625 C 19.148438 -46.640625 19.875 -46.445312 20.5 -46.0625 C 21.125 -45.675781 21.644531 -45.171875 22.0625 -44.546875 C 22.476562 -43.921875 22.789062 -43.207031 23 -42.40625 C 23.207031 -41.613281 23.3125 -40.800781 23.3125 -39.96875 L 23.3125 0 L 16.65625 0 L 16.65625 -41.640625 C 16.65625 -42.472656 16.460938 -43.113281 16.078125 -43.5625 C 15.703125 -44.007812 15.203125 -44.335938 14.578125 -44.546875 C 13.953125 -44.753906 13.238281 -44.875 12.4375 -44.90625 C 11.644531 -44.945312 10.832031 -44.96875 10 -44.96875 L 10 0 L 3.328125 0 L 3.328125 -89.9375 L 10 -89.9375 C 11.65625 -89.9375 13.28125 -89.890625 14.875 -89.796875 C 16.476562 -89.710938 17.90625 -89.410156 19.15625 -88.890625 C 20.40625 -88.367188 21.410156 -87.546875 22.171875 -86.421875 C 22.929688 -85.296875 23.3125 -83.691406 23.3125 -81.609375 Z M 16.65625 -81.609375 C 16.65625 -82.441406 16.539062 -83.082031 16.3125 -83.53125 C 16.09375 -83.988281 15.722656 -84.320312 15.203125 -84.53125 C 14.679688 -84.738281 13.992188 -84.859375 13.140625 -84.890625 C 12.285156 -84.921875 11.238281 -84.9375 10 -84.9375 L 10 -48.296875 C 10.832031 -48.296875 11.644531 -48.3125 12.4375 -48.34375 C 13.238281 -48.382812 13.953125 -48.507812 14.578125 -48.71875 C 15.203125 -48.925781 15.703125 -49.253906 16.078125 -49.703125 C 16.460938 -50.148438 16.65625 -50.789062 16.65625 -51.625 Z M 16.65625 -81.609375 "/></g></g></g><g fill="#ffffff" fill-opacity="1"><g transform="translate(471.688178, 186.972849)"><g><path d="M 18.328125 -84.9375 L 10 -84.9375 L 10 -49.96875 L 16.65625 -49.96875 L 16.65625 -44.96875 L 10 -44.96875 L 10 -5 L 18.328125 -5 L 18.328125 0 L 3.328125 0 L 3.328125 -89.9375 L 18.328125 -89.9375 Z M 18.328125 -84.9375 "/></g></g></g><g fill="#ffffff" fill-opacity="1"><g transform="translate(502.968744, 186.972849)"><g><path d="M 10.828125 -89.9375 L 10.828125 0 L 4.15625 0 L 4.15625 -89.9375 Z M 10.828125 -89.9375 "/></g></g></g><g fill="#ffffff" fill-opacity="1"><g transform="translate(529.253816, 186.972849)"><g><path d="M 23.3125 0 L 16.65625 0 L 8.328125 -66.625 L 8.328125 0 L 3.328125 0 L 3.328125 -89.9375 L 10 -89.9375 L 18.328125 -23.3125 L 18.328125 -89.9375 L 23.3125 -89.9375 Z M 23.3125 0 "/></g></g></g><g fill="#ffffff" fill-opacity="1"><g transform="translate(567.195041, 186.972849)"><g><path d="M 21.65625 0 L 14.984375 0 L 14.15625 -21.65625 L 9.21875 -21.65625 L 8.328125 0 L 1.671875 0 L 6.65625 -89.9375 L 16.65625 -89.9375 Z M 13.328125 -46.640625 L 11.65625 -86.609375 L 10 -46.640625 L 9.21875 -26.65625 L 14.15625 -26.65625 Z M 13.328125 -46.640625 "/></g></g></g><g fill="#ffffff" fill-opacity="1"><g transform="translate(601.805937, 186.972849)"><g><path d="M 16.65625 -81.609375 C 16.65625 -82.441406 16.539062 -83.082031 16.3125 -83.53125 C 16.09375 -83.988281 15.722656 -84.320312 15.203125 -84.53125 C 14.679688 -84.738281 13.992188 -84.859375 13.140625 -84.890625 C 12.285156 -84.921875 11.238281 -84.9375 10 -84.9375 L 10 -5 C 11.238281 -5 12.285156 -5.015625 13.140625 -5.046875 C 13.992188 -5.078125 14.679688 -5.195312 15.203125 -5.40625 C 15.722656 -5.613281 16.09375 -5.941406 16.3125 -6.390625 C 16.539062 -6.847656 16.65625 -7.492188 16.65625 -8.328125 Z M 23.3125 -8.328125 C 23.3125 -6.242188 22.929688 -4.640625 22.171875 -3.515625 C 21.410156 -2.390625 20.40625 -1.566406 19.15625 -1.046875 C 17.90625 -0.523438 16.476562 -0.21875 14.875 -0.125 C 13.28125 -0.0390625 11.65625 0 10 0 L 3.328125 0 L 3.328125 -89.9375 L 10 -89.9375 C 11.65625 -89.9375 13.28125 -89.890625 14.875 -89.796875 C 16.476562 -89.710938 17.90625 -89.410156 19.15625 -88.890625 C 20.40625 -88.367188 21.410156 -87.546875 22.171875 -86.421875 C 22.929688 -85.296875 23.3125 -83.691406 23.3125 -81.609375 Z M 23.3125 -8.328125 "/></g></g></g><g fill="#ffffff" fill-opacity="1"><g transform="translate(639.747163, 186.972849)"><g><path d="M 21.65625 0 L 14.984375 0 L 14.15625 -21.65625 L 9.21875 -21.65625 L 8.328125 0 L 1.671875 0 L 6.65625 -89.9375 L 16.65625 -89.9375 Z M 13.328125 -46.640625 L 11.65625 -86.609375 L 10 -46.640625 L 9.21875 -26.65625 L 14.15625 -26.65625 Z M 13.328125 -46.640625 "/></g></g></g><g fill="#ffffff" fill-opacity="1"><g transform="translate(674.358059, 186.972849)"><g><path d="M 14.984375 -21.90625 C 14.984375 -25.582031 14.789062 -28.738281 14.40625 -31.375 C 14.03125 -34.019531 13.53125 -36.320312 12.90625 -38.28125 C 12.28125 -40.238281 11.566406 -41.945312 10.765625 -43.40625 C 9.972656 -44.863281 9.160156 -46.234375 8.328125 -47.515625 C 7.492188 -48.804688 6.675781 -50.09375 5.875 -51.375 C 5.082031 -52.65625 4.375 -54.109375 3.75 -55.734375 C 3.125 -57.367188 2.617188 -59.253906 2.234375 -61.390625 C 1.859375 -63.523438 1.671875 -66.082031 1.671875 -69.0625 L 1.671875 -81.609375 C 1.671875 -82.441406 1.800781 -83.382812 2.0625 -84.4375 C 2.320312 -85.5 2.8125 -86.488281 3.53125 -87.40625 C 4.257812 -88.332031 5.273438 -89.113281 6.578125 -89.75 C 7.878906 -90.394531 9.570312 -90.71875 11.65625 -90.71875 C 13.738281 -90.71875 15.429688 -90.394531 16.734375 -89.75 C 18.035156 -89.113281 19.050781 -88.332031 19.78125 -87.40625 C 20.507812 -86.488281 21.003906 -85.5 21.265625 -84.4375 C 21.523438 -83.382812 21.65625 -82.441406 21.65625 -81.609375 L 21.65625 -58.296875 L 14.984375 -58.296875 L 14.984375 -81.609375 C 14.984375 -82.441406 14.890625 -83.125 14.703125 -83.65625 C 14.515625 -84.195312 14.265625 -84.613281 13.953125 -84.90625 C 13.640625 -85.207031 13.28125 -85.414062 12.875 -85.53125 C 12.476562 -85.65625 12.070312 -85.71875 11.65625 -85.71875 C 11.238281 -85.71875 10.832031 -85.65625 10.4375 -85.53125 C 10.039062 -85.414062 9.6875 -85.207031 9.375 -84.90625 C 9.0625 -84.613281 8.804688 -84.195312 8.609375 -83.65625 C 8.421875 -83.125 8.328125 -82.441406 8.328125 -81.609375 L 8.328125 -71.46875 C 8.328125 -67.539062 8.65625 -64.257812 9.3125 -61.625 C 9.976562 -58.988281 10.800781 -56.6875 11.78125 -54.71875 C 12.769531 -52.757812 13.835938 -50.984375 14.984375 -49.390625 C 16.128906 -47.796875 17.195312 -46.070312 18.1875 -44.21875 C 19.175781 -42.363281 20 -40.210938 20.65625 -37.765625 C 21.320312 -35.316406 21.65625 -32.269531 21.65625 -28.625 L 21.65625 -8.328125 C 21.65625 -7.910156 21.601562 -7.15625 21.5 -6.0625 C 21.394531 -4.96875 21.03125 -3.847656 20.40625 -2.703125 C 19.78125 -1.554688 18.789062 -0.539062 17.4375 0.34375 C 16.082031 1.226562 14.15625 1.671875 11.65625 1.671875 C 9.15625 1.671875 7.226562 1.226562 5.875 0.34375 C 4.519531 -0.539062 3.53125 -1.554688 2.90625 -2.703125 C 2.289062 -3.847656 1.929688 -4.96875 1.828125 -6.0625 C 1.722656 -7.15625 1.671875 -7.910156 1.671875 -8.328125 L 1.671875 -38.3125 L 8.328125 -38.3125 L 8.328125 -8.328125 C 8.328125 -7.910156 8.34375 -7.414062 8.375 -6.84375 C 8.414062 -6.269531 8.539062 -5.722656 8.75 -5.203125 C 8.957031 -4.679688 9.285156 -4.238281 9.734375 -3.875 C 10.179688 -3.507812 10.820312 -3.328125 11.65625 -3.328125 C 12.488281 -3.328125 13.128906 -3.507812 13.578125 -3.875 C 14.035156 -4.238281 14.367188 -4.679688 14.578125 -5.203125 C 14.785156 -5.722656 14.90625 -6.269531 14.9375 -6.84375 C 14.96875 -7.414062 14.984375 -7.910156 14.984375 -8.328125 Z M 14.984375 -21.90625 "/></g></g></g><g fill="#ffffff" fill-opacity="1"><g transform="translate(94.988625, 449.638622)"><g><path d="M 52.53125 -116.3125 C 52.53125 -111.625 51.671875 -108.007812 49.953125 -105.46875 C 48.234375 -102.925781 45.960938 -101.066406 43.140625 -99.890625 C 40.328125 -98.722656 37.125 -98.039062 33.53125 -97.84375 C 29.9375 -97.644531 26.265625 -97.546875 22.515625 -97.546875 L 22.515625 0 L 7.5 0 L 7.5 -202.609375 L 22.515625 -202.609375 C 30.015625 -202.609375 35.796875 -201.984375 39.859375 -200.734375 C 43.929688 -199.484375 46.90625 -197.914062 48.78125 -196.03125 C 50.65625 -194.15625 51.75 -192.125 52.0625 -189.9375 C 52.375 -187.75 52.53125 -185.71875 52.53125 -183.84375 Z M 37.515625 -183.84375 C 37.515625 -185.71875 37.257812 -187.160156 36.75 -188.171875 C 36.25 -189.191406 35.410156 -189.9375 34.234375 -190.40625 C 33.066406 -190.875 31.523438 -191.144531 29.609375 -191.21875 C 27.691406 -191.300781 25.328125 -191.34375 22.515625 -191.34375 L 22.515625 -108.8125 C 24.390625 -108.8125 26.222656 -108.847656 28.015625 -108.921875 C 29.816406 -109.003906 31.421875 -109.28125 32.828125 -109.75 C 34.234375 -110.21875 35.363281 -110.957031 36.21875 -111.96875 C 37.082031 -112.988281 37.515625 -114.4375 37.515625 -116.3125 Z M 37.515625 -183.84375 "/></g></g></g><g fill="#ffffff" fill-opacity="1"><g transform="translate(165.667273, 449.638622)"><g><path d="M 48.78125 0 L 33.765625 0 L 31.890625 -48.78125 L 20.75 -48.78125 L 18.765625 0 L 3.75 0 L 15.015625 -202.609375 L 37.515625 -202.609375 Z M 30.015625 -105.0625 L 26.265625 -195.109375 L 22.515625 -105.0625 L 20.75 -60.03125 L 31.890625 -60.03125 Z M 30.015625 -105.0625 "/></g></g></g><g fill="#ffffff" fill-opacity="1"><g transform="translate(232.594569, 449.638622)"><g><path d="M 52.53125 -120.0625 C 52.53125 -114.4375 51.59375 -110.53125 49.71875 -108.34375 C 47.84375 -106.15625 45.023438 -105.0625 41.265625 -105.0625 C 43.140625 -105.0625 44.78125 -104.628906 46.1875 -103.765625 C 47.601562 -102.898438 48.78125 -101.765625 49.71875 -100.359375 C 50.65625 -98.953125 51.359375 -97.347656 51.828125 -95.546875 C 52.296875 -93.753906 52.53125 -91.921875 52.53125 -90.046875 L 52.53125 0 L 37.515625 0 L 37.515625 -93.796875 C 37.515625 -95.671875 37.082031 -97.113281 36.21875 -98.125 C 35.363281 -99.144531 34.234375 -99.890625 32.828125 -100.359375 C 31.421875 -100.828125 29.816406 -101.097656 28.015625 -101.171875 C 26.222656 -101.253906 24.390625 -101.296875 22.515625 -101.296875 L 22.515625 0 L 7.5 0 L 7.5 -202.609375 L 22.515625 -202.609375 C 26.265625 -202.609375 29.9375 -202.507812 33.53125 -202.3125 C 37.125 -202.113281 40.328125 -201.425781 43.140625 -200.25 C 45.960938 -199.082031 48.234375 -197.226562 49.953125 -194.6875 C 51.671875 -192.144531 52.53125 -188.53125 52.53125 -183.84375 Z M 37.515625 -183.84375 C 37.515625 -185.71875 37.257812 -187.160156 36.75 -188.171875 C 36.25 -189.191406 35.410156 -189.9375 34.234375 -190.40625 C 33.066406 -190.875 31.523438 -191.144531 29.609375 -191.21875 C 27.691406 -191.300781 25.328125 -191.34375 22.515625 -191.34375 L 22.515625 -108.8125 C 24.390625 -108.8125 26.222656 -108.847656 28.015625 -108.921875 C 29.816406 -109.003906 31.421875 -109.28125 32.828125 -109.75 C 34.234375 -110.21875 35.363281 -110.957031 36.21875 -111.96875 C 37.082031 -112.988281 37.515625 -114.4375 37.515625 -116.3125 Z M 37.515625 -183.84375 "/></g></g></g><g fill="#ffffff" fill-opacity="1"><g transform="translate(307.024562, 449.638622)"><g><path d="M 48.78125 0 L 33.765625 0 L 31.890625 -48.78125 L 20.75 -48.78125 L 18.765625 0 L 3.75 0 L 15.015625 -202.609375 L 37.515625 -202.609375 Z M 30.015625 -105.0625 L 26.265625 -195.109375 L 22.515625 -105.0625 L 20.75 -60.03125 L 31.890625 -60.03125 Z M 30.015625 -105.0625 "/></g></g></g><g fill="#ffffff" fill-opacity="1"><g transform="translate(373.951865, 449.638622)"><g/></g></g><g fill="#ffffff" fill-opacity="1"><g transform="translate(416.14372, 449.638622)"><g><path d="M 52.53125 -18.765625 C 52.53125 -17.828125 52.410156 -16.125 52.171875 -13.65625 C 51.941406 -11.195312 51.125 -8.675781 49.71875 -6.09375 C 48.3125 -3.519531 46.082031 -1.238281 43.03125 0.75 C 39.976562 2.75 35.640625 3.75 30.015625 3.75 C 24.390625 3.75 20.050781 2.75 17 0.75 C 13.945312 -1.238281 11.71875 -3.519531 10.3125 -6.09375 C 8.90625 -8.675781 8.082031 -11.195312 7.84375 -13.65625 C 7.613281 -16.125 7.5 -17.828125 7.5 -18.765625 L 7.5 -183.84375 C 7.5 -184.46875 7.535156 -185.40625 7.609375 -186.65625 C 7.691406 -187.90625 7.925781 -189.289062 8.3125 -190.8125 C 8.707031 -192.34375 9.375 -193.910156 10.3125 -195.515625 C 11.25 -197.117188 12.539062 -198.582031 14.1875 -199.90625 C 15.832031 -201.238281 17.941406 -202.3125 20.515625 -203.125 C 23.097656 -203.945312 26.265625 -204.359375 30.015625 -204.359375 C 33.765625 -204.359375 36.925781 -203.945312 39.5 -203.125 C 42.082031 -202.3125 44.195312 -201.238281 45.84375 -199.90625 C 47.488281 -198.582031 48.78125 -197.117188 49.71875 -195.515625 C 50.65625 -193.910156 51.316406 -192.34375 51.703125 -190.8125 C 52.097656 -189.289062 52.332031 -187.90625 52.40625 -186.65625 C 52.488281 -185.40625 52.53125 -184.46875 52.53125 -183.84375 Z M 22.515625 -18.765625 C 22.515625 -17.828125 22.550781 -16.710938 22.625 -15.421875 C 22.707031 -14.128906 22.984375 -12.894531 23.453125 -11.71875 C 23.921875 -10.550781 24.660156 -9.554688 25.671875 -8.734375 C 26.691406 -7.910156 28.140625 -7.5 30.015625 -7.5 C 31.890625 -7.5 33.332031 -7.910156 34.34375 -8.734375 C 35.363281 -9.554688 36.109375 -10.550781 36.578125 -11.71875 C 37.046875 -12.894531 37.316406 -14.128906 37.390625 -15.421875 C 37.472656 -16.710938 37.515625 -17.828125 37.515625 -18.765625 L 37.515625 -183.84375 C 37.515625 -184.78125 37.472656 -185.796875 37.390625 -186.890625 C 37.316406 -187.984375 37.046875 -188.976562 36.578125 -189.875 C 36.109375 -190.78125 35.363281 -191.546875 34.34375 -192.171875 C 33.332031 -192.796875 31.890625 -193.109375 30.015625 -193.109375 C 28.140625 -193.109375 26.691406 -192.796875 25.671875 -192.171875 C 24.660156 -191.546875 23.921875 -190.78125 23.453125 -189.875 C 22.984375 -188.976562 22.707031 -187.984375 22.625 -186.890625 C 22.550781 -185.796875 22.515625 -184.78125 22.515625 -183.84375 Z M 22.515625 -18.765625 "/></g></g></g><g fill="#ffffff" fill-opacity="1"><g transform="translate(490.573701, 449.638622)"><g/></g></g><g fill="#e5ac5f" fill-opacity="1"><g transform="translate(532.763771, 449.638622)"><g><path d="M 33.765625 -49.359375 C 33.765625 -57.648438 33.332031 -64.765625 32.46875 -70.703125 C 31.613281 -76.640625 30.484375 -81.816406 29.078125 -86.234375 C 27.671875 -90.648438 26.066406 -94.5 24.265625 -97.78125 C 22.472656 -101.0625 20.640625 -104.148438 18.765625 -107.046875 C 16.890625 -109.941406 15.050781 -112.832031 13.25 -115.71875 C 11.445312 -118.613281 9.84375 -121.894531 8.4375 -125.5625 C 7.03125 -129.238281 5.894531 -133.476562 5.03125 -138.28125 C 4.175781 -143.09375 3.75 -148.863281 3.75 -155.59375 L 3.75 -183.84375 C 3.75 -185.71875 4.039062 -187.847656 4.625 -190.234375 C 5.21875 -192.617188 6.332031 -194.847656 7.96875 -196.921875 C 9.613281 -198.992188 11.898438 -200.75 14.828125 -202.1875 C 17.765625 -203.632812 21.578125 -204.359375 26.265625 -204.359375 C 30.953125 -204.359375 34.757812 -203.632812 37.6875 -202.1875 C 40.625 -200.75 42.910156 -198.992188 44.546875 -196.921875 C 46.191406 -194.847656 47.304688 -192.617188 47.890625 -190.234375 C 48.484375 -187.847656 48.78125 -185.71875 48.78125 -183.84375 L 48.78125 -131.3125 L 33.765625 -131.3125 L 33.765625 -183.84375 C 33.765625 -185.71875 33.550781 -187.257812 33.125 -188.46875 C 32.695312 -189.6875 32.128906 -190.625 31.421875 -191.28125 C 30.722656 -191.945312 29.921875 -192.414062 29.015625 -192.6875 C 28.117188 -192.96875 27.203125 -193.109375 26.265625 -193.109375 C 25.328125 -193.109375 24.40625 -192.96875 23.5 -192.6875 C 22.601562 -192.414062 21.800781 -191.945312 21.09375 -191.28125 C 20.394531 -190.625 19.832031 -189.6875 19.40625 -188.46875 C 18.976562 -187.257812 18.765625 -185.71875 18.765625 -183.84375 L 18.765625 -160.984375 C 18.765625 -152.148438 19.503906 -144.757812 20.984375 -138.8125 C 22.472656 -132.875 24.328125 -127.695312 26.546875 -123.28125 C 28.773438 -118.863281 31.179688 -114.859375 33.765625 -111.265625 C 36.347656 -107.671875 38.75 -103.78125 40.96875 -99.59375 C 43.195312 -95.414062 45.054688 -90.570312 46.546875 -85.0625 C 48.035156 -79.550781 48.78125 -72.691406 48.78125 -64.484375 L 48.78125 -18.765625 C 48.78125 -17.828125 48.660156 -16.125 48.421875 -13.65625 C 48.191406 -11.195312 47.367188 -8.675781 45.953125 -6.09375 C 44.546875 -3.519531 42.316406 -1.238281 39.265625 0.75 C 36.222656 2.75 31.890625 3.75 26.265625 3.75 C 20.640625 3.75 16.300781 2.75 13.25 0.75 C 10.195312 -1.238281 7.96875 -3.519531 6.5625 -6.09375 C 5.15625 -8.675781 4.332031 -11.195312 4.09375 -13.65625 C 3.863281 -16.125 3.75 -17.828125 3.75 -18.765625 L 3.75 -86.296875 L 18.765625 -86.296875 L 18.765625 -18.765625 C 18.765625 -17.828125 18.800781 -16.710938 18.875 -15.421875 C 18.957031 -14.128906 19.234375 -12.894531 19.703125 -11.71875 C 20.171875 -10.550781 20.910156 -9.554688 21.921875 -8.734375 C 22.941406 -7.910156 24.390625 -7.5 26.265625 -7.5 C 28.140625 -7.5 29.582031 -7.910156 30.59375 -8.734375 C 31.613281 -9.554688 32.359375 -10.550781 32.828125 -11.71875 C 33.296875 -12.894531 33.566406 -14.128906 33.640625 -15.421875 C 33.722656 -16.710938 33.765625 -17.828125 33.765625 -18.765625 Z M 33.765625 -49.359375 "/></g></g></g><g fill="#e5ac5f" fill-opacity="1"><g transform="translate(599.691068, 449.638622)"><g><path d="M 22.515625 -18.765625 C 22.515625 -17.828125 22.550781 -16.710938 22.625 -15.421875 C 22.707031 -14.128906 22.984375 -12.894531 23.453125 -11.71875 C 23.921875 -10.550781 24.660156 -9.554688 25.671875 -8.734375 C 26.691406 -7.910156 28.140625 -7.5 30.015625 -7.5 C 31.890625 -7.5 33.332031 -7.910156 34.34375 -8.734375 C 35.363281 -9.554688 36.109375 -10.550781 36.578125 -11.71875 C 37.046875 -12.894531 37.316406 -14.128906 37.390625 -15.421875 C 37.472656 -16.710938 37.515625 -17.828125 37.515625 -18.765625 L 37.515625 -202.609375 L 52.53125 -202.609375 L 52.53125 -18.765625 C 52.53125 -17.828125 52.410156 -16.125 52.171875 -13.65625 C 51.941406 -11.195312 51.125 -8.675781 49.71875 -6.09375 C 48.3125 -3.519531 46.082031 -1.238281 43.03125 0.75 C 39.976562 2.75 35.640625 3.75 30.015625 3.75 C 24.390625 3.75 20.050781 2.75 17 0.75 C 13.945312 -1.238281 11.71875 -3.519531 10.3125 -6.09375 C 8.90625 -8.675781 8.082031 -11.195312 7.84375 -13.65625 C 7.613281 -16.125 7.5 -17.828125 7.5 -18.765625 L 7.5 -202.609375 L 22.515625 -202.609375 Z M 22.515625 -18.765625 "/></g></g></g><g fill="#e5ac5f" fill-opacity="1"><g transform="translate(674.121067, 449.638622)"><g><path d="M 52.53125 -120.0625 L 37.515625 -120.0625 L 37.515625 -183.84375 C 37.515625 -185.71875 37.300781 -187.257812 36.875 -188.46875 C 36.445312 -189.6875 35.878906 -190.625 35.171875 -191.28125 C 34.472656 -191.945312 33.671875 -192.414062 32.765625 -192.6875 C 31.867188 -192.96875 30.953125 -193.109375 30.015625 -193.109375 C 29.078125 -193.109375 28.15625 -192.96875 27.25 -192.6875 C 26.351562 -192.414062 25.550781 -191.945312 24.84375 -191.28125 C 24.144531 -190.625 23.582031 -189.6875 23.15625 -188.46875 C 22.726562 -187.257812 22.515625 -185.71875 22.515625 -183.84375 L 22.515625 -18.765625 C 22.515625 -17.828125 22.550781 -16.710938 22.625 -15.421875 C 22.707031 -14.128906 22.984375 -12.894531 23.453125 -11.71875 C 23.921875 -10.550781 24.660156 -9.554688 25.671875 -8.734375 C 26.691406 -7.910156 28.140625 -7.5 30.015625 -7.5 C 31.890625 -7.5 33.332031 -7.910156 34.34375 -8.734375 C 35.363281 -9.554688 36.109375 -10.550781 36.578125 -11.71875 C 37.046875 -12.894531 37.316406 -14.128906 37.390625 -15.421875 C 37.472656 -16.710938 37.515625 -17.828125 37.515625 -18.765625 L 37.515625 -97.546875 L 52.53125 -97.546875 L 52.53125 -18.765625 C 52.53125 -17.828125 52.410156 -16.125 52.171875 -13.65625 C 51.941406 -11.195312 51.125 -8.675781 49.71875 -6.09375 C 48.3125 -3.519531 46.082031 -1.238281 43.03125 0.75 C 39.976562 2.75 35.640625 3.75 30.015625 3.75 C 24.390625 3.75 20.050781 2.75 17 0.75 C 13.945312 -1.238281 11.71875 -3.519531 10.3125 -6.09375 C 8.90625 -8.675781 8.082031 -11.195312 7.84375 -13.65625 C 7.613281 -16.125 7.5 -17.828125 7.5 -18.765625 L 7.5 -183.84375 C 7.5 -187.4375 8.160156 -190.539062 9.484375 -193.15625 C 10.816406 -195.78125 12.554688 -197.910156 14.703125 -199.546875 C 16.859375 -201.191406 19.265625 -202.40625 21.921875 -203.1875 C 24.578125 -203.96875 27.273438 -204.359375 30.015625 -204.359375 C 32.910156 -204.359375 35.703125 -203.925781 38.390625 -203.0625 C 41.085938 -202.207031 43.492188 -200.921875 45.609375 -199.203125 C 47.722656 -197.484375 49.40625 -195.332031 50.65625 -192.75 C 51.90625 -190.175781 52.53125 -187.207031 52.53125 -183.84375 Z M 52.53125 -120.0625 "/></g></g></g><g fill="#e5ac5f" fill-opacity="1"><g transform="translate(748.55106, 449.638622)"><g><path d="M 41.265625 -191.34375 L 22.515625 -191.34375 L 22.515625 -112.5625 L 37.515625 -112.5625 L 37.515625 -101.296875 L 22.515625 -101.296875 L 22.515625 -11.25 L 41.265625 -11.25 L 41.265625 0 L 7.5 0 L 7.5 -202.609375 L 41.265625 -202.609375 Z M 41.265625 -191.34375 "/></g></g></g><g fill="#e5ac5f" fill-opacity="1"><g transform="translate(807.975661, 449.638622)"><g><path d="M 33.765625 -49.359375 C 33.765625 -57.648438 33.332031 -64.765625 32.46875 -70.703125 C 31.613281 -76.640625 30.484375 -81.816406 29.078125 -86.234375 C 27.671875 -90.648438 26.066406 -94.5 24.265625 -97.78125 C 22.472656 -101.0625 20.640625 -104.148438 18.765625 -107.046875 C 16.890625 -109.941406 15.050781 -112.832031 13.25 -115.71875 C 11.445312 -118.613281 9.84375 -121.894531 8.4375 -125.5625 C 7.03125 -129.238281 5.894531 -133.476562 5.03125 -138.28125 C 4.175781 -143.09375 3.75 -148.863281 3.75 -155.59375 L 3.75 -183.84375 C 3.75 -185.71875 4.039062 -187.847656 4.625 -190.234375 C 5.21875 -192.617188 6.332031 -194.847656 7.96875 -196.921875 C 9.613281 -198.992188 11.898438 -200.75 14.828125 -202.1875 C 17.765625 -203.632812 21.578125 -204.359375 26.265625 -204.359375 C 30.953125 -204.359375 34.757812 -203.632812 37.6875 -202.1875 C 40.625 -200.75 42.910156 -198.992188 44.546875 -196.921875 C 46.191406 -194.847656 47.304688 -192.617188 47.890625 -190.234375 C 48.484375 -187.847656 48.78125 -185.71875 48.78125 -183.84375 L 48.78125 -131.3125 L 33.765625 -131.3125 L 33.765625 -183.84375 C 33.765625 -185.71875 33.550781 -187.257812 33.125 -188.46875 C 32.695312 -189.6875 32.128906 -190.625 31.421875 -191.28125 C 30.722656 -191.945312 29.921875 -192.414062 29.015625 -192.6875 C 28.117188 -192.96875 27.203125 -193.109375 26.265625 -193.109375 C 25.328125 -193.109375 24.40625 -192.96875 23.5 -192.6875 C 22.601562 -192.414062 21.800781 -191.945312 21.09375 -191.28125 C 20.394531 -190.625 19.832031 -189.6875 19.40625 -188.46875 C 18.976562 -187.257812 18.765625 -185.71875 18.765625 -183.84375 L 18.765625 -160.984375 C 18.765625 -152.148438 19.503906 -144.757812 20.984375 -138.8125 C 22.472656 -132.875 24.328125 -127.695312 26.546875 -123.28125 C 28.773438 -118.863281 31.179688 -114.859375 33.765625 -111.265625 C 36.347656 -107.671875 38.75 -103.78125 40.96875 -99.59375 C 43.195312 -95.414062 45.054688 -90.570312 46.546875 -85.0625 C 48.035156 -79.550781 48.78125 -72.691406 48.78125 -64.484375 L 48.78125 -18.765625 C 48.78125 -17.828125 48.660156 -16.125 48.421875 -13.65625 C 48.191406 -11.195312 47.367188 -8.675781 45.953125 -6.09375 C 44.546875 -3.519531 42.316406 -1.238281 39.265625 0.75 C 36.222656 2.75 31.890625 3.75 26.265625 3.75 C 20.640625 3.75 16.300781 2.75 13.25 0.75 C 10.195312 -1.238281 7.96875 -3.519531 6.5625 -6.09375 C 5.15625 -8.675781 4.332031 -11.195312 4.09375 -13.65625 C 3.863281 -16.125 3.75 -17.828125 3.75 -18.765625 L 3.75 -86.296875 L 18.765625 -86.296875 L 18.765625 -18.765625 C 18.765625 -17.828125 18.800781 -16.710938 18.875 -15.421875 C 18.957031 -14.128906 19.234375 -12.894531 19.703125 -11.71875 C 20.171875 -10.550781 20.910156 -9.554688 21.921875 -8.734375 C 22.941406 -7.910156 24.390625 -7.5 26.265625 -7.5 C 28.140625 -7.5 29.582031 -7.910156 30.59375 -8.734375 C 31.613281 -9.554688 32.359375 -10.550781 32.828125 -11.71875 C 33.296875 -12.894531 33.566406 -14.128906 33.640625 -15.421875 C 33.722656 -16.710938 33.765625 -17.828125 33.765625 -18.765625 Z M 33.765625 -49.359375 "/></g></g></g><g fill="#e5ac5f" fill-opacity="1"><g transform="translate(874.902963, 449.638622)"><g><path d="M 33.765625 -49.359375 C 33.765625 -57.648438 33.332031 -64.765625 32.46875 -70.703125 C 31.613281 -76.640625 30.484375 -81.816406 29.078125 -86.234375 C 27.671875 -90.648438 26.066406 -94.5 24.265625 -97.78125 C 22.472656 -101.0625 20.640625 -104.148438 18.765625 -107.046875 C 16.890625 -109.941406 15.050781 -112.832031 13.25 -115.71875 C 11.445312 -118.613281 9.84375 -121.894531 8.4375 -125.5625 C 7.03125 -129.238281 5.894531 -133.476562 5.03125 -138.28125 C 4.175781 -143.09375 3.75 -148.863281 3.75 -155.59375 L 3.75 -183.84375 C 3.75 -185.71875 4.039062 -187.847656 4.625 -190.234375 C 5.21875 -192.617188 6.332031 -194.847656 7.96875 -196.921875 C 9.613281 -198.992188 11.898438 -200.75 14.828125 -202.1875 C 17.765625 -203.632812 21.578125 -204.359375 26.265625 -204.359375 C 30.953125 -204.359375 34.757812 -203.632812 37.6875 -202.1875 C 40.625 -200.75 42.910156 -198.992188 44.546875 -196.921875 C 46.191406 -194.847656 47.304688 -192.617188 47.890625 -190.234375 C 48.484375 -187.847656 48.78125 -185.71875 48.78125 -183.84375 L 48.78125 -131.3125 L 33.765625 -131.3125 L 33.765625 -183.84375 C 33.765625 -185.71875 33.550781 -187.257812 33.125 -188.46875 C 32.695312 -189.6875 32.128906 -190.625 31.421875 -191.28125 C 30.722656 -191.945312 29.921875 -192.414062 29.015625 -192.6875 C 28.117188 -192.96875 27.203125 -193.109375 26.265625 -193.109375 C 25.328125 -193.109375 24.40625 -192.96875 23.5 -192.6875 C 22.601562 -192.414062 21.800781 -191.945312 21.09375 -191.28125 C 20.394531 -190.625 19.832031 -189.6875 19.40625 -188.46875 C 18.976562 -187.257812 18.765625 -185.71875 18.765625 -183.84375 L 18.765625 -160.984375 C 18.765625 -152.148438 19.503906 -144.757812 20.984375 -138.8125 C 22.472656 -132.875 24.328125 -127.695312 26.546875 -123.28125 C 28.773438 -118.863281 31.179688 -114.859375 33.765625 -111.265625 C 36.347656 -107.671875 38.75 -103.78125 40.96875 -99.59375 C 43.195312 -95.414062 45.054688 -90.570312 46.546875 -85.0625 C 48.035156 -79.550781 48.78125 -72.691406 48.78125 -64.484375 L 48.78125 -18.765625 C 48.78125 -17.828125 48.660156 -16.125 48.421875 -13.65625 C 48.191406 -11.195312 47.367188 -8.675781 45.953125 -6.09375 C 44.546875 -3.519531 42.316406 -1.238281 39.265625 0.75 C 36.222656 2.75 31.890625 3.75 26.265625 3.75 C 20.640625 3.75 16.300781 2.75 13.25 0.75 C 10.195312 -1.238281 7.96875 -3.519531 6.5625 -6.09375 C 5.15625 -8.675781 4.332031 -11.195312 4.09375 -13.65625 C 3.863281 -16.125 3.75 -17.828125 3.75 -18.765625 L 3.75 -86.296875 L 18.765625 -86.296875 L 18.765625 -18.765625 C 18.765625 -17.828125 18.800781 -16.710938 18.875 -15.421875 C 18.957031 -14.128906 19.234375 -12.894531 19.703125 -11.71875 C 20.171875 -10.550781 20.910156 -9.554688 21.921875 -8.734375 C 22.941406 -7.910156 24.390625 -7.5 26.265625 -7.5 C 28.140625 -7.5 29.582031 -7.910156 30.59375 -8.734375 C 31.613281 -9.554688 32.359375 -10.550781 32.828125 -11.71875 C 33.296875 -12.894531 33.566406 -14.128906 33.640625 -15.421875 C 33.722656 -16.710938 33.765625 -17.828125 33.765625 -18.765625 Z M 33.765625 -49.359375 "/></g></g></g><g fill="#e5ac5f" fill-opacity="1"><g transform="translate(941.830243, 449.638622)"><g><path d="M 52.53125 -18.765625 C 52.53125 -17.828125 52.410156 -16.125 52.171875 -13.65625 C 51.941406 -11.195312 51.125 -8.675781 49.71875 -6.09375 C 48.3125 -3.519531 46.082031 -1.238281 43.03125 0.75 C 39.976562 2.75 35.640625 3.75 30.015625 3.75 C 24.390625 3.75 20.050781 2.75 17 0.75 C 13.945312 -1.238281 11.71875 -3.519531 10.3125 -6.09375 C 8.90625 -8.675781 8.082031 -11.195312 7.84375 -13.65625 C 7.613281 -16.125 7.5 -17.828125 7.5 -18.765625 L 7.5 -183.84375 C 7.5 -184.46875 7.535156 -185.40625 7.609375 -186.65625 C 7.691406 -187.90625 7.925781 -189.289062 8.3125 -190.8125 C 8.707031 -192.34375 9.375 -193.910156 10.3125 -195.515625 C 11.25 -197.117188 12.539062 -198.582031 14.1875 -199.90625 C 15.832031 -201.238281 17.941406 -202.3125 20.515625 -203.125 C 23.097656 -203.945312 26.265625 -204.359375 30.015625 -204.359375 C 33.765625 -204.359375 36.925781 -203.945312 39.5 -203.125 C 42.082031 -202.3125 44.195312 -201.238281 45.84375 -199.90625 C 47.488281 -198.582031 48.78125 -197.117188 49.71875 -195.515625 C 50.65625 -193.910156 51.316406 -192.34375 51.703125 -190.8125 C 52.097656 -189.289062 52.332031 -187.90625 52.40625 -186.65625 C 52.488281 -185.40625 52.53125 -184.46875 52.53125 -183.84375 Z M 22.515625 -18.765625 C 22.515625 -17.828125 22.550781 -16.710938 22.625 -15.421875 C 22.707031 -14.128906 22.984375 -12.894531 23.453125 -11.71875 C 23.921875 -10.550781 24.660156 -9.554688 25.671875 -8.734375 C 26.691406 -7.910156 28.140625 -7.5 30.015625 -7.5 C 31.890625 -7.5 33.332031 -7.910156 34.34375 -8.734375 C 35.363281 -9.554688 36.109375 -10.550781 36.578125 -11.71875 C 37.046875 -12.894531 37.316406 -14.128906 37.390625 -15.421875 C 37.472656 -16.710938 37.515625 -17.828125 37.515625 -18.765625 L 37.515625 -183.84375 C 37.515625 -184.78125 37.472656 -185.796875 37.390625 -186.890625 C 37.316406 -187.984375 37.046875 -188.976562 36.578125 -189.875 C 36.109375 -190.78125 35.363281 -191.546875 34.34375 -192.171875 C 33.332031 -192.796875 31.890625 -193.109375 30.015625 -193.109375 C 28.140625 -193.109375 26.691406 -192.796875 25.671875 -192.171875 C 24.660156 -191.546875 23.921875 -190.78125 23.453125 -189.875 C 22.984375 -188.976562 22.707031 -187.984375 22.625 -186.890625 C 22.550781 -185.796875 22.515625 -184.78125 22.515625 -183.84375 Z M 22.515625 -18.765625 "/></g></g></g><g clip-path="url(#3a553d4dc9)"><g clip-path="url(#29706f75d8)"><g clip-path="url(#1ec96b09fa)"><path fill="#e5ac5f" d="M 977.636719 207.863281 L 975.589844 213.839844 L 1043.089844 262.230469 L 1048.097656 258.371094 Z M 1014.261719 189.46875 C 1021.996094 191.917969 1033.289062 187.84375 1047.832031 177.378906 C 1052.027344 174.359375 1055.867188 171.25 1058.984375 168.59375 C 1057.3125 172.566406 1055.414062 177.4375 1053.757812 182.613281 C 1048.148438 200.125 1048.21875 212.042969 1053.964844 218.03125 C 1062.84375 227.289062 1080.871094 226.265625 1091.964844 224.539062 L 1052.234375 255.175781 L 979.335938 202.914062 L 995.425781 155.949219 C 997.195312 167.574219 1001.90625 185.558594 1014.261719 189.46875 Z M 1067.417969 157.15625 C 1067.699219 157.355469 1067.957031 157.582031 1068.191406 157.835938 C 1068.429688 158.089844 1068.636719 158.363281 1068.820312 158.65625 C 1069.003906 158.949219 1069.15625 159.257812 1069.277344 159.582031 C 1069.398438 159.90625 1069.484375 160.242188 1069.542969 160.582031 C 1069.597656 160.925781 1069.617188 161.269531 1069.605469 161.617188 C 1069.59375 161.960938 1069.550781 162.304688 1069.46875 162.640625 C 1069.390625 162.980469 1069.277344 163.308594 1069.136719 163.625 C 1068.992188 163.941406 1068.820312 164.238281 1068.617188 164.519531 C 1068.414062 164.804688 1068.1875 165.0625 1067.933594 165.300781 C 1067.679688 165.539062 1067.40625 165.75 1067.113281 165.933594 C 1066.816406 166.117188 1066.507812 166.269531 1066.183594 166.390625 C 1065.859375 166.515625 1065.527344 166.605469 1065.183594 166.660156 C 1064.84375 166.71875 1064.5 166.742188 1064.152344 166.730469 C 1063.808594 166.71875 1063.464844 166.675781 1063.128906 166.597656 C 1062.792969 166.519531 1062.464844 166.410156 1062.148438 166.265625 C 1061.835938 166.125 1061.535156 165.953125 1061.253906 165.75 C 1060.972656 165.550781 1060.714844 165.324219 1060.480469 165.070312 C 1060.242188 164.816406 1060.035156 164.542969 1059.851562 164.25 C 1059.667969 163.957031 1059.515625 163.648438 1059.394531 163.324219 C 1059.273438 163 1059.183594 162.664062 1059.128906 162.324219 C 1059.074219 161.980469 1059.050781 161.636719 1059.0625 161.289062 C 1059.074219 160.945312 1059.121094 160.601562 1059.199219 160.265625 C 1059.277344 159.925781 1059.390625 159.597656 1059.535156 159.28125 C 1059.675781 158.96875 1059.851562 158.667969 1060.050781 158.386719 C 1060.253906 158.101562 1060.484375 157.84375 1060.734375 157.605469 C 1060.988281 157.371094 1061.265625 157.160156 1061.558594 156.976562 C 1061.851562 156.792969 1062.164062 156.640625 1062.488281 156.515625 C 1062.8125 156.394531 1063.144531 156.304688 1063.484375 156.246094 C 1063.828125 156.1875 1064.171875 156.167969 1064.519531 156.175781 C 1064.863281 156.1875 1065.207031 156.230469 1065.542969 156.308594 C 1065.878906 156.386719 1066.207031 156.496094 1066.519531 156.640625 C 1066.835938 156.78125 1067.136719 156.953125 1067.417969 157.15625 Z M 1103.125 217.996094 C 1103.40625 218.199219 1103.664062 218.425781 1103.898438 218.679688 C 1104.136719 218.929688 1104.347656 219.203125 1104.527344 219.5 C 1104.710938 219.792969 1104.863281 220.101562 1104.984375 220.425781 C 1105.105469 220.75 1105.195312 221.082031 1105.25 221.425781 C 1105.304688 221.769531 1105.328125 222.113281 1105.316406 222.457031 C 1105.300781 222.804688 1105.257812 223.148438 1105.179688 223.484375 C 1105.097656 223.824219 1104.988281 224.148438 1104.84375 224.464844 C 1104.699219 224.78125 1104.527344 225.082031 1104.324219 225.363281 C 1104.121094 225.644531 1103.894531 225.90625 1103.640625 226.144531 C 1103.386719 226.378906 1103.113281 226.589844 1102.820312 226.773438 C 1102.527344 226.957031 1102.214844 227.113281 1101.890625 227.234375 C 1101.566406 227.355469 1101.234375 227.445312 1100.894531 227.503906 C 1100.550781 227.5625 1100.207031 227.585938 1099.859375 227.574219 C 1099.515625 227.5625 1099.171875 227.519531 1098.835938 227.441406 C 1098.5 227.363281 1098.171875 227.253906 1097.859375 227.109375 C 1097.542969 226.96875 1097.246094 226.796875 1096.964844 226.59375 C 1096.683594 226.394531 1096.421875 226.164062 1096.1875 225.914062 C 1095.949219 225.660156 1095.742188 225.386719 1095.558594 225.09375 C 1095.375 224.800781 1095.226562 224.488281 1095.101562 224.164062 C 1094.980469 223.839844 1094.894531 223.507812 1094.835938 223.167969 C 1094.78125 222.824219 1094.757812 222.480469 1094.769531 222.132812 C 1094.785156 221.785156 1094.828125 221.445312 1094.90625 221.105469 C 1094.988281 220.769531 1095.097656 220.441406 1095.242188 220.125 C 1095.386719 219.808594 1095.558594 219.511719 1095.761719 219.226562 C 1095.964844 218.945312 1096.191406 218.6875 1096.445312 218.449219 C 1096.699219 218.210938 1096.972656 218 1097.269531 217.816406 C 1097.5625 217.632812 1097.871094 217.480469 1098.199219 217.359375 C 1098.523438 217.234375 1098.855469 217.144531 1099.199219 217.089844 C 1099.539062 217.03125 1099.882812 217.007812 1100.230469 217.019531 C 1100.578125 217.03125 1100.917969 217.074219 1101.257812 217.152344 C 1101.59375 217.230469 1101.921875 217.34375 1102.234375 217.484375 C 1102.550781 217.628906 1102.851562 217.800781 1103.132812 218 Z M 999.269531 144.511719 C 999.550781 144.710938 999.8125 144.9375 1000.046875 145.191406 C 1000.285156 145.445312 1000.492188 145.71875 1000.675781 146.011719 C 1000.859375 146.304688 1001.011719 146.613281 1001.132812 146.9375 C 1001.253906 147.261719 1001.34375 147.59375 1001.402344 147.9375 C 1001.457031 148.28125 1001.480469 148.625 1001.46875 148.972656 C 1001.457031 149.316406 1001.410156 149.660156 1001.332031 149.996094 C 1001.253906 150.335938 1001.140625 150.664062 1001 150.980469 C 1000.855469 151.296875 1000.683594 151.59375 1000.480469 151.878906 C 1000.277344 152.160156 1000.050781 152.421875 999.796875 152.660156 C 999.546875 152.894531 999.269531 153.105469 998.976562 153.292969 C 998.683594 153.476562 998.375 153.628906 998.050781 153.75 C 997.722656 153.875 997.390625 153.964844 997.050781 154.023438 C 996.707031 154.078125 996.363281 154.101562 996.015625 154.09375 C 995.671875 154.082031 995.328125 154.039062 994.992188 153.960938 C 994.65625 153.882812 994.328125 153.773438 994.011719 153.628906 C 993.699219 153.488281 993.398438 153.316406 993.117188 153.113281 C 992.835938 152.914062 992.578125 152.6875 992.339844 152.433594 C 992.105469 152.179688 991.894531 151.90625 991.710938 151.613281 C 991.53125 151.320312 991.378906 151.011719 991.257812 150.6875 C 991.132812 150.363281 991.046875 150.027344 990.988281 149.6875 C 990.933594 149.34375 990.910156 149 990.921875 148.652344 C 990.9375 148.304688 990.980469 147.964844 991.058594 147.625 C 991.140625 147.289062 991.25 146.960938 991.394531 146.644531 C 991.539062 146.328125 991.710938 146.027344 991.914062 145.746094 C 992.113281 145.464844 992.34375 145.207031 992.597656 144.96875 C 992.851562 144.730469 993.125 144.519531 993.417969 144.335938 C 993.714844 144.152344 994.023438 144 994.347656 143.878906 C 994.671875 143.753906 995.003906 143.664062 995.347656 143.609375 C 995.6875 143.550781 996.03125 143.527344 996.378906 143.539062 C 996.722656 143.546875 997.066406 143.59375 997.402344 143.671875 C 997.738281 143.75 998.066406 143.859375 998.382812 144 C 998.695312 144.144531 998.996094 144.316406 999.277344 144.515625 Z M 999.269531 144.511719 " fill-opacity="1" fill-rule="nonzero"/></g></g></g></svg>