<svg xmlns="http://www.w3.org/2000/svg" xmlns:xlink="http://www.w3.org/1999/xlink" width="1366" zoomAndPan="magnify" viewBox="0 0 1024.5 576" height="768" preserveAspectRatio="xMidYMid meet" version="1.0"><defs><g/><clipPath id="9306b668d2"><path d="M 896 157 L 1019 157 L 1019 269 L 896 269 Z M 896 157 " clip-rule="nonzero"/></clipPath><clipPath id="91ded377ff"><path d="M 930.714844 132.367188 L 1035.710938 207.636719 L 981.101562 283.8125 L 876.105469 208.539062 Z M 930.714844 132.367188 " clip-rule="nonzero"/></clipPath><clipPath id="9d8b907c00"><path d="M 1036.257812 208.03125 L 931.261719 132.757812 L 876.652344 208.933594 L 981.648438 284.203125 Z M 1036.257812 208.03125 " clip-rule="nonzero"/></clipPath></defs><g fill="#ffffff" fill-opacity="1"><g transform="translate(354.441022, 197.859693)"><g><path d="M 20.359375 -84.59375 L 20.359375 -79.890625 L 14.09375 -79.890625 L 14.09375 0 L 7.828125 0 L 7.828125 -79.890625 L 1.5625 -79.890625 L 1.5625 -84.59375 Z M 20.359375 -84.59375 "/></g></g></g><g fill="#ffffff" fill-opacity="1"><g transform="translate(386.992459, 197.859693)"><g><path d="M 21.9375 -50.125 C 21.9375 -47.769531 21.539062 -46.132812 20.75 -45.21875 C 19.96875 -44.3125 18.796875 -43.859375 17.234375 -43.859375 C 18.015625 -43.859375 18.695312 -43.675781 19.28125 -43.3125 C 19.875 -42.957031 20.363281 -42.484375 20.75 -41.890625 C 21.144531 -41.304688 21.441406 -40.640625 21.640625 -39.890625 C 21.835938 -39.140625 21.9375 -38.375 21.9375 -37.59375 L 21.9375 0 L 15.671875 0 L 15.671875 -39.15625 C 15.671875 -39.9375 15.488281 -40.539062 15.125 -40.96875 C 14.769531 -41.394531 14.296875 -41.703125 13.703125 -41.890625 C 13.117188 -42.085938 12.453125 -42.203125 11.703125 -42.234375 C 10.953125 -42.273438 10.1875 -42.296875 9.40625 -42.296875 L 9.40625 0 L 3.140625 0 L 3.140625 -84.59375 L 9.40625 -84.59375 C 10.96875 -84.59375 12.5 -84.550781 14 -84.46875 C 15.5 -84.382812 16.835938 -84.097656 18.015625 -83.609375 C 19.191406 -83.117188 20.140625 -82.34375 20.859375 -81.28125 C 21.578125 -80.21875 21.9375 -78.707031 21.9375 -76.75 Z M 15.671875 -76.75 C 15.671875 -77.53125 15.5625 -78.132812 15.34375 -78.5625 C 15.132812 -78.988281 14.785156 -79.296875 14.296875 -79.484375 C 13.804688 -79.679688 13.160156 -79.796875 12.359375 -79.828125 C 11.554688 -79.867188 10.570312 -79.890625 9.40625 -79.890625 L 9.40625 -45.421875 C 10.1875 -45.421875 10.953125 -45.4375 11.703125 -45.46875 C 12.453125 -45.507812 13.117188 -45.625 13.703125 -45.8125 C 14.296875 -46.007812 14.769531 -46.320312 15.125 -46.75 C 15.488281 -47.175781 15.671875 -47.78125 15.671875 -48.5625 Z M 15.671875 -76.75 "/></g></g></g><g fill="#ffffff" fill-opacity="1"><g transform="translate(422.67606, 197.859693)"><g><path d="M 17.234375 -79.890625 L 9.40625 -79.890625 L 9.40625 -47 L 15.671875 -47 L 15.671875 -42.296875 L 9.40625 -42.296875 L 9.40625 -4.703125 L 17.234375 -4.703125 L 17.234375 0 L 3.140625 0 L 3.140625 -84.59375 L 17.234375 -84.59375 Z M 17.234375 -79.890625 "/></g></g></g><g fill="#ffffff" fill-opacity="1"><g transform="translate(452.095333, 197.859693)"><g><path d="M 10.1875 -84.59375 L 10.1875 0 L 3.921875 0 L 3.921875 -84.59375 Z M 10.1875 -84.59375 "/></g></g></g><g fill="#ffffff" fill-opacity="1"><g transform="translate(476.816358, 197.859693)"><g><path d="M 21.9375 0 L 15.671875 0 L 7.828125 -62.65625 L 7.828125 0 L 3.140625 0 L 3.140625 -84.59375 L 9.40625 -84.59375 L 17.234375 -21.9375 L 17.234375 -84.59375 L 21.9375 -84.59375 Z M 21.9375 0 "/></g></g></g><g fill="#ffffff" fill-opacity="1"><g transform="translate(512.49996, 197.859693)"><g><path d="M 20.359375 0 L 14.09375 0 L 13.3125 -20.359375 L 8.671875 -20.359375 L 7.828125 0 L 1.5625 0 L 6.265625 -84.59375 L 15.671875 -84.59375 Z M 12.53125 -43.859375 L 10.96875 -81.453125 L 9.40625 -43.859375 L 8.671875 -25.0625 L 13.3125 -25.0625 Z M 12.53125 -43.859375 "/></g></g></g><g fill="#ffffff" fill-opacity="1"><g transform="translate(545.051396, 197.859693)"><g><path d="M 15.671875 -76.75 C 15.671875 -77.53125 15.5625 -78.132812 15.34375 -78.5625 C 15.132812 -78.988281 14.785156 -79.296875 14.296875 -79.484375 C 13.804688 -79.679688 13.160156 -79.796875 12.359375 -79.828125 C 11.554688 -79.867188 10.570312 -79.890625 9.40625 -79.890625 L 9.40625 -4.703125 C 10.570312 -4.703125 11.554688 -4.71875 12.359375 -4.75 C 13.160156 -4.78125 13.804688 -4.894531 14.296875 -5.09375 C 14.785156 -5.289062 15.132812 -5.597656 15.34375 -6.015625 C 15.5625 -6.441406 15.671875 -7.046875 15.671875 -7.828125 Z M 21.9375 -7.828125 C 21.9375 -5.867188 21.578125 -4.359375 20.859375 -3.296875 C 20.140625 -2.242188 19.191406 -1.472656 18.015625 -0.984375 C 16.835938 -0.492188 15.5 -0.207031 14 -0.125 C 12.5 -0.0390625 10.96875 0 9.40625 0 L 3.140625 0 L 3.140625 -84.59375 L 9.40625 -84.59375 C 10.96875 -84.59375 12.5 -84.550781 14 -84.46875 C 15.5 -84.382812 16.835938 -84.097656 18.015625 -83.609375 C 19.191406 -83.117188 20.140625 -82.34375 20.859375 -81.28125 C 21.578125 -80.21875 21.9375 -78.707031 21.9375 -76.75 Z M 21.9375 -7.828125 "/></g></g></g><g fill="#ffffff" fill-opacity="1"><g transform="translate(580.734997, 197.859693)"><g><path d="M 20.359375 0 L 14.09375 0 L 13.3125 -20.359375 L 8.671875 -20.359375 L 7.828125 0 L 1.5625 0 L 6.265625 -84.59375 L 15.671875 -84.59375 Z M 12.53125 -43.859375 L 10.96875 -81.453125 L 9.40625 -43.859375 L 8.671875 -25.0625 L 13.3125 -25.0625 Z M 12.53125 -43.859375 "/></g></g></g><g fill="#ffffff" fill-opacity="1"><g transform="translate(613.286434, 197.859693)"><g><path d="M 14.09375 -20.609375 C 14.09375 -24.066406 13.910156 -27.035156 13.546875 -29.515625 C 13.191406 -31.992188 12.722656 -34.15625 12.140625 -36 C 11.554688 -37.84375 10.882812 -39.445312 10.125 -40.8125 C 9.375 -42.1875 8.609375 -43.476562 7.828125 -44.6875 C 7.046875 -45.894531 6.28125 -47.101562 5.53125 -48.3125 C 4.78125 -49.519531 4.109375 -50.890625 3.515625 -52.421875 C 2.929688 -53.953125 2.457031 -55.722656 2.09375 -57.734375 C 1.738281 -59.742188 1.5625 -62.148438 1.5625 -64.953125 L 1.5625 -76.75 C 1.5625 -77.53125 1.679688 -78.421875 1.921875 -79.421875 C 2.171875 -80.421875 2.640625 -81.351562 3.328125 -82.21875 C 4.015625 -83.082031 4.96875 -83.8125 6.1875 -84.40625 C 7.414062 -85.007812 9.007812 -85.3125 10.96875 -85.3125 C 12.925781 -85.3125 14.515625 -85.007812 15.734375 -84.40625 C 16.960938 -83.8125 17.914062 -83.082031 18.59375 -82.21875 C 19.28125 -81.351562 19.742188 -80.421875 19.984375 -79.421875 C 20.234375 -78.421875 20.359375 -77.53125 20.359375 -76.75 L 20.359375 -54.828125 L 14.09375 -54.828125 L 14.09375 -76.75 C 14.09375 -77.53125 14.003906 -78.175781 13.828125 -78.6875 C 13.648438 -79.195312 13.410156 -79.585938 13.109375 -79.859375 C 12.816406 -80.140625 12.484375 -80.335938 12.109375 -80.453125 C 11.734375 -80.566406 11.351562 -80.625 10.96875 -80.625 C 10.570312 -80.625 10.1875 -80.566406 9.8125 -80.453125 C 9.4375 -80.335938 9.101562 -80.140625 8.8125 -79.859375 C 8.519531 -79.585938 8.28125 -79.195312 8.09375 -78.6875 C 7.914062 -78.175781 7.828125 -77.53125 7.828125 -76.75 L 7.828125 -67.203125 C 7.828125 -63.515625 8.132812 -60.429688 8.75 -57.953125 C 9.375 -55.472656 10.148438 -53.3125 11.078125 -51.46875 C 12.015625 -49.625 13.019531 -47.953125 14.09375 -46.453125 C 15.175781 -44.953125 16.179688 -43.328125 17.109375 -41.578125 C 18.035156 -39.835938 18.804688 -37.816406 19.421875 -35.515625 C 20.046875 -33.210938 20.359375 -30.347656 20.359375 -26.921875 L 20.359375 -7.828125 C 20.359375 -7.441406 20.304688 -6.734375 20.203125 -5.703125 C 20.109375 -4.671875 19.769531 -3.617188 19.1875 -2.546875 C 18.601562 -1.472656 17.671875 -0.519531 16.390625 0.3125 C 15.117188 1.144531 13.3125 1.5625 10.96875 1.5625 C 8.613281 1.5625 6.800781 1.144531 5.53125 0.3125 C 4.257812 -0.519531 3.328125 -1.472656 2.734375 -2.546875 C 2.148438 -3.617188 1.804688 -4.671875 1.703125 -5.703125 C 1.609375 -6.734375 1.5625 -7.441406 1.5625 -7.828125 L 1.5625 -36.03125 L 7.828125 -36.03125 L 7.828125 -7.828125 C 7.828125 -7.441406 7.84375 -6.976562 7.875 -6.4375 C 7.914062 -5.894531 8.03125 -5.378906 8.21875 -4.890625 C 8.414062 -4.398438 8.726562 -3.984375 9.15625 -3.640625 C 9.582031 -3.304688 10.1875 -3.140625 10.96875 -3.140625 C 11.75 -3.140625 12.347656 -3.304688 12.765625 -3.640625 C 13.191406 -3.984375 13.503906 -4.398438 13.703125 -4.890625 C 13.898438 -5.378906 14.015625 -5.894531 14.046875 -6.4375 C 14.078125 -6.976562 14.09375 -7.441406 14.09375 -7.828125 Z M 14.09375 -20.609375 "/></g></g></g><g fill="#ffffff" fill-opacity="1"><g transform="translate(68.391355, 444.895974)"><g><path d="M 49.40625 -109.390625 C 49.40625 -104.972656 48.59375 -101.570312 46.96875 -99.1875 C 45.351562 -96.800781 43.222656 -95.054688 40.578125 -93.953125 C 37.929688 -92.847656 34.914062 -92.203125 31.53125 -92.015625 C 28.15625 -91.835938 24.703125 -91.75 21.171875 -91.75 L 21.171875 0 L 7.0625 0 L 7.0625 -190.546875 L 21.171875 -190.546875 C 28.222656 -190.546875 33.660156 -189.957031 37.484375 -188.78125 C 41.304688 -187.601562 44.097656 -186.128906 45.859375 -184.359375 C 47.628906 -182.597656 48.660156 -180.6875 48.953125 -178.625 C 49.253906 -176.570312 49.40625 -174.664062 49.40625 -172.90625 Z M 35.28125 -172.90625 C 35.28125 -174.664062 35.039062 -176.019531 34.5625 -176.96875 C 34.09375 -177.925781 33.304688 -178.625 32.203125 -179.0625 C 31.097656 -179.507812 29.644531 -179.769531 27.84375 -179.84375 C 26.039062 -179.914062 23.816406 -179.953125 21.171875 -179.953125 L 21.171875 -102.328125 C 22.929688 -102.328125 24.65625 -102.363281 26.34375 -102.4375 C 28.039062 -102.507812 29.550781 -102.765625 30.875 -103.203125 C 32.195312 -103.648438 33.257812 -104.347656 34.0625 -105.296875 C 34.875 -106.253906 35.28125 -107.617188 35.28125 -109.390625 Z M 35.28125 -172.90625 "/></g></g></g><g fill="#ffffff" fill-opacity="1"><g transform="translate(134.864393, 444.895974)"><g><path d="M 45.875 0 L 31.75 0 L 30 -45.875 L 19.515625 -45.875 L 17.640625 0 L 3.53125 0 L 14.109375 -190.546875 L 35.28125 -190.546875 Z M 28.234375 -98.796875 L 24.703125 -183.484375 L 21.171875 -98.796875 L 19.515625 -56.453125 L 30 -56.453125 Z M 28.234375 -98.796875 "/></g></g></g><g fill="#ffffff" fill-opacity="1"><g transform="translate(197.809297, 444.895974)"><g><path d="M 49.40625 -112.921875 C 49.40625 -107.617188 48.519531 -103.9375 46.75 -101.875 C 44.988281 -99.820312 42.34375 -98.796875 38.8125 -98.796875 C 40.570312 -98.796875 42.113281 -98.390625 43.4375 -97.578125 C 44.769531 -96.773438 45.875 -95.710938 46.75 -94.390625 C 47.632812 -93.066406 48.296875 -91.554688 48.734375 -89.859375 C 49.179688 -88.171875 49.40625 -86.445312 49.40625 -84.6875 L 49.40625 0 L 35.28125 0 L 35.28125 -88.21875 C 35.28125 -89.976562 34.875 -91.335938 34.0625 -92.296875 C 33.257812 -93.253906 32.195312 -93.953125 30.875 -94.390625 C 29.550781 -94.828125 28.039062 -95.082031 26.34375 -95.15625 C 24.65625 -95.226562 22.929688 -95.265625 21.171875 -95.265625 L 21.171875 0 L 7.0625 0 L 7.0625 -190.546875 L 21.171875 -190.546875 C 24.703125 -190.546875 28.15625 -190.453125 31.53125 -190.265625 C 34.914062 -190.078125 37.929688 -189.429688 40.578125 -188.328125 C 43.222656 -187.234375 45.351562 -185.488281 46.96875 -183.09375 C 48.59375 -180.707031 49.40625 -177.3125 49.40625 -172.90625 Z M 35.28125 -172.90625 C 35.28125 -174.664062 35.039062 -176.019531 34.5625 -176.96875 C 34.09375 -177.925781 33.304688 -178.625 32.203125 -179.0625 C 31.097656 -179.507812 29.644531 -179.769531 27.84375 -179.84375 C 26.039062 -179.914062 23.816406 -179.953125 21.171875 -179.953125 L 21.171875 -102.328125 C 22.929688 -102.328125 24.65625 -102.363281 26.34375 -102.4375 C 28.039062 -102.507812 29.550781 -102.765625 30.875 -103.203125 C 32.195312 -103.648438 33.257812 -104.347656 34.0625 -105.296875 C 34.875 -106.253906 35.28125 -107.617188 35.28125 -109.390625 Z M 35.28125 -172.90625 "/></g></g></g><g fill="#ffffff" fill-opacity="1"><g transform="translate(267.810462, 444.895974)"><g><path d="M 45.875 0 L 31.75 0 L 30 -45.875 L 19.515625 -45.875 L 17.640625 0 L 3.53125 0 L 14.109375 -190.546875 L 35.28125 -190.546875 Z M 28.234375 -98.796875 L 24.703125 -183.484375 L 21.171875 -98.796875 L 19.515625 -56.453125 L 30 -56.453125 Z M 28.234375 -98.796875 "/></g></g></g><g fill="#ffffff" fill-opacity="1"><g transform="translate(330.755372, 444.895974)"><g/></g></g><g fill="#ffffff" fill-opacity="1"><g transform="translate(370.436674, 444.895974)"><g><path d="M 49.40625 -17.640625 C 49.40625 -16.753906 49.289062 -15.15625 49.0625 -12.84375 C 48.84375 -10.53125 48.070312 -8.160156 46.75 -5.734375 C 45.425781 -3.304688 43.332031 -1.15625 40.46875 0.71875 C 37.601562 2.59375 33.523438 3.53125 28.234375 3.53125 C 22.941406 3.53125 18.859375 2.59375 15.984375 0.71875 C 13.117188 -1.15625 11.023438 -3.304688 9.703125 -5.734375 C 8.378906 -8.160156 7.609375 -10.53125 7.390625 -12.84375 C 7.171875 -15.15625 7.0625 -16.753906 7.0625 -17.640625 L 7.0625 -172.90625 C 7.0625 -173.488281 7.097656 -174.367188 7.171875 -175.546875 C 7.242188 -176.722656 7.460938 -178.023438 7.828125 -179.453125 C 8.191406 -180.890625 8.816406 -182.359375 9.703125 -183.859375 C 10.585938 -185.367188 11.800781 -186.75 13.34375 -188 C 14.882812 -189.25 16.867188 -190.257812 19.296875 -191.03125 C 21.722656 -191.8125 24.703125 -192.203125 28.234375 -192.203125 C 31.753906 -192.203125 34.726562 -191.8125 37.15625 -191.03125 C 39.582031 -190.257812 41.566406 -189.25 43.109375 -188 C 44.660156 -186.75 45.875 -185.367188 46.75 -183.859375 C 47.632812 -182.359375 48.257812 -180.890625 48.625 -179.453125 C 48.988281 -178.023438 49.207031 -176.722656 49.28125 -175.546875 C 49.363281 -174.367188 49.40625 -173.488281 49.40625 -172.90625 Z M 21.171875 -17.640625 C 21.171875 -16.753906 21.207031 -15.707031 21.28125 -14.5 C 21.351562 -13.289062 21.609375 -12.132812 22.046875 -11.03125 C 22.492188 -9.925781 23.191406 -8.988281 24.140625 -8.21875 C 25.097656 -7.445312 26.460938 -7.0625 28.234375 -7.0625 C 29.992188 -7.0625 31.347656 -7.445312 32.296875 -8.21875 C 33.253906 -8.988281 33.953125 -9.925781 34.390625 -11.03125 C 34.835938 -12.132812 35.097656 -13.289062 35.171875 -14.5 C 35.242188 -15.707031 35.28125 -16.753906 35.28125 -17.640625 L 35.28125 -172.90625 C 35.28125 -173.78125 35.242188 -174.734375 35.171875 -175.765625 C 35.097656 -176.796875 34.835938 -177.734375 34.390625 -178.578125 C 33.953125 -179.421875 33.253906 -180.132812 32.296875 -180.71875 C 31.347656 -181.3125 29.992188 -181.609375 28.234375 -181.609375 C 26.460938 -181.609375 25.097656 -181.3125 24.140625 -180.71875 C 23.191406 -180.132812 22.492188 -179.421875 22.046875 -178.578125 C 21.609375 -177.734375 21.351562 -176.796875 21.28125 -175.765625 C 21.207031 -174.734375 21.171875 -173.78125 21.171875 -172.90625 Z M 21.171875 -17.640625 "/></g></g></g><g fill="#ffffff" fill-opacity="1"><g transform="translate(440.437829, 444.895974)"><g/></g></g><g fill="#e5ac5f" fill-opacity="1"><g transform="translate(480.117452, 444.895974)"><g><path d="M 31.75 -46.421875 C 31.75 -54.210938 31.34375 -60.898438 30.53125 -66.484375 C 29.726562 -72.078125 28.664062 -76.945312 27.34375 -81.09375 C 26.019531 -85.25 24.515625 -88.867188 22.828125 -91.953125 C 21.140625 -95.046875 19.410156 -97.953125 17.640625 -100.671875 C 15.878906 -103.390625 14.148438 -106.109375 12.453125 -108.828125 C 10.765625 -111.554688 9.257812 -114.644531 7.9375 -118.09375 C 6.613281 -121.550781 5.546875 -125.539062 4.734375 -130.0625 C 3.929688 -134.582031 3.53125 -140.003906 3.53125 -146.328125 L 3.53125 -172.90625 C 3.53125 -174.664062 3.804688 -176.664062 4.359375 -178.90625 C 4.910156 -181.144531 5.957031 -183.238281 7.5 -185.1875 C 9.039062 -187.132812 11.1875 -188.789062 13.9375 -190.15625 C 16.695312 -191.519531 20.285156 -192.203125 24.703125 -192.203125 C 29.109375 -192.203125 32.691406 -191.519531 35.453125 -190.15625 C 38.210938 -188.789062 40.363281 -187.132812 41.90625 -185.1875 C 43.445312 -183.238281 44.492188 -181.144531 45.046875 -178.90625 C 45.597656 -176.664062 45.875 -174.664062 45.875 -172.90625 L 45.875 -123.5 L 31.75 -123.5 L 31.75 -172.90625 C 31.75 -174.664062 31.546875 -176.113281 31.140625 -177.25 C 30.742188 -178.394531 30.210938 -179.28125 29.546875 -179.90625 C 28.890625 -180.53125 28.132812 -180.96875 27.28125 -181.21875 C 26.4375 -181.476562 25.578125 -181.609375 24.703125 -181.609375 C 23.816406 -181.609375 22.953125 -181.476562 22.109375 -181.21875 C 21.265625 -180.96875 20.507812 -180.53125 19.84375 -179.90625 C 19.1875 -179.28125 18.65625 -178.394531 18.25 -177.25 C 17.84375 -176.113281 17.640625 -174.664062 17.640625 -172.90625 L 17.640625 -151.390625 C 17.640625 -143.085938 18.335938 -136.140625 19.734375 -130.546875 C 21.128906 -124.960938 22.875 -120.09375 24.96875 -115.9375 C 27.070312 -111.789062 29.332031 -108.023438 31.75 -104.640625 C 34.175781 -101.265625 36.4375 -97.609375 38.53125 -93.671875 C 40.632812 -89.734375 42.382812 -85.171875 43.78125 -79.984375 C 45.175781 -74.804688 45.875 -68.359375 45.875 -60.640625 L 45.875 -17.640625 C 45.875 -16.753906 45.757812 -15.15625 45.53125 -12.84375 C 45.3125 -10.53125 44.539062 -8.160156 43.21875 -5.734375 C 41.894531 -3.304688 39.800781 -1.15625 36.9375 0.71875 C 34.070312 2.59375 29.992188 3.53125 24.703125 3.53125 C 19.410156 3.53125 15.328125 2.59375 12.453125 0.71875 C 9.585938 -1.15625 7.492188 -3.304688 6.171875 -5.734375 C 4.847656 -8.160156 4.078125 -10.53125 3.859375 -12.84375 C 3.640625 -15.15625 3.53125 -16.753906 3.53125 -17.640625 L 3.53125 -81.15625 L 17.640625 -81.15625 L 17.640625 -17.640625 C 17.640625 -16.753906 17.675781 -15.707031 17.75 -14.5 C 17.820312 -13.289062 18.078125 -12.132812 18.515625 -11.03125 C 18.960938 -9.925781 19.660156 -8.988281 20.609375 -8.21875 C 21.566406 -7.445312 22.929688 -7.0625 24.703125 -7.0625 C 26.460938 -7.0625 27.820312 -7.445312 28.78125 -8.21875 C 29.738281 -8.988281 30.4375 -9.925781 30.875 -11.03125 C 31.3125 -12.132812 31.566406 -13.289062 31.640625 -14.5 C 31.710938 -15.707031 31.75 -16.753906 31.75 -17.640625 Z M 31.75 -46.421875 "/></g></g></g><g fill="#e5ac5f" fill-opacity="1"><g transform="translate(543.062356, 444.895974)"><g><path d="M 21.171875 -17.640625 C 21.171875 -16.753906 21.207031 -15.707031 21.28125 -14.5 C 21.351562 -13.289062 21.609375 -12.132812 22.046875 -11.03125 C 22.492188 -9.925781 23.191406 -8.988281 24.140625 -8.21875 C 25.097656 -7.445312 26.460938 -7.0625 28.234375 -7.0625 C 29.992188 -7.0625 31.347656 -7.445312 32.296875 -8.21875 C 33.253906 -8.988281 33.953125 -9.925781 34.390625 -11.03125 C 34.835938 -12.132812 35.097656 -13.289062 35.171875 -14.5 C 35.242188 -15.707031 35.28125 -16.753906 35.28125 -17.640625 L 35.28125 -190.546875 L 49.40625 -190.546875 L 49.40625 -17.640625 C 49.40625 -16.753906 49.289062 -15.15625 49.0625 -12.84375 C 48.84375 -10.53125 48.070312 -8.160156 46.75 -5.734375 C 45.425781 -3.304688 43.332031 -1.15625 40.46875 0.71875 C 37.601562 2.59375 33.523438 3.53125 28.234375 3.53125 C 22.941406 3.53125 18.859375 2.59375 15.984375 0.71875 C 13.117188 -1.15625 11.023438 -3.304688 9.703125 -5.734375 C 8.378906 -8.160156 7.609375 -10.53125 7.390625 -12.84375 C 7.171875 -15.15625 7.0625 -16.753906 7.0625 -17.640625 L 7.0625 -190.546875 L 21.171875 -190.546875 Z M 21.171875 -17.640625 "/></g></g></g><g fill="#e5ac5f" fill-opacity="1"><g transform="translate(613.063527, 444.895974)"><g><path d="M 49.40625 -112.921875 L 35.28125 -112.921875 L 35.28125 -172.90625 C 35.28125 -174.664062 35.078125 -176.113281 34.671875 -177.25 C 34.273438 -178.394531 33.742188 -179.28125 33.078125 -179.90625 C 32.421875 -180.53125 31.664062 -180.96875 30.8125 -181.21875 C 29.96875 -181.476562 29.109375 -181.609375 28.234375 -181.609375 C 27.347656 -181.609375 26.484375 -181.476562 25.640625 -181.21875 C 24.796875 -180.96875 24.039062 -180.53125 23.375 -179.90625 C 22.71875 -179.28125 22.1875 -178.394531 21.78125 -177.25 C 21.375 -176.113281 21.171875 -174.664062 21.171875 -172.90625 L 21.171875 -17.640625 C 21.171875 -16.753906 21.207031 -15.707031 21.28125 -14.5 C 21.351562 -13.289062 21.609375 -12.132812 22.046875 -11.03125 C 22.492188 -9.925781 23.191406 -8.988281 24.140625 -8.21875 C 25.097656 -7.445312 26.460938 -7.0625 28.234375 -7.0625 C 29.992188 -7.0625 31.347656 -7.445312 32.296875 -8.21875 C 33.253906 -8.988281 33.953125 -9.925781 34.390625 -11.03125 C 34.835938 -12.132812 35.097656 -13.289062 35.171875 -14.5 C 35.242188 -15.707031 35.28125 -16.753906 35.28125 -17.640625 L 35.28125 -91.75 L 49.40625 -91.75 L 49.40625 -17.640625 C 49.40625 -16.753906 49.289062 -15.15625 49.0625 -12.84375 C 48.84375 -10.53125 48.070312 -8.160156 46.75 -5.734375 C 45.425781 -3.304688 43.332031 -1.15625 40.46875 0.71875 C 37.601562 2.59375 33.523438 3.53125 28.234375 3.53125 C 22.941406 3.53125 18.859375 2.59375 15.984375 0.71875 C 13.117188 -1.15625 11.023438 -3.304688 9.703125 -5.734375 C 8.378906 -8.160156 7.609375 -10.53125 7.390625 -12.84375 C 7.171875 -15.15625 7.0625 -16.753906 7.0625 -17.640625 L 7.0625 -172.90625 C 7.0625 -176.28125 7.6875 -179.195312 8.9375 -181.65625 C 10.1875 -184.125 11.820312 -186.128906 13.84375 -187.671875 C 15.863281 -189.210938 18.125 -190.351562 20.625 -191.09375 C 23.125 -191.832031 25.660156 -192.203125 28.234375 -192.203125 C 30.953125 -192.203125 33.578125 -191.796875 36.109375 -190.984375 C 38.648438 -190.171875 40.910156 -188.957031 42.890625 -187.34375 C 44.878906 -185.726562 46.460938 -183.707031 47.640625 -181.28125 C 48.816406 -178.851562 49.40625 -176.0625 49.40625 -172.90625 Z M 49.40625 -112.921875 "/></g></g></g><g fill="#e5ac5f" fill-opacity="1"><g transform="translate(683.064692, 444.895974)"><g><path d="M 38.8125 -179.953125 L 21.171875 -179.953125 L 21.171875 -105.859375 L 35.28125 -105.859375 L 35.28125 -95.265625 L 21.171875 -95.265625 L 21.171875 -10.578125 L 38.8125 -10.578125 L 38.8125 0 L 7.0625 0 L 7.0625 -190.546875 L 38.8125 -190.546875 Z M 38.8125 -179.953125 "/></g></g></g><g fill="#e5ac5f" fill-opacity="1"><g transform="translate(738.953336, 444.895974)"><g><path d="M 31.75 -46.421875 C 31.75 -54.210938 31.34375 -60.898438 30.53125 -66.484375 C 29.726562 -72.078125 28.664062 -76.945312 27.34375 -81.09375 C 26.019531 -85.25 24.515625 -88.867188 22.828125 -91.953125 C 21.140625 -95.046875 19.410156 -97.953125 17.640625 -100.671875 C 15.878906 -103.390625 14.148438 -106.109375 12.453125 -108.828125 C 10.765625 -111.554688 9.257812 -114.644531 7.9375 -118.09375 C 6.613281 -121.550781 5.546875 -125.539062 4.734375 -130.0625 C 3.929688 -134.582031 3.53125 -140.003906 3.53125 -146.328125 L 3.53125 -172.90625 C 3.53125 -174.664062 3.804688 -176.664062 4.359375 -178.90625 C 4.910156 -181.144531 5.957031 -183.238281 7.5 -185.1875 C 9.039062 -187.132812 11.1875 -188.789062 13.9375 -190.15625 C 16.695312 -191.519531 20.285156 -192.203125 24.703125 -192.203125 C 29.109375 -192.203125 32.691406 -191.519531 35.453125 -190.15625 C 38.210938 -188.789062 40.363281 -187.132812 41.90625 -185.1875 C 43.445312 -183.238281 44.492188 -181.144531 45.046875 -178.90625 C 45.597656 -176.664062 45.875 -174.664062 45.875 -172.90625 L 45.875 -123.5 L 31.75 -123.5 L 31.75 -172.90625 C 31.75 -174.664062 31.546875 -176.113281 31.140625 -177.25 C 30.742188 -178.394531 30.210938 -179.28125 29.546875 -179.90625 C 28.890625 -180.53125 28.132812 -180.96875 27.28125 -181.21875 C 26.4375 -181.476562 25.578125 -181.609375 24.703125 -181.609375 C 23.816406 -181.609375 22.953125 -181.476562 22.109375 -181.21875 C 21.265625 -180.96875 20.507812 -180.53125 19.84375 -179.90625 C 19.1875 -179.28125 18.65625 -178.394531 18.25 -177.25 C 17.84375 -176.113281 17.640625 -174.664062 17.640625 -172.90625 L 17.640625 -151.390625 C 17.640625 -143.085938 18.335938 -136.140625 19.734375 -130.546875 C 21.128906 -124.960938 22.875 -120.09375 24.96875 -115.9375 C 27.070312 -111.789062 29.332031 -108.023438 31.75 -104.640625 C 34.175781 -101.265625 36.4375 -97.609375 38.53125 -93.671875 C 40.632812 -89.734375 42.382812 -85.171875 43.78125 -79.984375 C 45.175781 -74.804688 45.875 -68.359375 45.875 -60.640625 L 45.875 -17.640625 C 45.875 -16.753906 45.757812 -15.15625 45.53125 -12.84375 C 45.3125 -10.53125 44.539062 -8.160156 43.21875 -5.734375 C 41.894531 -3.304688 39.800781 -1.15625 36.9375 0.71875 C 34.070312 2.59375 29.992188 3.53125 24.703125 3.53125 C 19.410156 3.53125 15.328125 2.59375 12.453125 0.71875 C 9.585938 -1.15625 7.492188 -3.304688 6.171875 -5.734375 C 4.847656 -8.160156 4.078125 -10.53125 3.859375 -12.84375 C 3.640625 -15.15625 3.53125 -16.753906 3.53125 -17.640625 L 3.53125 -81.15625 L 17.640625 -81.15625 L 17.640625 -17.640625 C 17.640625 -16.753906 17.675781 -15.707031 17.75 -14.5 C 17.820312 -13.289062 18.078125 -12.132812 18.515625 -11.03125 C 18.960938 -9.925781 19.660156 -8.988281 20.609375 -8.21875 C 21.566406 -7.445312 22.929688 -7.0625 24.703125 -7.0625 C 26.460938 -7.0625 27.820312 -7.445312 28.78125 -8.21875 C 29.738281 -8.988281 30.4375 -9.925781 30.875 -11.03125 C 31.3125 -12.132812 31.566406 -13.289062 31.640625 -14.5 C 31.710938 -15.707031 31.75 -16.753906 31.75 -17.640625 Z M 31.75 -46.421875 "/></g></g></g><g fill="#e5ac5f" fill-opacity="1"><g transform="translate(801.898245, 444.895974)"><g><path d="M 31.75 -46.421875 C 31.75 -54.210938 31.34375 -60.898438 30.53125 -66.484375 C 29.726562 -72.078125 28.664062 -76.945312 27.34375 -81.09375 C 26.019531 -85.25 24.515625 -88.867188 22.828125 -91.953125 C 21.140625 -95.046875 19.410156 -97.953125 17.640625 -100.671875 C 15.878906 -103.390625 14.148438 -106.109375 12.453125 -108.828125 C 10.765625 -111.554688 9.257812 -114.644531 7.9375 -118.09375 C 6.613281 -121.550781 5.546875 -125.539062 4.734375 -130.0625 C 3.929688 -134.582031 3.53125 -140.003906 3.53125 -146.328125 L 3.53125 -172.90625 C 3.53125 -174.664062 3.804688 -176.664062 4.359375 -178.90625 C 4.910156 -181.144531 5.957031 -183.238281 7.5 -185.1875 C 9.039062 -187.132812 11.1875 -188.789062 13.9375 -190.15625 C 16.695312 -191.519531 20.285156 -192.203125 24.703125 -192.203125 C 29.109375 -192.203125 32.691406 -191.519531 35.453125 -190.15625 C 38.210938 -188.789062 40.363281 -187.132812 41.90625 -185.1875 C 43.445312 -183.238281 44.492188 -181.144531 45.046875 -178.90625 C 45.597656 -176.664062 45.875 -174.664062 45.875 -172.90625 L 45.875 -123.5 L 31.75 -123.5 L 31.75 -172.90625 C 31.75 -174.664062 31.546875 -176.113281 31.140625 -177.25 C 30.742188 -178.394531 30.210938 -179.28125 29.546875 -179.90625 C 28.890625 -180.53125 28.132812 -180.96875 27.28125 -181.21875 C 26.4375 -181.476562 25.578125 -181.609375 24.703125 -181.609375 C 23.816406 -181.609375 22.953125 -181.476562 22.109375 -181.21875 C 21.265625 -180.96875 20.507812 -180.53125 19.84375 -179.90625 C 19.1875 -179.28125 18.65625 -178.394531 18.25 -177.25 C 17.84375 -176.113281 17.640625 -174.664062 17.640625 -172.90625 L 17.640625 -151.390625 C 17.640625 -143.085938 18.335938 -136.140625 19.734375 -130.546875 C 21.128906 -124.960938 22.875 -120.09375 24.96875 -115.9375 C 27.070312 -111.789062 29.332031 -108.023438 31.75 -104.640625 C 34.175781 -101.265625 36.4375 -97.609375 38.53125 -93.671875 C 40.632812 -89.734375 42.382812 -85.171875 43.78125 -79.984375 C 45.175781 -74.804688 45.875 -68.359375 45.875 -60.640625 L 45.875 -17.640625 C 45.875 -16.753906 45.757812 -15.15625 45.53125 -12.84375 C 45.3125 -10.53125 44.539062 -8.160156 43.21875 -5.734375 C 41.894531 -3.304688 39.800781 -1.15625 36.9375 0.71875 C 34.070312 2.59375 29.992188 3.53125 24.703125 3.53125 C 19.410156 3.53125 15.328125 2.59375 12.453125 0.71875 C 9.585938 -1.15625 7.492188 -3.304688 6.171875 -5.734375 C 4.847656 -8.160156 4.078125 -10.53125 3.859375 -12.84375 C 3.640625 -15.15625 3.53125 -16.753906 3.53125 -17.640625 L 3.53125 -81.15625 L 17.640625 -81.15625 L 17.640625 -17.640625 C 17.640625 -16.753906 17.675781 -15.707031 17.75 -14.5 C 17.820312 -13.289062 18.078125 -12.132812 18.515625 -11.03125 C 18.960938 -9.925781 19.660156 -8.988281 20.609375 -8.21875 C 21.566406 -7.445312 22.929688 -7.0625 24.703125 -7.0625 C 26.460938 -7.0625 27.820312 -7.445312 28.78125 -8.21875 C 29.738281 -8.988281 30.4375 -9.925781 30.875 -11.03125 C 31.3125 -12.132812 31.566406 -13.289062 31.640625 -14.5 C 31.710938 -15.707031 31.75 -16.753906 31.75 -17.640625 Z M 31.75 -46.421875 "/></g></g></g><g fill="#e5ac5f" fill-opacity="1"><g transform="translate(864.843133, 444.895974)"><g><path d="M 49.40625 -17.640625 C 49.40625 -16.753906 49.289062 -15.15625 49.0625 -12.84375 C 48.84375 -10.53125 48.070312 -8.160156 46.75 -5.734375 C 45.425781 -3.304688 43.332031 -1.15625 40.46875 0.71875 C 37.601562 2.59375 33.523438 3.53125 28.234375 3.53125 C 22.941406 3.53125 18.859375 2.59375 15.984375 0.71875 C 13.117188 -1.15625 11.023438 -3.304688 9.703125 -5.734375 C 8.378906 -8.160156 7.609375 -10.53125 7.390625 -12.84375 C 7.171875 -15.15625 7.0625 -16.753906 7.0625 -17.640625 L 7.0625 -172.90625 C 7.0625 -173.488281 7.097656 -174.367188 7.171875 -175.546875 C 7.242188 -176.722656 7.460938 -178.023438 7.828125 -179.453125 C 8.191406 -180.890625 8.816406 -182.359375 9.703125 -183.859375 C 10.585938 -185.367188 11.800781 -186.75 13.34375 -188 C 14.882812 -189.25 16.867188 -190.257812 19.296875 -191.03125 C 21.722656 -191.8125 24.703125 -192.203125 28.234375 -192.203125 C 31.753906 -192.203125 34.726562 -191.8125 37.15625 -191.03125 C 39.582031 -190.257812 41.566406 -189.25 43.109375 -188 C 44.660156 -186.75 45.875 -185.367188 46.75 -183.859375 C 47.632812 -182.359375 48.257812 -180.890625 48.625 -179.453125 C 48.988281 -178.023438 49.207031 -176.722656 49.28125 -175.546875 C 49.363281 -174.367188 49.40625 -173.488281 49.40625 -172.90625 Z M 21.171875 -17.640625 C 21.171875 -16.753906 21.207031 -15.707031 21.28125 -14.5 C 21.351562 -13.289062 21.609375 -12.132812 22.046875 -11.03125 C 22.492188 -9.925781 23.191406 -8.988281 24.140625 -8.21875 C 25.097656 -7.445312 26.460938 -7.0625 28.234375 -7.0625 C 29.992188 -7.0625 31.347656 -7.445312 32.296875 -8.21875 C 33.253906 -8.988281 33.953125 -9.925781 34.390625 -11.03125 C 34.835938 -12.132812 35.097656 -13.289062 35.171875 -14.5 C 35.242188 -15.707031 35.28125 -16.753906 35.28125 -17.640625 L 35.28125 -172.90625 C 35.28125 -173.78125 35.242188 -174.734375 35.171875 -175.765625 C 35.097656 -176.796875 34.835938 -177.734375 34.390625 -178.578125 C 33.953125 -179.421875 33.253906 -180.132812 32.296875 -180.71875 C 31.347656 -181.3125 29.992188 -181.609375 28.234375 -181.609375 C 26.460938 -181.609375 25.097656 -181.3125 24.140625 -180.71875 C 23.191406 -180.132812 22.492188 -179.421875 22.046875 -178.578125 C 21.609375 -177.734375 21.351562 -176.796875 21.28125 -175.765625 C 21.207031 -174.734375 21.171875 -173.78125 21.171875 -172.90625 Z M 21.171875 -17.640625 "/></g></g></g><g clip-path="url(#9306b668d2)"><g clip-path="url(#91ded377ff)"><g clip-path="url(#9d8b907c00)"><path fill="#e5ac5f" d="M 898.71875 217.746094 L 896.785156 223.363281 L 960.078125 268.738281 L 964.789062 265.101562 Z M 933.136719 200.386719 C 940.394531 202.675781 951.003906 198.828125 964.675781 188.964844 C 968.621094 186.121094 972.230469 183.191406 975.160156 180.691406 C 973.585938 184.425781 971.792969 189.007812 970.230469 193.878906 C 964.9375 210.347656 964.980469 221.550781 970.363281 227.171875 C 978.683594 235.859375 995.613281 234.867188 1006.03125 233.222656 L 968.675781 262.089844 L 900.320312 213.085938 L 915.511719 168.910156 C 917.148438 179.835938 921.542969 196.734375 933.136719 200.386719 Z M 983.097656 169.921875 C 983.363281 170.109375 983.605469 170.324219 983.824219 170.558594 C 984.046875 170.796875 984.242188 171.054688 984.414062 171.328125 C 984.585938 171.605469 984.726562 171.898438 984.839844 172.203125 C 984.953125 172.507812 985.035156 172.820312 985.085938 173.140625 C 985.140625 173.460938 985.160156 173.785156 985.148438 174.109375 C 985.136719 174.4375 985.09375 174.757812 985.015625 175.078125 C 984.941406 175.394531 984.835938 175.703125 984.703125 176 C 984.566406 176.296875 984.402344 176.578125 984.214844 176.84375 C 984.023438 177.109375 983.808594 177.355469 983.570312 177.578125 C 983.332031 177.800781 983.074219 178 982.796875 178.171875 C 982.519531 178.347656 982.230469 178.492188 981.925781 178.605469 C 981.621094 178.722656 981.308594 178.808594 980.988281 178.863281 C 980.667969 178.917969 980.34375 178.9375 980.019531 178.929688 C 979.691406 178.917969 979.371094 178.878906 979.054688 178.804688 C 978.738281 178.734375 978.433594 178.628906 978.136719 178.496094 C 977.84375 178.363281 977.5625 178.203125 977.300781 178.011719 C 977.035156 177.824219 976.792969 177.609375 976.570312 177.375 C 976.351562 177.136719 976.152344 176.878906 975.984375 176.605469 C 975.8125 176.328125 975.671875 176.039062 975.558594 175.734375 C 975.445312 175.429688 975.359375 175.117188 975.308594 174.792969 C 975.257812 174.472656 975.238281 174.148438 975.25 173.824219 C 975.261719 173.496094 975.304688 173.175781 975.378906 172.859375 C 975.453125 172.539062 975.558594 172.234375 975.695312 171.933594 C 975.828125 171.636719 975.992188 171.355469 976.183594 171.089844 C 976.371094 170.824219 976.585938 170.582031 976.824219 170.355469 C 977.0625 170.132812 977.320312 169.9375 977.597656 169.761719 C 977.875 169.589844 978.164062 169.445312 978.472656 169.328125 C 978.777344 169.214844 979.089844 169.128906 979.410156 169.074219 C 979.730469 169.019531 980.054688 168.996094 980.378906 169.007812 C 980.703125 169.015625 981.023438 169.058594 981.339844 169.128906 C 981.65625 169.203125 981.964844 169.304688 982.257812 169.4375 C 982.554688 169.570312 982.835938 169.730469 983.097656 169.921875 Z M 1016.519531 227.054688 C 1016.785156 227.242188 1017.027344 227.457031 1017.246094 227.695312 C 1017.46875 227.929688 1017.664062 228.1875 1017.835938 228.464844 C 1018.007812 228.742188 1018.148438 229.03125 1018.261719 229.335938 C 1018.375 229.640625 1018.457031 229.953125 1018.507812 230.273438 C 1018.5625 230.597656 1018.582031 230.917969 1018.570312 231.246094 C 1018.558594 231.570312 1018.515625 231.894531 1018.4375 232.210938 C 1018.363281 232.527344 1018.257812 232.835938 1018.125 233.132812 C 1017.988281 233.429688 1017.824219 233.710938 1017.636719 233.976562 C 1017.445312 234.242188 1017.230469 234.488281 1016.992188 234.710938 C 1016.753906 234.9375 1016.496094 235.132812 1016.21875 235.308594 C 1015.945312 235.480469 1015.652344 235.625 1015.347656 235.742188 C 1015.042969 235.855469 1014.730469 235.941406 1014.410156 235.996094 C 1014.089844 236.050781 1013.765625 236.074219 1013.441406 236.0625 C 1013.117188 236.054688 1012.792969 236.011719 1012.476562 235.941406 C 1012.160156 235.867188 1011.855469 235.765625 1011.558594 235.628906 C 1011.265625 235.496094 1010.984375 235.335938 1010.722656 235.148438 C 1010.457031 234.957031 1010.214844 234.746094 1009.992188 234.507812 C 1009.773438 234.269531 1009.574219 234.015625 1009.40625 233.738281 C 1009.234375 233.460938 1009.09375 233.171875 1008.980469 232.867188 C 1008.867188 232.5625 1008.78125 232.25 1008.730469 231.929688 C 1008.679688 231.605469 1008.660156 231.285156 1008.671875 230.957031 C 1008.683594 230.632812 1008.726562 230.308594 1008.800781 229.992188 C 1008.875 229.675781 1008.980469 229.367188 1009.117188 229.070312 C 1009.25 228.773438 1009.414062 228.492188 1009.605469 228.226562 C 1009.796875 227.960938 1010.011719 227.714844 1010.25 227.492188 C 1010.488281 227.265625 1010.746094 227.070312 1011.023438 226.894531 C 1011.300781 226.722656 1011.589844 226.578125 1011.894531 226.460938 C 1012.199219 226.347656 1012.515625 226.261719 1012.835938 226.207031 C 1013.15625 226.152344 1013.480469 226.132812 1013.804688 226.140625 C 1014.128906 226.152344 1014.453125 226.191406 1014.769531 226.265625 C 1015.085938 226.339844 1015.390625 226.441406 1015.6875 226.574219 C 1015.984375 226.710938 1016.261719 226.871094 1016.527344 227.058594 Z M 919.136719 158.152344 C 919.402344 158.339844 919.644531 158.554688 919.867188 158.789062 C 920.089844 159.027344 920.285156 159.28125 920.457031 159.558594 C 920.625 159.835938 920.769531 160.125 920.882812 160.429688 C 920.996094 160.734375 921.078125 161.046875 921.132812 161.371094 C 921.183594 161.691406 921.203125 162.015625 921.191406 162.339844 C 921.183594 162.667969 921.136719 162.988281 921.0625 163.304688 C 920.988281 163.625 920.882812 163.933594 920.75 164.230469 C 920.613281 164.527344 920.453125 164.808594 920.261719 165.074219 C 920.070312 165.339844 919.859375 165.585938 919.621094 165.808594 C 919.382812 166.035156 919.125 166.230469 918.847656 166.40625 C 918.570312 166.578125 918.28125 166.722656 917.976562 166.839844 C 917.671875 166.957031 917.359375 167.042969 917.035156 167.097656 C 916.714844 167.152344 916.390625 167.175781 916.066406 167.164062 C 915.742188 167.15625 915.421875 167.113281 915.105469 167.042969 C 914.789062 166.96875 914.480469 166.867188 914.1875 166.734375 C 913.890625 166.601562 913.609375 166.4375 913.347656 166.25 C 913.082031 166.0625 912.839844 165.847656 912.617188 165.609375 C 912.398438 165.375 912.199219 165.117188 912.03125 164.839844 C 911.859375 164.566406 911.714844 164.273438 911.601562 163.96875 C 911.488281 163.664062 911.40625 163.351562 911.355469 163.03125 C 911.304688 162.710938 911.28125 162.386719 911.292969 162.058594 C 911.304688 161.734375 911.347656 161.410156 911.425781 161.09375 C 911.5 160.777344 911.605469 160.46875 911.738281 160.171875 C 911.875 159.875 912.039062 159.589844 912.226562 159.324219 C 912.417969 159.058594 912.632812 158.816406 912.871094 158.59375 C 913.109375 158.367188 913.367188 158.171875 913.644531 157.996094 C 913.921875 157.824219 914.210938 157.679688 914.515625 157.566406 C 914.820312 157.449219 915.132812 157.363281 915.453125 157.308594 C 915.777344 157.253906 916.097656 157.234375 916.425781 157.242188 C 916.75 157.25 917.070312 157.292969 917.386719 157.363281 C 917.703125 157.4375 918.007812 157.539062 918.304688 157.671875 C 918.601562 157.808594 918.878906 157.96875 919.144531 158.15625 Z M 919.136719 158.152344 " fill-opacity="1" fill-rule="nonzero"/></g></g></g></svg>