<svg xmlns="http://www.w3.org/2000/svg" xmlns:xlink="http://www.w3.org/1999/xlink" width="500" zoomAndPan="magnify" viewBox="0 0 375 374.999991" height="500" preserveAspectRatio="xMidYMid meet" version="1.0"><defs><filter x="0%" y="0%" width="100%" height="100%" id="ae57f77c84"><feColorMatrix values="0 0 0 0 1 0 0 0 0 1 0 0 0 0 1 0 0 0 1 0" color-interpolation-filters="sRGB"/></filter><g/><mask id="35a0ce26cb"><g filter="url(#ae57f77c84)"><rect x="-37.5" width="450" fill="#000000" y="-37.499999" height="449.999989" fill-opacity="0.3294"/></g></mask><clipPath id="920fc49d29"><path d="M 11 13 L 75 13 L 75 72 L 11 72 Z M 11 13 " clip-rule="nonzero"/></clipPath><clipPath id="6638eb333b"><path d="M 29.21875 0.527344 L 83.800781 39.65625 L 55.507812 79.121094 L 0.925781 39.992188 Z M 29.21875 0.527344 " clip-rule="nonzero"/></clipPath><clipPath id="b405652cd5"><path d="M 84.007812 39.808594 L 29.429688 0.679688 L 1.136719 40.144531 L 55.714844 79.273438 Z M 84.007812 39.808594 " clip-rule="nonzero"/></clipPath><clipPath id="1fc2aaf711"><path d="M 84.007812 39.808594 L 29.429688 0.679688 L 1.136719 40.144531 L 55.714844 79.273438 Z M 84.007812 39.808594 " clip-rule="nonzero"/></clipPath><clipPath id="29c8bd30bd"><rect x="0" width="75" y="0" height="80"/></clipPath><clipPath id="9135ba41b7"><path d="M 309 134 L 372 134 L 372 192 L 309 192 Z M 309 134 " clip-rule="nonzero"/></clipPath><clipPath id="09241bcecd"><path d="M 327.441406 122.597656 L 381.183594 161.121094 L 353.492188 199.746094 L 299.753906 161.222656 Z M 327.441406 122.597656 " clip-rule="nonzero"/></clipPath><clipPath id="3a641df219"><path d="M 380.789062 160.839844 L 327.050781 122.316406 L 299.359375 160.941406 L 353.097656 199.464844 Z M 380.789062 160.839844 " clip-rule="nonzero"/></clipPath></defs><rect x="-37.5" width="450" fill="#ffffff" y="-37.499999" height="449.999989" fill-opacity="1"/><rect x="-37.5" width="450" fill="#ffffff" y="-37.499999" height="449.999989" fill-opacity="1"/><rect x="-37.5" width="450" fill="#ffdfe8" y="-37.499999" height="449.999989" fill-opacity="1"/><g fill="#000000" fill-opacity="0.4"><g transform="translate(51.650251, 224.161502)"><g><path d="M 3.125 -4.1875 C 5.507812 -4.1875 7.066406 -4.421875 7.796875 -4.890625 C 8.535156 -5.359375 9.003906 -5.859375 9.203125 -6.390625 C 9.410156 -6.929688 9.515625 -7.582031 9.515625 -8.34375 L 9.515625 -48.78125 C 9.515625 -50.425781 9.238281 -51.453125 8.6875 -51.859375 C 7.664062 -52.566406 5.8125 -52.921875 3.125 -52.921875 L 3.125 -57.125 L 21.09375 -57.125 L 37.96875 -13.0625 L 54.140625 -57.125 L 71.9375 -57.125 L 71.9375 -52.921875 C 69.519531 -52.921875 67.941406 -52.6875 67.203125 -52.21875 C 66.472656 -51.75 66.003906 -51.25 65.796875 -50.71875 C 65.597656 -50.1875 65.5 -49.539062 65.5 -48.78125 L 65.5 -8.34375 C 65.5 -6.71875 65.789062 -5.6875 66.375 -5.25 C 67.382812 -4.539062 69.238281 -4.1875 71.9375 -4.1875 L 71.9375 0 L 50.796875 0 L 50.796875 -4.1875 C 53.179688 -4.1875 54.722656 -4.421875 55.421875 -4.890625 C 56.117188 -5.359375 56.554688 -5.859375 56.734375 -6.390625 C 56.910156 -6.929688 57 -7.582031 57 -8.34375 L 57 -48.96875 L 39.328125 0 L 35.109375 0 L 15.609375 -49 L 15.609375 -8.34375 C 15.609375 -6.6875 15.890625 -5.65625 16.453125 -5.25 C 17.460938 -4.539062 19.316406 -4.1875 22.015625 -4.1875 L 22.015625 0 L 3.125 0 Z M 3.125 -4.1875 "/></g></g></g><g fill="#000000" fill-opacity="0.4"><g transform="translate(125.099946, 224.161502)"><g><path d="M 4.03125 0 Z M 39.5625 -17.546875 L 13.140625 -17.546875 C 13.140625 -13.179688 14.171875 -9.804688 16.234375 -7.421875 C 18.304688 -5.035156 20.863281 -3.84375 23.90625 -3.84375 C 28 -3.84375 30.929688 -5.53125 32.703125 -8.90625 L 38.390625 -8.953125 C 37.796875 -6.234375 36.125 -3.929688 33.375 -2.046875 C 30.625 -0.171875 26.910156 0.765625 22.234375 0.765625 C 17.566406 0.765625 13.53125 -0.679688 10.125 -3.578125 C 6.0625 -7.054688 4.03125 -11.957031 4.03125 -18.28125 C 4.03125 -24.601562 5.648438 -29.695312 8.890625 -33.5625 C 12.128906 -37.4375 16.769531 -39.375 22.8125 -39.375 C 30.757812 -39.375 35.898438 -36.175781 38.234375 -29.78125 C 39.171875 -27.21875 39.640625 -24.789062 39.640625 -22.5 C 39.640625 -20.21875 39.613281 -18.566406 39.5625 -17.546875 Z M 30.765625 -23.265625 C 30.765625 -31.035156 28.125 -34.921875 22.84375 -34.921875 C 19.875 -34.921875 17.554688 -33.765625 15.890625 -31.453125 C 14.234375 -29.140625 13.328125 -25.941406 13.171875 -21.859375 L 30.734375 -21.859375 C 30.753906 -22.335938 30.765625 -22.804688 30.765625 -23.265625 Z M 25.171875 -47.78125 C 24.234375 -46.238281 23.101562 -45.46875 21.78125 -45.46875 C 21.175781 -45.46875 20.703125 -45.660156 20.359375 -46.046875 C 20.015625 -46.441406 19.84375 -46.820312 19.84375 -47.1875 C 19.84375 -47.5625 19.878906 -47.890625 19.953125 -48.171875 L 21.859375 -57.15625 C 22.421875 -59.769531 22.957031 -61.472656 23.46875 -62.265625 C 24.40625 -63.660156 25.625 -64.359375 27.125 -64.359375 C 30.164062 -64.359375 31.6875 -63.125 31.6875 -60.65625 C 31.6875 -59.3125 31.164062 -57.765625 30.125 -56.015625 Z M 25.171875 -47.78125 "/></g></g></g><g fill="#000000" fill-opacity="0.4"><g transform="translate(166.451622, 224.161502)"><g><path d="M 19 0.765625 C 11 0.765625 7 -3.675781 7 -12.5625 L 7 -31.609375 C 7 -32.597656 6.878906 -33.25 6.640625 -33.5625 C 6.398438 -33.882812 5.890625 -34.046875 5.109375 -34.046875 L 1.984375 -34.046875 L 1.984375 -38.609375 L 3.390625 -38.609375 C 5.316406 -38.609375 6.726562 -39.21875 7.625 -40.4375 C 8.53125 -41.65625 9.019531 -43.660156 9.09375 -46.453125 L 9.140625 -49.84375 L 15.234375 -49.84375 L 15.234375 -38.609375 L 26.921875 -38.609375 L 26.921875 -34.046875 L 15.234375 -34.046875 L 15.234375 -12.6875 C 15.234375 -7.957031 16.320312 -5.140625 18.5 -4.234375 C 19.113281 -3.972656 19.722656 -3.84375 20.328125 -3.84375 C 22.992188 -3.84375 24.734375 -6.039062 25.546875 -10.4375 L 29.96875 -10.4375 C 29.71875 -5.226562 27.546875 -1.773438 23.453125 -0.078125 C 22.128906 0.484375 20.644531 0.765625 19 0.765625 Z M 19 0.765625 "/></g></g></g><g fill="#000000" fill-opacity="0.4"><g transform="translate(196.761269, 224.161502)"><g><path d="M 3.421875 -19.5 C 3.421875 -22.539062 3.894531 -25.347656 4.84375 -27.921875 C 5.800781 -30.503906 7.128906 -32.644531 8.828125 -34.34375 C 12.179688 -37.695312 16.640625 -39.375 22.203125 -39.375 C 27.804688 -39.375 32.328125 -37.691406 35.765625 -34.328125 C 39.210938 -30.960938 40.9375 -26.1875 40.9375 -20 C 40.9375 -13.820312 39.347656 -8.816406 36.171875 -4.984375 C 33.003906 -1.148438 28.347656 0.765625 22.203125 0.765625 C 16.054688 0.765625 11.390625 -1.09375 8.203125 -4.8125 C 5.015625 -8.53125 3.421875 -13.425781 3.421875 -19.5 Z M 22.203125 -3.8125 C 25.140625 -3.8125 27.53125 -5.15625 29.375 -7.84375 C 31.21875 -10.53125 32.140625 -14.3125 32.140625 -19.1875 C 32.140625 -27.03125 30.160156 -31.929688 26.203125 -33.890625 C 24.984375 -34.492188 23.648438 -34.796875 22.203125 -34.796875 C 17.503906 -34.796875 14.441406 -31.957031 13.015625 -26.28125 C 12.515625 -24.320312 12.265625 -22.035156 12.265625 -19.421875 C 12.265625 -14.390625 13.179688 -10.53125 15.015625 -7.84375 C 16.859375 -5.15625 19.253906 -3.8125 22.203125 -3.8125 Z M 22.203125 -3.8125 "/></g></g></g><g fill="#000000" fill-opacity="0.4"><g transform="translate(239.559825, 224.161502)"><g><path d="M 32.640625 -6.015625 C 29.617188 -1.492188 25.503906 0.765625 20.296875 0.765625 C 15.085938 0.765625 10.953125 -0.945312 7.890625 -4.375 C 4.835938 -7.800781 3.3125 -12.410156 3.3125 -18.203125 C 3.3125 -25.304688 4.878906 -30.609375 8.015625 -34.109375 C 11.148438 -37.617188 15.445312 -39.375 20.90625 -39.375 C 25.039062 -39.375 28.582031 -37.953125 31.53125 -35.109375 L 31.53125 -49.15625 C 31.53125 -50.957031 31.34375 -52.144531 30.96875 -52.71875 C 30.601562 -53.289062 29.710938 -53.578125 28.296875 -53.578125 L 25.59375 -53.578125 L 25.59375 -57.765625 C 28.101562 -57.765625 30.066406 -57.945312 31.484375 -58.3125 C 32.910156 -58.6875 33.925781 -58.953125 34.53125 -59.109375 C 35.144531 -59.273438 35.796875 -59.359375 36.484375 -59.359375 C 37.828125 -59.359375 38.707031 -58.972656 39.125 -58.203125 C 39.539062 -57.429688 39.75 -56.191406 39.75 -54.484375 L 39.75 -10.125 C 39.75 -7.664062 39.851562 -6.144531 40.0625 -5.5625 C 40.488281 -4.445312 41.53125 -3.890625 43.1875 -3.890625 C 44.019531 -3.890625 44.738281 -4.023438 45.34375 -4.296875 L 45.34375 -0.609375 C 44.132812 0.304688 42.488281 0.765625 40.40625 0.765625 C 36.238281 0.765625 33.648438 -1.492188 32.640625 -6.015625 Z M 17.28125 -5.109375 C 18.5 -4.242188 19.972656 -3.8125 21.703125 -3.8125 C 25.054688 -3.8125 27.5625 -5.210938 29.21875 -8.015625 C 30.882812 -10.816406 31.71875 -14.691406 31.71875 -19.640625 C 31.71875 -27.003906 29.773438 -31.726562 25.890625 -33.8125 C 24.648438 -34.46875 23.28125 -34.796875 21.78125 -34.796875 C 18.78125 -34.796875 16.429688 -33.421875 14.734375 -30.671875 C 13.035156 -27.921875 12.1875 -24.242188 12.1875 -19.640625 C 12.1875 -12.304688 13.882812 -7.460938 17.28125 -5.109375 Z M 17.28125 -5.109375 "/></g></g></g><g fill="#000000" fill-opacity="0.4"><g transform="translate(284.376418, 224.161502)"><g><path d="M 3.421875 -19.5 C 3.421875 -22.539062 3.894531 -25.347656 4.84375 -27.921875 C 5.800781 -30.503906 7.128906 -32.644531 8.828125 -34.34375 C 12.179688 -37.695312 16.640625 -39.375 22.203125 -39.375 C 27.804688 -39.375 32.328125 -37.691406 35.765625 -34.328125 C 39.210938 -30.960938 40.9375 -26.1875 40.9375 -20 C 40.9375 -13.820312 39.347656 -8.816406 36.171875 -4.984375 C 33.003906 -1.148438 28.347656 0.765625 22.203125 0.765625 C 16.054688 0.765625 11.390625 -1.09375 8.203125 -4.8125 C 5.015625 -8.53125 3.421875 -13.425781 3.421875 -19.5 Z M 22.203125 -3.8125 C 25.140625 -3.8125 27.53125 -5.15625 29.375 -7.84375 C 31.21875 -10.53125 32.140625 -14.3125 32.140625 -19.1875 C 32.140625 -27.03125 30.160156 -31.929688 26.203125 -33.890625 C 24.984375 -34.492188 23.648438 -34.796875 22.203125 -34.796875 C 17.503906 -34.796875 14.441406 -31.957031 13.015625 -26.28125 C 12.515625 -24.320312 12.265625 -22.035156 12.265625 -19.421875 C 12.265625 -14.390625 13.179688 -10.53125 15.015625 -7.84375 C 16.859375 -5.15625 19.253906 -3.8125 22.203125 -3.8125 Z M 22.203125 -3.8125 "/></g></g></g><g fill="#ffffff" fill-opacity="1"><g transform="translate(48.961625, 221.472885)"><g><path d="M 3.125 -4.1875 C 5.507812 -4.1875 7.066406 -4.421875 7.796875 -4.890625 C 8.535156 -5.359375 9.003906 -5.859375 9.203125 -6.390625 C 9.410156 -6.929688 9.515625 -7.582031 9.515625 -8.34375 L 9.515625 -48.78125 C 9.515625 -50.425781 9.238281 -51.453125 8.6875 -51.859375 C 7.664062 -52.566406 5.8125 -52.921875 3.125 -52.921875 L 3.125 -57.125 L 21.09375 -57.125 L 37.96875 -13.0625 L 54.140625 -57.125 L 71.9375 -57.125 L 71.9375 -52.921875 C 69.519531 -52.921875 67.941406 -52.6875 67.203125 -52.21875 C 66.472656 -51.75 66.003906 -51.25 65.796875 -50.71875 C 65.597656 -50.1875 65.5 -49.539062 65.5 -48.78125 L 65.5 -8.34375 C 65.5 -6.71875 65.789062 -5.6875 66.375 -5.25 C 67.382812 -4.539062 69.238281 -4.1875 71.9375 -4.1875 L 71.9375 0 L 50.796875 0 L 50.796875 -4.1875 C 53.179688 -4.1875 54.722656 -4.421875 55.421875 -4.890625 C 56.117188 -5.359375 56.554688 -5.859375 56.734375 -6.390625 C 56.910156 -6.929688 57 -7.582031 57 -8.34375 L 57 -48.96875 L 39.328125 0 L 35.109375 0 L 15.609375 -49 L 15.609375 -8.34375 C 15.609375 -6.6875 15.890625 -5.65625 16.453125 -5.25 C 17.460938 -4.539062 19.316406 -4.1875 22.015625 -4.1875 L 22.015625 0 L 3.125 0 Z M 3.125 -4.1875 "/></g></g></g><g fill="#ffffff" fill-opacity="1"><g transform="translate(122.41132, 221.472885)"><g><path d="M 4.03125 0 Z M 39.5625 -17.546875 L 13.140625 -17.546875 C 13.140625 -13.179688 14.171875 -9.804688 16.234375 -7.421875 C 18.304688 -5.035156 20.863281 -3.84375 23.90625 -3.84375 C 28 -3.84375 30.929688 -5.53125 32.703125 -8.90625 L 38.390625 -8.953125 C 37.796875 -6.234375 36.125 -3.929688 33.375 -2.046875 C 30.625 -0.171875 26.910156 0.765625 22.234375 0.765625 C 17.566406 0.765625 13.53125 -0.679688 10.125 -3.578125 C 6.0625 -7.054688 4.03125 -11.957031 4.03125 -18.28125 C 4.03125 -24.601562 5.648438 -29.695312 8.890625 -33.5625 C 12.128906 -37.4375 16.769531 -39.375 22.8125 -39.375 C 30.757812 -39.375 35.898438 -36.175781 38.234375 -29.78125 C 39.171875 -27.21875 39.640625 -24.789062 39.640625 -22.5 C 39.640625 -20.21875 39.613281 -18.566406 39.5625 -17.546875 Z M 30.765625 -23.265625 C 30.765625 -31.035156 28.125 -34.921875 22.84375 -34.921875 C 19.875 -34.921875 17.554688 -33.765625 15.890625 -31.453125 C 14.234375 -29.140625 13.328125 -25.941406 13.171875 -21.859375 L 30.734375 -21.859375 C 30.753906 -22.335938 30.765625 -22.804688 30.765625 -23.265625 Z M 25.171875 -47.78125 C 24.234375 -46.238281 23.101562 -45.46875 21.78125 -45.46875 C 21.175781 -45.46875 20.703125 -45.660156 20.359375 -46.046875 C 20.015625 -46.441406 19.84375 -46.820312 19.84375 -47.1875 C 19.84375 -47.5625 19.878906 -47.890625 19.953125 -48.171875 L 21.859375 -57.15625 C 22.421875 -59.769531 22.957031 -61.472656 23.46875 -62.265625 C 24.40625 -63.660156 25.625 -64.359375 27.125 -64.359375 C 30.164062 -64.359375 31.6875 -63.125 31.6875 -60.65625 C 31.6875 -59.3125 31.164062 -57.765625 30.125 -56.015625 Z M 25.171875 -47.78125 "/></g></g></g><g fill="#ffffff" fill-opacity="1"><g transform="translate(163.762996, 221.472885)"><g><path d="M 19 0.765625 C 11 0.765625 7 -3.675781 7 -12.5625 L 7 -31.609375 C 7 -32.597656 6.878906 -33.25 6.640625 -33.5625 C 6.398438 -33.882812 5.890625 -34.046875 5.109375 -34.046875 L 1.984375 -34.046875 L 1.984375 -38.609375 L 3.390625 -38.609375 C 5.316406 -38.609375 6.726562 -39.21875 7.625 -40.4375 C 8.53125 -41.65625 9.019531 -43.660156 9.09375 -46.453125 L 9.140625 -49.84375 L 15.234375 -49.84375 L 15.234375 -38.609375 L 26.921875 -38.609375 L 26.921875 -34.046875 L 15.234375 -34.046875 L 15.234375 -12.6875 C 15.234375 -7.957031 16.320312 -5.140625 18.5 -4.234375 C 19.113281 -3.972656 19.722656 -3.84375 20.328125 -3.84375 C 22.992188 -3.84375 24.734375 -6.039062 25.546875 -10.4375 L 29.96875 -10.4375 C 29.71875 -5.226562 27.546875 -1.773438 23.453125 -0.078125 C 22.128906 0.484375 20.644531 0.765625 19 0.765625 Z M 19 0.765625 "/></g></g></g><g fill="#ffffff" fill-opacity="1"><g transform="translate(194.072643, 221.472885)"><g><path d="M 3.421875 -19.5 C 3.421875 -22.539062 3.894531 -25.347656 4.84375 -27.921875 C 5.800781 -30.503906 7.128906 -32.644531 8.828125 -34.34375 C 12.179688 -37.695312 16.640625 -39.375 22.203125 -39.375 C 27.804688 -39.375 32.328125 -37.691406 35.765625 -34.328125 C 39.210938 -30.960938 40.9375 -26.1875 40.9375 -20 C 40.9375 -13.820312 39.347656 -8.816406 36.171875 -4.984375 C 33.003906 -1.148438 28.347656 0.765625 22.203125 0.765625 C 16.054688 0.765625 11.390625 -1.09375 8.203125 -4.8125 C 5.015625 -8.53125 3.421875 -13.425781 3.421875 -19.5 Z M 22.203125 -3.8125 C 25.140625 -3.8125 27.53125 -5.15625 29.375 -7.84375 C 31.21875 -10.53125 32.140625 -14.3125 32.140625 -19.1875 C 32.140625 -27.03125 30.160156 -31.929688 26.203125 -33.890625 C 24.984375 -34.492188 23.648438 -34.796875 22.203125 -34.796875 C 17.503906 -34.796875 14.441406 -31.957031 13.015625 -26.28125 C 12.515625 -24.320312 12.265625 -22.035156 12.265625 -19.421875 C 12.265625 -14.390625 13.179688 -10.53125 15.015625 -7.84375 C 16.859375 -5.15625 19.253906 -3.8125 22.203125 -3.8125 Z M 22.203125 -3.8125 "/></g></g></g><g fill="#ffffff" fill-opacity="1"><g transform="translate(236.871199, 221.472885)"><g><path d="M 32.640625 -6.015625 C 29.617188 -1.492188 25.503906 0.765625 20.296875 0.765625 C 15.085938 0.765625 10.953125 -0.945312 7.890625 -4.375 C 4.835938 -7.800781 3.3125 -12.410156 3.3125 -18.203125 C 3.3125 -25.304688 4.878906 -30.609375 8.015625 -34.109375 C 11.148438 -37.617188 15.445312 -39.375 20.90625 -39.375 C 25.039062 -39.375 28.582031 -37.953125 31.53125 -35.109375 L 31.53125 -49.15625 C 31.53125 -50.957031 31.34375 -52.144531 30.96875 -52.71875 C 30.601562 -53.289062 29.710938 -53.578125 28.296875 -53.578125 L 25.59375 -53.578125 L 25.59375 -57.765625 C 28.101562 -57.765625 30.066406 -57.945312 31.484375 -58.3125 C 32.910156 -58.6875 33.925781 -58.953125 34.53125 -59.109375 C 35.144531 -59.273438 35.796875 -59.359375 36.484375 -59.359375 C 37.828125 -59.359375 38.707031 -58.972656 39.125 -58.203125 C 39.539062 -57.429688 39.75 -56.191406 39.75 -54.484375 L 39.75 -10.125 C 39.75 -7.664062 39.851562 -6.144531 40.0625 -5.5625 C 40.488281 -4.445312 41.53125 -3.890625 43.1875 -3.890625 C 44.019531 -3.890625 44.738281 -4.023438 45.34375 -4.296875 L 45.34375 -0.609375 C 44.132812 0.304688 42.488281 0.765625 40.40625 0.765625 C 36.238281 0.765625 33.648438 -1.492188 32.640625 -6.015625 Z M 17.28125 -5.109375 C 18.5 -4.242188 19.972656 -3.8125 21.703125 -3.8125 C 25.054688 -3.8125 27.5625 -5.210938 29.21875 -8.015625 C 30.882812 -10.816406 31.71875 -14.691406 31.71875 -19.640625 C 31.71875 -27.003906 29.773438 -31.726562 25.890625 -33.8125 C 24.648438 -34.46875 23.28125 -34.796875 21.78125 -34.796875 C 18.78125 -34.796875 16.429688 -33.421875 14.734375 -30.671875 C 13.035156 -27.921875 12.1875 -24.242188 12.1875 -19.640625 C 12.1875 -12.304688 13.882812 -7.460938 17.28125 -5.109375 Z M 17.28125 -5.109375 "/></g></g></g><g fill="#ffffff" fill-opacity="1"><g transform="translate(281.687792, 221.472885)"><g><path d="M 3.421875 -19.5 C 3.421875 -22.539062 3.894531 -25.347656 4.84375 -27.921875 C 5.800781 -30.503906 7.128906 -32.644531 8.828125 -34.34375 C 12.179688 -37.695312 16.640625 -39.375 22.203125 -39.375 C 27.804688 -39.375 32.328125 -37.691406 35.765625 -34.328125 C 39.210938 -30.960938 40.9375 -26.1875 40.9375 -20 C 40.9375 -13.820312 39.347656 -8.816406 36.171875 -4.984375 C 33.003906 -1.148438 28.347656 0.765625 22.203125 0.765625 C 16.054688 0.765625 11.390625 -1.09375 8.203125 -4.8125 C 5.015625 -8.53125 3.421875 -13.425781 3.421875 -19.5 Z M 22.203125 -3.8125 C 25.140625 -3.8125 27.53125 -5.15625 29.375 -7.84375 C 31.21875 -10.53125 32.140625 -14.3125 32.140625 -19.1875 C 32.140625 -27.03125 30.160156 -31.929688 26.203125 -33.890625 C 24.984375 -34.492188 23.648438 -34.796875 22.203125 -34.796875 C 17.503906 -34.796875 14.441406 -31.957031 13.015625 -26.28125 C 12.515625 -24.320312 12.265625 -22.035156 12.265625 -19.421875 C 12.265625 -14.390625 13.179688 -10.53125 15.015625 -7.84375 C 16.859375 -5.15625 19.253906 -3.8125 22.203125 -3.8125 Z M 22.203125 -3.8125 "/></g></g></g><g fill="#000000" fill-opacity="0.4"><g transform="translate(57.085321, 250.574599)"><g><path d="M 7.1875 0.25 C 5.976562 0.25 4.914062 0.00390625 4 -0.484375 C 3.082031 -0.984375 2.367188 -1.675781 1.859375 -2.5625 C 1.347656 -3.445312 1.09375 -4.472656 1.09375 -5.640625 L 1.09375 -10.59375 C 1.09375 -11.738281 1.347656 -12.75 1.859375 -13.625 C 2.367188 -14.507812 3.082031 -15.195312 4 -15.6875 C 4.914062 -16.175781 5.976562 -16.421875 7.1875 -16.421875 C 8.40625 -16.421875 9.472656 -16.175781 10.390625 -15.6875 C 11.316406 -15.195312 12.035156 -14.507812 12.546875 -13.625 C 13.054688 -12.75 13.3125 -11.738281 13.3125 -10.59375 L 13.3125 -5.640625 C 13.3125 -4.472656 13.054688 -3.441406 12.546875 -2.546875 C 12.035156 -1.648438 11.316406 -0.957031 10.390625 -0.46875 C 9.472656 0.0078125 8.40625 0.25 7.1875 0.25 Z M 7.1875 -2.546875 C 8.039062 -2.546875 8.726562 -2.816406 9.25 -3.359375 C 9.78125 -3.898438 10.046875 -4.617188 10.046875 -5.515625 L 10.046875 -10.625 C 10.046875 -11.519531 9.785156 -12.238281 9.265625 -12.78125 C 8.742188 -13.332031 8.050781 -13.609375 7.1875 -13.609375 C 6.332031 -13.609375 5.644531 -13.332031 5.125 -12.78125 C 4.613281 -12.238281 4.359375 -11.519531 4.359375 -10.625 L 4.359375 -5.515625 C 4.359375 -4.617188 4.613281 -3.898438 5.125 -3.359375 C 5.644531 -2.816406 6.332031 -2.546875 7.1875 -2.546875 Z M 7.1875 -2.546875 "/></g></g></g><g fill="#000000" fill-opacity="0.4"><g transform="translate(73.800681, 250.574599)"><g><path d="M 11.875 -8.6875 C 12.132812 -7.945312 12.265625 -7.019531 12.265625 -5.90625 C 12.265625 -4.769531 12.117188 -3.8125 11.828125 -3.03125 C 11.484375 -2.039062 10.921875 -1.253906 10.140625 -0.671875 C 9.359375 -0.0859375 8.441406 0.203125 7.390625 0.203125 C 6.253906 0.203125 5.375 -0.171875 4.75 -0.921875 C 4.71875 -0.972656 4.679688 -0.988281 4.640625 -0.96875 C 4.609375 -0.957031 4.59375 -0.921875 4.59375 -0.859375 L 4.59375 3.921875 C 4.59375 4.179688 4.460938 4.3125 4.203125 4.3125 L 1.71875 4.3125 C 1.457031 4.3125 1.328125 4.179688 1.328125 3.921875 L 1.328125 -11.53125 C 1.328125 -11.789062 1.457031 -11.921875 1.71875 -11.921875 L 4.203125 -11.921875 C 4.460938 -11.921875 4.59375 -11.789062 4.59375 -11.53125 L 4.59375 -10.890625 C 4.59375 -10.835938 4.609375 -10.804688 4.640625 -10.796875 C 4.679688 -10.785156 4.71875 -10.804688 4.75 -10.859375 C 5.382812 -11.691406 6.265625 -12.109375 7.390625 -12.109375 C 8.441406 -12.109375 9.375 -11.789062 10.1875 -11.15625 C 11 -10.53125 11.5625 -9.707031 11.875 -8.6875 Z M 8.28125 -3.546875 C 8.644531 -4.160156 8.828125 -4.972656 8.828125 -5.984375 C 8.828125 -6.890625 8.664062 -7.644531 8.34375 -8.25 C 7.976562 -8.914062 7.414062 -9.25 6.65625 -9.25 C 5.976562 -9.25 5.453125 -8.914062 5.078125 -8.25 C 4.765625 -7.675781 4.609375 -6.910156 4.609375 -5.953125 C 4.609375 -4.953125 4.769531 -4.160156 5.09375 -3.578125 C 5.488281 -2.972656 6.007812 -2.671875 6.65625 -2.671875 C 7.363281 -2.671875 7.90625 -2.960938 8.28125 -3.546875 Z M 8.28125 -3.546875 "/></g></g></g><g fill="#000000" fill-opacity="0.4"><g transform="translate(89.078782, 250.574599)"><g><path d="M 6.5 0.1875 C 5.175781 0.1875 4.050781 -0.148438 3.125 -0.828125 C 2.195312 -1.515625 1.566406 -2.445312 1.234375 -3.625 C 1.015625 -4.34375 0.90625 -5.128906 0.90625 -5.984375 C 0.90625 -6.921875 1.019531 -7.738281 1.25 -8.4375 C 1.601562 -9.582031 2.238281 -10.476562 3.15625 -11.125 C 4.082031 -11.78125 5.203125 -12.109375 6.515625 -12.109375 C 7.785156 -12.109375 8.867188 -11.78125 9.765625 -11.125 C 10.671875 -10.476562 11.300781 -9.59375 11.65625 -8.46875 C 11.894531 -7.75 12.015625 -6.9375 12.015625 -6.03125 C 12.015625 -5.226562 11.910156 -4.445312 11.703125 -3.6875 C 11.347656 -2.476562 10.710938 -1.53125 9.796875 -0.84375 C 8.878906 -0.15625 7.78125 0.1875 6.5 0.1875 Z M 6.5 -2.625 C 6.988281 -2.625 7.410156 -2.773438 7.765625 -3.078125 C 8.117188 -3.390625 8.375 -3.816406 8.53125 -4.359375 C 8.65625 -4.773438 8.71875 -5.316406 8.71875 -5.984375 C 8.71875 -6.628906 8.65625 -7.175781 8.53125 -7.625 C 8.375 -8.15625 8.117188 -8.566406 7.765625 -8.859375 C 7.410156 -9.148438 6.972656 -9.296875 6.453125 -9.296875 C 5.941406 -9.296875 5.503906 -9.148438 5.140625 -8.859375 C 4.785156 -8.566406 4.53125 -8.15625 4.375 -7.625 C 4.257812 -7.175781 4.203125 -6.628906 4.203125 -5.984375 C 4.203125 -5.347656 4.257812 -4.804688 4.375 -4.359375 C 4.53125 -3.816406 4.789062 -3.390625 5.15625 -3.078125 C 5.519531 -2.773438 5.96875 -2.625 6.5 -2.625 Z M 6.5 -2.625 "/></g></g></g><g fill="#000000" fill-opacity="0.4"><g transform="translate(104.310518, 250.574599)"><g><path d="M 7.140625 -12.078125 C 7.640625 -12.078125 8.050781 -11.984375 8.375 -11.796875 C 8.5625 -11.703125 8.628906 -11.539062 8.578125 -11.3125 L 8.140625 -8.875 C 8.117188 -8.738281 8.070312 -8.65625 8 -8.625 C 7.9375 -8.59375 7.828125 -8.59375 7.671875 -8.625 C 7.421875 -8.6875 7.195312 -8.71875 7 -8.71875 C 6.894531 -8.71875 6.71875 -8.703125 6.46875 -8.671875 C 5.914062 -8.628906 5.441406 -8.425781 5.046875 -8.0625 C 4.660156 -7.695312 4.46875 -7.210938 4.46875 -6.609375 L 4.46875 -0.390625 C 4.46875 -0.128906 4.335938 0 4.078125 0 L 1.59375 0 C 1.332031 0 1.203125 -0.128906 1.203125 -0.390625 L 1.203125 -11.53125 C 1.203125 -11.789062 1.332031 -11.921875 1.59375 -11.921875 L 4.078125 -11.921875 C 4.335938 -11.921875 4.46875 -11.789062 4.46875 -11.53125 L 4.46875 -10.8125 C 4.46875 -10.75 4.484375 -10.707031 4.515625 -10.6875 C 4.546875 -10.675781 4.585938 -10.691406 4.640625 -10.734375 C 5.253906 -11.628906 6.085938 -12.078125 7.140625 -12.078125 Z M 7.140625 -12.078125 "/></g></g></g><g fill="#000000" fill-opacity="0.4"><g transform="translate(115.508661, 250.574599)"><g><path d="M 8.046875 -9.6875 C 8.046875 -9.425781 7.914062 -9.296875 7.65625 -9.296875 L 5.5625 -9.296875 C 5.46875 -9.296875 5.421875 -9.25 5.421875 -9.15625 L 5.421875 -4.359375 C 5.421875 -3.847656 5.523438 -3.472656 5.734375 -3.234375 C 5.941406 -2.992188 6.28125 -2.875 6.75 -2.875 L 7.390625 -2.875 C 7.660156 -2.875 7.796875 -2.742188 7.796875 -2.484375 L 7.796875 -0.484375 C 7.796875 -0.234375 7.660156 -0.09375 7.390625 -0.0625 C 6.804688 -0.03125 6.382812 -0.015625 6.125 -0.015625 C 4.84375 -0.015625 3.882812 -0.234375 3.25 -0.671875 C 2.613281 -1.109375 2.285156 -1.910156 2.265625 -3.078125 L 2.265625 -9.15625 C 2.265625 -9.25 2.222656 -9.296875 2.140625 -9.296875 L 0.953125 -9.296875 C 0.691406 -9.296875 0.5625 -9.425781 0.5625 -9.6875 L 0.5625 -11.53125 C 0.5625 -11.789062 0.691406 -11.921875 0.953125 -11.921875 L 2.140625 -11.921875 C 2.222656 -11.921875 2.265625 -11.96875 2.265625 -12.0625 L 2.265625 -14.671875 C 2.265625 -14.941406 2.398438 -15.078125 2.671875 -15.078125 L 5.03125 -15.078125 C 5.289062 -15.078125 5.421875 -14.941406 5.421875 -14.671875 L 5.421875 -12.0625 C 5.421875 -11.96875 5.46875 -11.921875 5.5625 -11.921875 L 7.65625 -11.921875 C 7.914062 -11.921875 8.046875 -11.789062 8.046875 -11.53125 Z M 8.046875 -9.6875 "/></g></g></g><g fill="#000000" fill-opacity="0.4"><g transform="translate(126.637245, 250.574599)"><g><path d="M 8.15625 -11.53125 C 8.15625 -11.789062 8.289062 -11.921875 8.5625 -11.921875 L 11.03125 -11.921875 C 11.300781 -11.921875 11.4375 -11.789062 11.4375 -11.53125 L 11.4375 -0.390625 C 11.4375 -0.128906 11.300781 0 11.03125 0 L 8.5625 0 C 8.289062 0 8.15625 -0.128906 8.15625 -0.390625 L 8.15625 -1.015625 C 8.15625 -1.078125 8.132812 -1.113281 8.09375 -1.125 C 8.0625 -1.132812 8.03125 -1.113281 8 -1.0625 C 7.394531 -0.25 6.441406 0.15625 5.140625 0.15625 C 3.972656 0.15625 3.007812 -0.195312 2.25 -0.90625 C 1.488281 -1.613281 1.109375 -2.609375 1.109375 -3.890625 L 1.109375 -11.53125 C 1.109375 -11.789062 1.238281 -11.921875 1.5 -11.921875 L 3.96875 -11.921875 C 4.226562 -11.921875 4.359375 -11.789062 4.359375 -11.53125 L 4.359375 -4.703125 C 4.359375 -4.085938 4.523438 -3.585938 4.859375 -3.203125 C 5.191406 -2.816406 5.648438 -2.625 6.234375 -2.625 C 6.765625 -2.625 7.195312 -2.78125 7.53125 -3.09375 C 7.875 -3.414062 8.082031 -3.832031 8.15625 -4.34375 Z M 8.15625 -11.53125 "/></g></g></g><g fill="#000000" fill-opacity="0.4"><g transform="translate(141.590792, 250.574599)"><g><path d="M 7.421875 -12.109375 C 8.660156 -12.109375 9.65625 -11.726562 10.40625 -10.96875 C 11.164062 -10.207031 11.546875 -9.179688 11.546875 -7.890625 L 11.546875 -0.390625 C 11.546875 -0.128906 11.414062 0 11.15625 0 L 8.671875 0 C 8.410156 0 8.28125 -0.128906 8.28125 -0.390625 L 8.28125 -7.21875 C 8.28125 -7.832031 8.109375 -8.332031 7.765625 -8.71875 C 7.421875 -9.101562 6.96875 -9.296875 6.40625 -9.296875 C 5.832031 -9.296875 5.363281 -9.101562 5 -8.71875 C 4.644531 -8.332031 4.46875 -7.832031 4.46875 -7.21875 L 4.46875 -0.390625 C 4.46875 -0.128906 4.335938 0 4.078125 0 L 1.59375 0 C 1.332031 0 1.203125 -0.128906 1.203125 -0.390625 L 1.203125 -11.53125 C 1.203125 -11.789062 1.332031 -11.921875 1.59375 -11.921875 L 4.078125 -11.921875 C 4.335938 -11.921875 4.46875 -11.789062 4.46875 -11.53125 L 4.46875 -10.875 C 4.46875 -10.8125 4.484375 -10.769531 4.515625 -10.75 C 4.546875 -10.738281 4.578125 -10.757812 4.609375 -10.8125 C 5.242188 -11.675781 6.179688 -12.109375 7.421875 -12.109375 Z M 7.421875 -12.109375 "/></g></g></g><g fill="#000000" fill-opacity="0.4"><g transform="translate(156.590703, 250.574599)"><g><path d="M 3.015625 -13.046875 C 2.429688 -13.046875 1.953125 -13.226562 1.578125 -13.59375 C 1.203125 -13.957031 1.015625 -14.425781 1.015625 -15 C 1.015625 -15.570312 1.203125 -16.039062 1.578125 -16.40625 C 1.953125 -16.769531 2.429688 -16.953125 3.015625 -16.953125 C 3.617188 -16.953125 4.101562 -16.773438 4.46875 -16.421875 C 4.832031 -16.066406 5.015625 -15.59375 5.015625 -15 C 5.015625 -14.414062 4.832031 -13.941406 4.46875 -13.578125 C 4.101562 -13.222656 3.617188 -13.046875 3.015625 -13.046875 Z M 1.78125 0 C 1.519531 0 1.390625 -0.128906 1.390625 -0.390625 L 1.390625 -11.53125 C 1.390625 -11.789062 1.519531 -11.921875 1.78125 -11.921875 L 4.265625 -11.921875 C 4.523438 -11.921875 4.65625 -11.789062 4.65625 -11.53125 L 4.65625 -0.390625 C 4.65625 -0.128906 4.523438 0 4.265625 0 Z M 1.78125 0 "/></g></g></g><g fill="#000000" fill-opacity="0.4"><g transform="translate(164.937496, 250.574599)"><g><path d="M 8.390625 -15.84375 C 8.390625 -16.101562 8.519531 -16.234375 8.78125 -16.234375 L 11.265625 -16.234375 C 11.523438 -16.234375 11.65625 -16.101562 11.65625 -15.84375 L 11.65625 -0.390625 C 11.65625 -0.128906 11.523438 0 11.265625 0 L 8.78125 0 C 8.519531 0 8.390625 -0.128906 8.390625 -0.390625 L 8.390625 -1.015625 C 8.390625 -1.078125 8.367188 -1.113281 8.328125 -1.125 C 8.296875 -1.132812 8.265625 -1.113281 8.234375 -1.0625 C 7.597656 -0.226562 6.71875 0.1875 5.59375 0.1875 C 4.539062 0.1875 3.609375 -0.125 2.796875 -0.75 C 1.984375 -1.375 1.421875 -2.195312 1.109375 -3.21875 C 0.847656 -3.96875 0.71875 -4.894531 0.71875 -6 C 0.71875 -7.144531 0.863281 -8.101562 1.15625 -8.875 C 1.5 -9.863281 2.0625 -10.648438 2.84375 -11.234375 C 3.625 -11.828125 4.539062 -12.125 5.59375 -12.125 C 6.726562 -12.125 7.609375 -11.742188 8.234375 -10.984375 C 8.265625 -10.941406 8.296875 -10.925781 8.328125 -10.9375 C 8.367188 -10.957031 8.390625 -11 8.390625 -11.0625 Z M 7.90625 -3.65625 C 8.21875 -4.226562 8.375 -4.992188 8.375 -5.953125 C 8.375 -6.972656 8.210938 -7.769531 7.890625 -8.34375 C 7.492188 -8.945312 6.972656 -9.25 6.328125 -9.25 C 5.617188 -9.25 5.078125 -8.957031 4.703125 -8.375 C 4.335938 -7.75 4.15625 -6.9375 4.15625 -5.9375 C 4.15625 -5.019531 4.316406 -4.257812 4.640625 -3.65625 C 5.003906 -3 5.566406 -2.671875 6.328125 -2.671875 C 7.003906 -2.671875 7.53125 -3 7.90625 -3.65625 Z M 7.90625 -3.65625 "/></g></g></g><g fill="#000000" fill-opacity="0.4"><g transform="translate(180.169228, 250.574599)"><g><path d="M 5.984375 -12.109375 C 6.984375 -12.109375 7.878906 -11.929688 8.671875 -11.578125 C 9.460938 -11.234375 10.078125 -10.757812 10.515625 -10.15625 C 10.953125 -9.550781 11.171875 -8.878906 11.171875 -8.140625 L 11.171875 -0.390625 C 11.171875 -0.128906 11.039062 0 10.78125 0 L 8.296875 0 C 8.035156 0 7.90625 -0.128906 7.90625 -0.390625 L 7.90625 -0.953125 C 7.90625 -1.015625 7.890625 -1.046875 7.859375 -1.046875 C 7.828125 -1.054688 7.789062 -1.039062 7.75 -1 C 7.03125 -0.207031 5.96875 0.1875 4.5625 0.1875 C 3.375 0.1875 2.414062 -0.101562 1.6875 -0.6875 C 0.96875 -1.28125 0.609375 -2.148438 0.609375 -3.296875 C 0.609375 -4.484375 1.023438 -5.40625 1.859375 -6.0625 C 2.691406 -6.71875 3.878906 -7.046875 5.421875 -7.046875 L 7.765625 -7.046875 C 7.859375 -7.046875 7.90625 -7.09375 7.90625 -7.1875 L 7.90625 -7.671875 C 7.90625 -8.179688 7.742188 -8.578125 7.421875 -8.859375 C 7.109375 -9.148438 6.648438 -9.296875 6.046875 -9.296875 C 5.585938 -9.296875 5.207031 -9.21875 4.90625 -9.0625 C 4.601562 -8.90625 4.398438 -8.691406 4.296875 -8.421875 C 4.203125 -8.203125 4.046875 -8.097656 3.828125 -8.109375 L 1.25 -8.4375 C 1.125 -8.457031 1.023438 -8.492188 0.953125 -8.546875 C 0.890625 -8.597656 0.863281 -8.671875 0.875 -8.765625 C 0.957031 -9.398438 1.222656 -9.972656 1.671875 -10.484375 C 2.128906 -10.992188 2.734375 -11.390625 3.484375 -11.671875 C 4.234375 -11.960938 5.066406 -12.109375 5.984375 -12.109375 Z M 5.515625 -2.25 C 6.179688 -2.25 6.742188 -2.425781 7.203125 -2.78125 C 7.671875 -3.132812 7.90625 -3.59375 7.90625 -4.15625 L 7.90625 -4.96875 C 7.90625 -5.050781 7.859375 -5.09375 7.765625 -5.09375 L 6.125 -5.09375 C 5.425781 -5.09375 4.875 -4.960938 4.46875 -4.703125 C 4.070312 -4.441406 3.875 -4.070312 3.875 -3.59375 C 3.875 -3.175781 4.023438 -2.847656 4.328125 -2.609375 C 4.628906 -2.367188 5.023438 -2.25 5.515625 -2.25 Z M 5.515625 -2.25 "/></g></g></g><g fill="#000000" fill-opacity="0.4"><g transform="translate(194.728703, 250.574599)"><g><path d="M 8.390625 -15.84375 C 8.390625 -16.101562 8.519531 -16.234375 8.78125 -16.234375 L 11.265625 -16.234375 C 11.523438 -16.234375 11.65625 -16.101562 11.65625 -15.84375 L 11.65625 -0.390625 C 11.65625 -0.128906 11.523438 0 11.265625 0 L 8.78125 0 C 8.519531 0 8.390625 -0.128906 8.390625 -0.390625 L 8.390625 -1.015625 C 8.390625 -1.078125 8.367188 -1.113281 8.328125 -1.125 C 8.296875 -1.132812 8.265625 -1.113281 8.234375 -1.0625 C 7.597656 -0.226562 6.71875 0.1875 5.59375 0.1875 C 4.539062 0.1875 3.609375 -0.125 2.796875 -0.75 C 1.984375 -1.375 1.421875 -2.195312 1.109375 -3.21875 C 0.847656 -3.96875 0.71875 -4.894531 0.71875 -6 C 0.71875 -7.144531 0.863281 -8.101562 1.15625 -8.875 C 1.5 -9.863281 2.0625 -10.648438 2.84375 -11.234375 C 3.625 -11.828125 4.539062 -12.125 5.59375 -12.125 C 6.726562 -12.125 7.609375 -11.742188 8.234375 -10.984375 C 8.265625 -10.941406 8.296875 -10.925781 8.328125 -10.9375 C 8.367188 -10.957031 8.390625 -11 8.390625 -11.0625 Z M 7.90625 -3.65625 C 8.21875 -4.226562 8.375 -4.992188 8.375 -5.953125 C 8.375 -6.972656 8.210938 -7.769531 7.890625 -8.34375 C 7.492188 -8.945312 6.972656 -9.25 6.328125 -9.25 C 5.617188 -9.25 5.078125 -8.957031 4.703125 -8.375 C 4.335938 -7.75 4.15625 -6.9375 4.15625 -5.9375 C 4.15625 -5.019531 4.316406 -4.257812 4.640625 -3.65625 C 5.003906 -3 5.566406 -2.671875 6.328125 -2.671875 C 7.003906 -2.671875 7.53125 -3 7.90625 -3.65625 Z M 7.90625 -3.65625 "/></g></g></g><g fill="#000000" fill-opacity="0.4"><g transform="translate(209.960436, 250.574599)"><g><path d="M 6.953125 -2.578125 C 7.972656 -2.617188 8.753906 -2.972656 9.296875 -3.640625 C 9.390625 -3.742188 9.488281 -3.796875 9.59375 -3.796875 C 9.6875 -3.796875 9.773438 -3.757812 9.859375 -3.6875 L 11.171875 -2.40625 C 11.265625 -2.3125 11.3125 -2.222656 11.3125 -2.140625 C 11.3125 -2.023438 11.28125 -1.929688 11.21875 -1.859375 C 10.707031 -1.222656 10.050781 -0.722656 9.25 -0.359375 C 8.457031 0.00390625 7.59375 0.1875 6.65625 0.1875 C 5.226562 0.1875 4.046875 -0.175781 3.109375 -0.90625 C 2.179688 -1.632812 1.554688 -2.628906 1.234375 -3.890625 C 1.046875 -4.578125 0.953125 -5.296875 0.953125 -6.046875 C 0.953125 -6.941406 1.035156 -7.703125 1.203125 -8.328125 C 1.515625 -9.472656 2.132812 -10.390625 3.0625 -11.078125 C 4 -11.773438 5.113281 -12.125 6.40625 -12.125 C 7.914062 -12.125 9.113281 -11.675781 10 -10.78125 C 10.894531 -9.882812 11.472656 -8.625 11.734375 -7 C 11.796875 -6.488281 11.84375 -5.925781 11.875 -5.3125 C 11.875 -5.050781 11.742188 -4.921875 11.484375 -4.921875 L 4.359375 -4.921875 C 4.265625 -4.921875 4.21875 -4.875 4.21875 -4.78125 C 4.269531 -4.457031 4.320312 -4.21875 4.375 -4.0625 C 4.53125 -3.582031 4.835938 -3.210938 5.296875 -2.953125 C 5.753906 -2.703125 6.304688 -2.578125 6.953125 -2.578125 Z M 6.359375 -9.296875 C 5.859375 -9.296875 5.441406 -9.175781 5.109375 -8.9375 C 4.773438 -8.695312 4.546875 -8.363281 4.421875 -7.9375 C 4.347656 -7.632812 4.304688 -7.4375 4.296875 -7.34375 C 4.273438 -7.257812 4.3125 -7.21875 4.40625 -7.21875 L 8.34375 -7.21875 C 8.425781 -7.21875 8.46875 -7.242188 8.46875 -7.296875 C 8.46875 -7.472656 8.4375 -7.65625 8.375 -7.84375 C 8.226562 -8.289062 7.984375 -8.644531 7.640625 -8.90625 C 7.304688 -9.164062 6.878906 -9.296875 6.359375 -9.296875 Z M 6.359375 -9.296875 "/></g></g></g><g fill="#000000" fill-opacity="0.4"><g transform="translate(224.960347, 250.574599)"><g/></g></g><g fill="#000000" fill-opacity="0.4"><g transform="translate(231.916244, 250.574599)"><g><path d="M 1.8125 0 C 1.550781 0 1.421875 -0.128906 1.421875 -0.390625 L 1.421875 -15.84375 C 1.421875 -16.101562 1.550781 -16.234375 1.8125 -16.234375 L 7.484375 -16.234375 C 8.648438 -16.234375 9.664062 -16.023438 10.53125 -15.609375 C 11.40625 -15.203125 12.082031 -14.628906 12.5625 -13.890625 C 13.039062 -13.148438 13.28125 -12.289062 13.28125 -11.3125 L 13.28125 -4.921875 C 13.28125 -3.941406 13.039062 -3.082031 12.5625 -2.34375 C 12.082031 -1.601562 11.40625 -1.023438 10.53125 -0.609375 C 9.664062 -0.203125 8.648438 0 7.484375 0 Z M 4.6875 -2.9375 C 4.6875 -2.851562 4.734375 -2.8125 4.828125 -2.8125 L 7.609375 -2.8125 C 8.316406 -2.8125 8.890625 -3.050781 9.328125 -3.53125 C 9.773438 -4.007812 10.003906 -4.648438 10.015625 -5.453125 L 10.015625 -10.78125 C 10.015625 -11.582031 9.789062 -12.222656 9.34375 -12.703125 C 8.90625 -13.179688 8.316406 -13.421875 7.578125 -13.421875 L 4.828125 -13.421875 C 4.734375 -13.421875 4.6875 -13.375 4.6875 -13.28125 Z M 4.6875 -2.9375 "/></g></g></g><g fill="#000000" fill-opacity="0.4"><g transform="translate(248.562062, 250.574599)"><g><path d="M 3.015625 -13.046875 C 2.429688 -13.046875 1.953125 -13.226562 1.578125 -13.59375 C 1.203125 -13.957031 1.015625 -14.425781 1.015625 -15 C 1.015625 -15.570312 1.203125 -16.039062 1.578125 -16.40625 C 1.953125 -16.769531 2.429688 -16.953125 3.015625 -16.953125 C 3.617188 -16.953125 4.101562 -16.773438 4.46875 -16.421875 C 4.832031 -16.066406 5.015625 -15.59375 5.015625 -15 C 5.015625 -14.414062 4.832031 -13.941406 4.46875 -13.578125 C 4.101562 -13.222656 3.617188 -13.046875 3.015625 -13.046875 Z M 1.78125 0 C 1.519531 0 1.390625 -0.128906 1.390625 -0.390625 L 1.390625 -11.53125 C 1.390625 -11.789062 1.519531 -11.921875 1.78125 -11.921875 L 4.265625 -11.921875 C 4.523438 -11.921875 4.65625 -11.789062 4.65625 -11.53125 L 4.65625 -0.390625 C 4.65625 -0.128906 4.523438 0 4.265625 0 Z M 1.78125 0 "/></g></g></g><g fill="#000000" fill-opacity="0.4"><g transform="translate(256.908855, 250.574599)"><g><path d="M 8.484375 -11.53125 C 8.484375 -11.789062 8.613281 -11.921875 8.875 -11.921875 L 11.359375 -11.921875 C 11.617188 -11.921875 11.75 -11.789062 11.75 -11.53125 L 11.75 -1.0625 C 11.75 0.957031 11.171875 2.398438 10.015625 3.265625 C 8.859375 4.128906 7.367188 4.5625 5.546875 4.5625 C 5.035156 4.5625 4.453125 4.523438 3.796875 4.453125 C 3.566406 4.429688 3.453125 4.289062 3.453125 4.03125 L 3.546875 1.875 C 3.546875 1.75 3.585938 1.648438 3.671875 1.578125 C 3.753906 1.515625 3.859375 1.5 3.984375 1.53125 C 4.554688 1.601562 5.03125 1.640625 5.40625 1.640625 C 6.394531 1.640625 7.15625 1.421875 7.6875 0.984375 C 8.21875 0.554688 8.484375 -0.132812 8.484375 -1.09375 C 8.484375 -1.132812 8.46875 -1.160156 8.4375 -1.171875 C 8.40625 -1.179688 8.367188 -1.160156 8.328125 -1.109375 C 7.753906 -0.492188 6.90625 -0.1875 5.78125 -0.1875 C 4.769531 -0.1875 3.84375 -0.425781 3 -0.90625 C 2.15625 -1.394531 1.554688 -2.179688 1.203125 -3.265625 C 0.972656 -3.984375 0.859375 -4.90625 0.859375 -6.03125 C 0.859375 -7.238281 1 -8.21875 1.28125 -8.96875 C 1.601562 -9.914062 2.148438 -10.675781 2.921875 -11.25 C 3.691406 -11.820312 4.585938 -12.109375 5.609375 -12.109375 C 6.765625 -12.109375 7.671875 -11.757812 8.328125 -11.0625 C 8.367188 -11.007812 8.40625 -10.988281 8.4375 -11 C 8.46875 -11.019531 8.484375 -11.0625 8.484375 -11.125 Z M 8.296875 -4.15625 C 8.421875 -4.613281 8.484375 -5.242188 8.484375 -6.046875 C 8.484375 -6.523438 8.46875 -6.894531 8.4375 -7.15625 C 8.40625 -7.425781 8.351562 -7.675781 8.28125 -7.90625 C 8.132812 -8.320312 7.898438 -8.65625 7.578125 -8.90625 C 7.253906 -9.164062 6.851562 -9.296875 6.375 -9.296875 C 5.914062 -9.296875 5.519531 -9.164062 5.1875 -8.90625 C 4.863281 -8.65625 4.625 -8.320312 4.46875 -7.90625 C 4.257812 -7.445312 4.15625 -6.820312 4.15625 -6.03125 C 4.15625 -5.164062 4.242188 -4.546875 4.421875 -4.171875 C 4.566406 -3.753906 4.8125 -3.414062 5.15625 -3.15625 C 5.507812 -2.90625 5.925781 -2.78125 6.40625 -2.78125 C 6.894531 -2.78125 7.300781 -2.90625 7.625 -3.15625 C 7.945312 -3.414062 8.171875 -3.75 8.296875 -4.15625 Z M 8.296875 -4.15625 "/></g></g></g><g fill="#000000" fill-opacity="0.4"><g transform="translate(272.117413, 250.574599)"><g><path d="M 3.015625 -13.046875 C 2.429688 -13.046875 1.953125 -13.226562 1.578125 -13.59375 C 1.203125 -13.957031 1.015625 -14.425781 1.015625 -15 C 1.015625 -15.570312 1.203125 -16.039062 1.578125 -16.40625 C 1.953125 -16.769531 2.429688 -16.953125 3.015625 -16.953125 C 3.617188 -16.953125 4.101562 -16.773438 4.46875 -16.421875 C 4.832031 -16.066406 5.015625 -15.59375 5.015625 -15 C 5.015625 -14.414062 4.832031 -13.941406 4.46875 -13.578125 C 4.101562 -13.222656 3.617188 -13.046875 3.015625 -13.046875 Z M 1.78125 0 C 1.519531 0 1.390625 -0.128906 1.390625 -0.390625 L 1.390625 -11.53125 C 1.390625 -11.789062 1.519531 -11.921875 1.78125 -11.921875 L 4.265625 -11.921875 C 4.523438 -11.921875 4.65625 -11.789062 4.65625 -11.53125 L 4.65625 -0.390625 C 4.65625 -0.128906 4.523438 0 4.265625 0 Z M 1.78125 0 "/></g></g></g><g fill="#000000" fill-opacity="0.4"><g transform="translate(280.464206, 250.574599)"><g><path d="M 8.046875 -9.6875 C 8.046875 -9.425781 7.914062 -9.296875 7.65625 -9.296875 L 5.5625 -9.296875 C 5.46875 -9.296875 5.421875 -9.25 5.421875 -9.15625 L 5.421875 -4.359375 C 5.421875 -3.847656 5.523438 -3.472656 5.734375 -3.234375 C 5.941406 -2.992188 6.28125 -2.875 6.75 -2.875 L 7.390625 -2.875 C 7.660156 -2.875 7.796875 -2.742188 7.796875 -2.484375 L 7.796875 -0.484375 C 7.796875 -0.234375 7.660156 -0.09375 7.390625 -0.0625 C 6.804688 -0.03125 6.382812 -0.015625 6.125 -0.015625 C 4.84375 -0.015625 3.882812 -0.234375 3.25 -0.671875 C 2.613281 -1.109375 2.285156 -1.910156 2.265625 -3.078125 L 2.265625 -9.15625 C 2.265625 -9.25 2.222656 -9.296875 2.140625 -9.296875 L 0.953125 -9.296875 C 0.691406 -9.296875 0.5625 -9.425781 0.5625 -9.6875 L 0.5625 -11.53125 C 0.5625 -11.789062 0.691406 -11.921875 0.953125 -11.921875 L 2.140625 -11.921875 C 2.222656 -11.921875 2.265625 -11.96875 2.265625 -12.0625 L 2.265625 -14.671875 C 2.265625 -14.941406 2.398438 -15.078125 2.671875 -15.078125 L 5.03125 -15.078125 C 5.289062 -15.078125 5.421875 -14.941406 5.421875 -14.671875 L 5.421875 -12.0625 C 5.421875 -11.96875 5.46875 -11.921875 5.5625 -11.921875 L 7.65625 -11.921875 C 7.914062 -11.921875 8.046875 -11.789062 8.046875 -11.53125 Z M 8.046875 -9.6875 "/></g></g></g><g fill="#000000" fill-opacity="0.4"><g transform="translate(291.59279, 250.574599)"><g><path d="M 5.984375 -12.109375 C 6.984375 -12.109375 7.878906 -11.929688 8.671875 -11.578125 C 9.460938 -11.234375 10.078125 -10.757812 10.515625 -10.15625 C 10.953125 -9.550781 11.171875 -8.878906 11.171875 -8.140625 L 11.171875 -0.390625 C 11.171875 -0.128906 11.039062 0 10.78125 0 L 8.296875 0 C 8.035156 0 7.90625 -0.128906 7.90625 -0.390625 L 7.90625 -0.953125 C 7.90625 -1.015625 7.890625 -1.046875 7.859375 -1.046875 C 7.828125 -1.054688 7.789062 -1.039062 7.75 -1 C 7.03125 -0.207031 5.96875 0.1875 4.5625 0.1875 C 3.375 0.1875 2.414062 -0.101562 1.6875 -0.6875 C 0.96875 -1.28125 0.609375 -2.148438 0.609375 -3.296875 C 0.609375 -4.484375 1.023438 -5.40625 1.859375 -6.0625 C 2.691406 -6.71875 3.878906 -7.046875 5.421875 -7.046875 L 7.765625 -7.046875 C 7.859375 -7.046875 7.90625 -7.09375 7.90625 -7.1875 L 7.90625 -7.671875 C 7.90625 -8.179688 7.742188 -8.578125 7.421875 -8.859375 C 7.109375 -9.148438 6.648438 -9.296875 6.046875 -9.296875 C 5.585938 -9.296875 5.207031 -9.21875 4.90625 -9.0625 C 4.601562 -8.90625 4.398438 -8.691406 4.296875 -8.421875 C 4.203125 -8.203125 4.046875 -8.097656 3.828125 -8.109375 L 1.25 -8.4375 C 1.125 -8.457031 1.023438 -8.492188 0.953125 -8.546875 C 0.890625 -8.597656 0.863281 -8.671875 0.875 -8.765625 C 0.957031 -9.398438 1.222656 -9.972656 1.671875 -10.484375 C 2.128906 -10.992188 2.734375 -11.390625 3.484375 -11.671875 C 4.234375 -11.960938 5.066406 -12.109375 5.984375 -12.109375 Z M 5.515625 -2.25 C 6.179688 -2.25 6.742188 -2.425781 7.203125 -2.78125 C 7.671875 -3.132812 7.90625 -3.59375 7.90625 -4.15625 L 7.90625 -4.96875 C 7.90625 -5.050781 7.859375 -5.09375 7.765625 -5.09375 L 6.125 -5.09375 C 5.425781 -5.09375 4.875 -4.960938 4.46875 -4.703125 C 4.070312 -4.441406 3.875 -4.070312 3.875 -3.59375 C 3.875 -3.175781 4.023438 -2.847656 4.328125 -2.609375 C 4.628906 -2.367188 5.023438 -2.25 5.515625 -2.25 Z M 5.515625 -2.25 "/></g></g></g><g fill="#000000" fill-opacity="0.4"><g transform="translate(306.152265, 250.574599)"><g><path d="M 1.640625 0 C 1.378906 0 1.25 -0.128906 1.25 -0.390625 L 1.25 -15.84375 C 1.25 -16.101562 1.378906 -16.234375 1.640625 -16.234375 L 4.125 -16.234375 C 4.382812 -16.234375 4.515625 -16.101562 4.515625 -15.84375 L 4.515625 -0.390625 C 4.515625 -0.128906 4.382812 0 4.125 0 Z M 1.640625 0 "/></g></g></g><g fill="#ffffff" fill-opacity="1"><g transform="translate(55.035087, 248.524375)"><g><path d="M 7.1875 0.25 C 5.976562 0.25 4.914062 0.00390625 4 -0.484375 C 3.082031 -0.984375 2.367188 -1.675781 1.859375 -2.5625 C 1.347656 -3.445312 1.09375 -4.472656 1.09375 -5.640625 L 1.09375 -10.59375 C 1.09375 -11.738281 1.347656 -12.75 1.859375 -13.625 C 2.367188 -14.507812 3.082031 -15.195312 4 -15.6875 C 4.914062 -16.175781 5.976562 -16.421875 7.1875 -16.421875 C 8.40625 -16.421875 9.472656 -16.175781 10.390625 -15.6875 C 11.316406 -15.195312 12.035156 -14.507812 12.546875 -13.625 C 13.054688 -12.75 13.3125 -11.738281 13.3125 -10.59375 L 13.3125 -5.640625 C 13.3125 -4.472656 13.054688 -3.441406 12.546875 -2.546875 C 12.035156 -1.648438 11.316406 -0.957031 10.390625 -0.46875 C 9.472656 0.0078125 8.40625 0.25 7.1875 0.25 Z M 7.1875 -2.546875 C 8.039062 -2.546875 8.726562 -2.816406 9.25 -3.359375 C 9.78125 -3.898438 10.046875 -4.617188 10.046875 -5.515625 L 10.046875 -10.625 C 10.046875 -11.519531 9.785156 -12.238281 9.265625 -12.78125 C 8.742188 -13.332031 8.050781 -13.609375 7.1875 -13.609375 C 6.332031 -13.609375 5.644531 -13.332031 5.125 -12.78125 C 4.613281 -12.238281 4.359375 -11.519531 4.359375 -10.625 L 4.359375 -5.515625 C 4.359375 -4.617188 4.613281 -3.898438 5.125 -3.359375 C 5.644531 -2.816406 6.332031 -2.546875 7.1875 -2.546875 Z M 7.1875 -2.546875 "/></g></g></g><g fill="#ffffff" fill-opacity="1"><g transform="translate(71.750448, 248.524375)"><g><path d="M 11.875 -8.6875 C 12.132812 -7.945312 12.265625 -7.019531 12.265625 -5.90625 C 12.265625 -4.769531 12.117188 -3.8125 11.828125 -3.03125 C 11.484375 -2.039062 10.921875 -1.253906 10.140625 -0.671875 C 9.359375 -0.0859375 8.441406 0.203125 7.390625 0.203125 C 6.253906 0.203125 5.375 -0.171875 4.75 -0.921875 C 4.71875 -0.972656 4.679688 -0.988281 4.640625 -0.96875 C 4.609375 -0.957031 4.59375 -0.921875 4.59375 -0.859375 L 4.59375 3.921875 C 4.59375 4.179688 4.460938 4.3125 4.203125 4.3125 L 1.71875 4.3125 C 1.457031 4.3125 1.328125 4.179688 1.328125 3.921875 L 1.328125 -11.53125 C 1.328125 -11.789062 1.457031 -11.921875 1.71875 -11.921875 L 4.203125 -11.921875 C 4.460938 -11.921875 4.59375 -11.789062 4.59375 -11.53125 L 4.59375 -10.890625 C 4.59375 -10.835938 4.609375 -10.804688 4.640625 -10.796875 C 4.679688 -10.785156 4.71875 -10.804688 4.75 -10.859375 C 5.382812 -11.691406 6.265625 -12.109375 7.390625 -12.109375 C 8.441406 -12.109375 9.375 -11.789062 10.1875 -11.15625 C 11 -10.53125 11.5625 -9.707031 11.875 -8.6875 Z M 8.28125 -3.546875 C 8.644531 -4.160156 8.828125 -4.972656 8.828125 -5.984375 C 8.828125 -6.890625 8.664062 -7.644531 8.34375 -8.25 C 7.976562 -8.914062 7.414062 -9.25 6.65625 -9.25 C 5.976562 -9.25 5.453125 -8.914062 5.078125 -8.25 C 4.765625 -7.675781 4.609375 -6.910156 4.609375 -5.953125 C 4.609375 -4.953125 4.769531 -4.160156 5.09375 -3.578125 C 5.488281 -2.972656 6.007812 -2.671875 6.65625 -2.671875 C 7.363281 -2.671875 7.90625 -2.960938 8.28125 -3.546875 Z M 8.28125 -3.546875 "/></g></g></g><g fill="#ffffff" fill-opacity="1"><g transform="translate(87.028549, 248.524375)"><g><path d="M 6.5 0.1875 C 5.175781 0.1875 4.050781 -0.148438 3.125 -0.828125 C 2.195312 -1.515625 1.566406 -2.445312 1.234375 -3.625 C 1.015625 -4.34375 0.90625 -5.128906 0.90625 -5.984375 C 0.90625 -6.921875 1.019531 -7.738281 1.25 -8.4375 C 1.601562 -9.582031 2.238281 -10.476562 3.15625 -11.125 C 4.082031 -11.78125 5.203125 -12.109375 6.515625 -12.109375 C 7.785156 -12.109375 8.867188 -11.78125 9.765625 -11.125 C 10.671875 -10.476562 11.300781 -9.59375 11.65625 -8.46875 C 11.894531 -7.75 12.015625 -6.9375 12.015625 -6.03125 C 12.015625 -5.226562 11.910156 -4.445312 11.703125 -3.6875 C 11.347656 -2.476562 10.710938 -1.53125 9.796875 -0.84375 C 8.878906 -0.15625 7.78125 0.1875 6.5 0.1875 Z M 6.5 -2.625 C 6.988281 -2.625 7.410156 -2.773438 7.765625 -3.078125 C 8.117188 -3.390625 8.375 -3.816406 8.53125 -4.359375 C 8.65625 -4.773438 8.71875 -5.316406 8.71875 -5.984375 C 8.71875 -6.628906 8.65625 -7.175781 8.53125 -7.625 C 8.375 -8.15625 8.117188 -8.566406 7.765625 -8.859375 C 7.410156 -9.148438 6.972656 -9.296875 6.453125 -9.296875 C 5.941406 -9.296875 5.503906 -9.148438 5.140625 -8.859375 C 4.785156 -8.566406 4.53125 -8.15625 4.375 -7.625 C 4.257812 -7.175781 4.203125 -6.628906 4.203125 -5.984375 C 4.203125 -5.347656 4.257812 -4.804688 4.375 -4.359375 C 4.53125 -3.816406 4.789062 -3.390625 5.15625 -3.078125 C 5.519531 -2.773438 5.96875 -2.625 6.5 -2.625 Z M 6.5 -2.625 "/></g></g></g><g fill="#ffffff" fill-opacity="1"><g transform="translate(102.260285, 248.524375)"><g><path d="M 7.140625 -12.078125 C 7.640625 -12.078125 8.050781 -11.984375 8.375 -11.796875 C 8.5625 -11.703125 8.628906 -11.539062 8.578125 -11.3125 L 8.140625 -8.875 C 8.117188 -8.738281 8.070312 -8.65625 8 -8.625 C 7.9375 -8.59375 7.828125 -8.59375 7.671875 -8.625 C 7.421875 -8.6875 7.195312 -8.71875 7 -8.71875 C 6.894531 -8.71875 6.71875 -8.703125 6.46875 -8.671875 C 5.914062 -8.628906 5.441406 -8.425781 5.046875 -8.0625 C 4.660156 -7.695312 4.46875 -7.210938 4.46875 -6.609375 L 4.46875 -0.390625 C 4.46875 -0.128906 4.335938 0 4.078125 0 L 1.59375 0 C 1.332031 0 1.203125 -0.128906 1.203125 -0.390625 L 1.203125 -11.53125 C 1.203125 -11.789062 1.332031 -11.921875 1.59375 -11.921875 L 4.078125 -11.921875 C 4.335938 -11.921875 4.46875 -11.789062 4.46875 -11.53125 L 4.46875 -10.8125 C 4.46875 -10.75 4.484375 -10.707031 4.515625 -10.6875 C 4.546875 -10.675781 4.585938 -10.691406 4.640625 -10.734375 C 5.253906 -11.628906 6.085938 -12.078125 7.140625 -12.078125 Z M 7.140625 -12.078125 "/></g></g></g><g fill="#ffffff" fill-opacity="1"><g transform="translate(113.458427, 248.524375)"><g><path d="M 8.046875 -9.6875 C 8.046875 -9.425781 7.914062 -9.296875 7.65625 -9.296875 L 5.5625 -9.296875 C 5.46875 -9.296875 5.421875 -9.25 5.421875 -9.15625 L 5.421875 -4.359375 C 5.421875 -3.847656 5.523438 -3.472656 5.734375 -3.234375 C 5.941406 -2.992188 6.28125 -2.875 6.75 -2.875 L 7.390625 -2.875 C 7.660156 -2.875 7.796875 -2.742188 7.796875 -2.484375 L 7.796875 -0.484375 C 7.796875 -0.234375 7.660156 -0.09375 7.390625 -0.0625 C 6.804688 -0.03125 6.382812 -0.015625 6.125 -0.015625 C 4.84375 -0.015625 3.882812 -0.234375 3.25 -0.671875 C 2.613281 -1.109375 2.285156 -1.910156 2.265625 -3.078125 L 2.265625 -9.15625 C 2.265625 -9.25 2.222656 -9.296875 2.140625 -9.296875 L 0.953125 -9.296875 C 0.691406 -9.296875 0.5625 -9.425781 0.5625 -9.6875 L 0.5625 -11.53125 C 0.5625 -11.789062 0.691406 -11.921875 0.953125 -11.921875 L 2.140625 -11.921875 C 2.222656 -11.921875 2.265625 -11.96875 2.265625 -12.0625 L 2.265625 -14.671875 C 2.265625 -14.941406 2.398438 -15.078125 2.671875 -15.078125 L 5.03125 -15.078125 C 5.289062 -15.078125 5.421875 -14.941406 5.421875 -14.671875 L 5.421875 -12.0625 C 5.421875 -11.96875 5.46875 -11.921875 5.5625 -11.921875 L 7.65625 -11.921875 C 7.914062 -11.921875 8.046875 -11.789062 8.046875 -11.53125 Z M 8.046875 -9.6875 "/></g></g></g><g fill="#ffffff" fill-opacity="1"><g transform="translate(124.587011, 248.524375)"><g><path d="M 8.15625 -11.53125 C 8.15625 -11.789062 8.289062 -11.921875 8.5625 -11.921875 L 11.03125 -11.921875 C 11.300781 -11.921875 11.4375 -11.789062 11.4375 -11.53125 L 11.4375 -0.390625 C 11.4375 -0.128906 11.300781 0 11.03125 0 L 8.5625 0 C 8.289062 0 8.15625 -0.128906 8.15625 -0.390625 L 8.15625 -1.015625 C 8.15625 -1.078125 8.132812 -1.113281 8.09375 -1.125 C 8.0625 -1.132812 8.03125 -1.113281 8 -1.0625 C 7.394531 -0.25 6.441406 0.15625 5.140625 0.15625 C 3.972656 0.15625 3.007812 -0.195312 2.25 -0.90625 C 1.488281 -1.613281 1.109375 -2.609375 1.109375 -3.890625 L 1.109375 -11.53125 C 1.109375 -11.789062 1.238281 -11.921875 1.5 -11.921875 L 3.96875 -11.921875 C 4.226562 -11.921875 4.359375 -11.789062 4.359375 -11.53125 L 4.359375 -4.703125 C 4.359375 -4.085938 4.523438 -3.585938 4.859375 -3.203125 C 5.191406 -2.816406 5.648438 -2.625 6.234375 -2.625 C 6.765625 -2.625 7.195312 -2.78125 7.53125 -3.09375 C 7.875 -3.414062 8.082031 -3.832031 8.15625 -4.34375 Z M 8.15625 -11.53125 "/></g></g></g><g fill="#ffffff" fill-opacity="1"><g transform="translate(139.540558, 248.524375)"><g><path d="M 7.421875 -12.109375 C 8.660156 -12.109375 9.65625 -11.726562 10.40625 -10.96875 C 11.164062 -10.207031 11.546875 -9.179688 11.546875 -7.890625 L 11.546875 -0.390625 C 11.546875 -0.128906 11.414062 0 11.15625 0 L 8.671875 0 C 8.410156 0 8.28125 -0.128906 8.28125 -0.390625 L 8.28125 -7.21875 C 8.28125 -7.832031 8.109375 -8.332031 7.765625 -8.71875 C 7.421875 -9.101562 6.96875 -9.296875 6.40625 -9.296875 C 5.832031 -9.296875 5.363281 -9.101562 5 -8.71875 C 4.644531 -8.332031 4.46875 -7.832031 4.46875 -7.21875 L 4.46875 -0.390625 C 4.46875 -0.128906 4.335938 0 4.078125 0 L 1.59375 0 C 1.332031 0 1.203125 -0.128906 1.203125 -0.390625 L 1.203125 -11.53125 C 1.203125 -11.789062 1.332031 -11.921875 1.59375 -11.921875 L 4.078125 -11.921875 C 4.335938 -11.921875 4.46875 -11.789062 4.46875 -11.53125 L 4.46875 -10.875 C 4.46875 -10.8125 4.484375 -10.769531 4.515625 -10.75 C 4.546875 -10.738281 4.578125 -10.757812 4.609375 -10.8125 C 5.242188 -11.675781 6.179688 -12.109375 7.421875 -12.109375 Z M 7.421875 -12.109375 "/></g></g></g><g fill="#ffffff" fill-opacity="1"><g transform="translate(154.54047, 248.524375)"><g><path d="M 3.015625 -13.046875 C 2.429688 -13.046875 1.953125 -13.226562 1.578125 -13.59375 C 1.203125 -13.957031 1.015625 -14.425781 1.015625 -15 C 1.015625 -15.570312 1.203125 -16.039062 1.578125 -16.40625 C 1.953125 -16.769531 2.429688 -16.953125 3.015625 -16.953125 C 3.617188 -16.953125 4.101562 -16.773438 4.46875 -16.421875 C 4.832031 -16.066406 5.015625 -15.59375 5.015625 -15 C 5.015625 -14.414062 4.832031 -13.941406 4.46875 -13.578125 C 4.101562 -13.222656 3.617188 -13.046875 3.015625 -13.046875 Z M 1.78125 0 C 1.519531 0 1.390625 -0.128906 1.390625 -0.390625 L 1.390625 -11.53125 C 1.390625 -11.789062 1.519531 -11.921875 1.78125 -11.921875 L 4.265625 -11.921875 C 4.523438 -11.921875 4.65625 -11.789062 4.65625 -11.53125 L 4.65625 -0.390625 C 4.65625 -0.128906 4.523438 0 4.265625 0 Z M 1.78125 0 "/></g></g></g><g fill="#ffffff" fill-opacity="1"><g transform="translate(162.887262, 248.524375)"><g><path d="M 8.390625 -15.84375 C 8.390625 -16.101562 8.519531 -16.234375 8.78125 -16.234375 L 11.265625 -16.234375 C 11.523438 -16.234375 11.65625 -16.101562 11.65625 -15.84375 L 11.65625 -0.390625 C 11.65625 -0.128906 11.523438 0 11.265625 0 L 8.78125 0 C 8.519531 0 8.390625 -0.128906 8.390625 -0.390625 L 8.390625 -1.015625 C 8.390625 -1.078125 8.367188 -1.113281 8.328125 -1.125 C 8.296875 -1.132812 8.265625 -1.113281 8.234375 -1.0625 C 7.597656 -0.226562 6.71875 0.1875 5.59375 0.1875 C 4.539062 0.1875 3.609375 -0.125 2.796875 -0.75 C 1.984375 -1.375 1.421875 -2.195312 1.109375 -3.21875 C 0.847656 -3.96875 0.71875 -4.894531 0.71875 -6 C 0.71875 -7.144531 0.863281 -8.101562 1.15625 -8.875 C 1.5 -9.863281 2.0625 -10.648438 2.84375 -11.234375 C 3.625 -11.828125 4.539062 -12.125 5.59375 -12.125 C 6.726562 -12.125 7.609375 -11.742188 8.234375 -10.984375 C 8.265625 -10.941406 8.296875 -10.925781 8.328125 -10.9375 C 8.367188 -10.957031 8.390625 -11 8.390625 -11.0625 Z M 7.90625 -3.65625 C 8.21875 -4.226562 8.375 -4.992188 8.375 -5.953125 C 8.375 -6.972656 8.210938 -7.769531 7.890625 -8.34375 C 7.492188 -8.945312 6.972656 -9.25 6.328125 -9.25 C 5.617188 -9.25 5.078125 -8.957031 4.703125 -8.375 C 4.335938 -7.75 4.15625 -6.9375 4.15625 -5.9375 C 4.15625 -5.019531 4.316406 -4.257812 4.640625 -3.65625 C 5.003906 -3 5.566406 -2.671875 6.328125 -2.671875 C 7.003906 -2.671875 7.53125 -3 7.90625 -3.65625 Z M 7.90625 -3.65625 "/></g></g></g><g fill="#ffffff" fill-opacity="1"><g transform="translate(178.118995, 248.524375)"><g><path d="M 5.984375 -12.109375 C 6.984375 -12.109375 7.878906 -11.929688 8.671875 -11.578125 C 9.460938 -11.234375 10.078125 -10.757812 10.515625 -10.15625 C 10.953125 -9.550781 11.171875 -8.878906 11.171875 -8.140625 L 11.171875 -0.390625 C 11.171875 -0.128906 11.039062 0 10.78125 0 L 8.296875 0 C 8.035156 0 7.90625 -0.128906 7.90625 -0.390625 L 7.90625 -0.953125 C 7.90625 -1.015625 7.890625 -1.046875 7.859375 -1.046875 C 7.828125 -1.054688 7.789062 -1.039062 7.75 -1 C 7.03125 -0.207031 5.96875 0.1875 4.5625 0.1875 C 3.375 0.1875 2.414062 -0.101562 1.6875 -0.6875 C 0.96875 -1.28125 0.609375 -2.148438 0.609375 -3.296875 C 0.609375 -4.484375 1.023438 -5.40625 1.859375 -6.0625 C 2.691406 -6.71875 3.878906 -7.046875 5.421875 -7.046875 L 7.765625 -7.046875 C 7.859375 -7.046875 7.90625 -7.09375 7.90625 -7.1875 L 7.90625 -7.671875 C 7.90625 -8.179688 7.742188 -8.578125 7.421875 -8.859375 C 7.109375 -9.148438 6.648438 -9.296875 6.046875 -9.296875 C 5.585938 -9.296875 5.207031 -9.21875 4.90625 -9.0625 C 4.601562 -8.90625 4.398438 -8.691406 4.296875 -8.421875 C 4.203125 -8.203125 4.046875 -8.097656 3.828125 -8.109375 L 1.25 -8.4375 C 1.125 -8.457031 1.023438 -8.492188 0.953125 -8.546875 C 0.890625 -8.597656 0.863281 -8.671875 0.875 -8.765625 C 0.957031 -9.398438 1.222656 -9.972656 1.671875 -10.484375 C 2.128906 -10.992188 2.734375 -11.390625 3.484375 -11.671875 C 4.234375 -11.960938 5.066406 -12.109375 5.984375 -12.109375 Z M 5.515625 -2.25 C 6.179688 -2.25 6.742188 -2.425781 7.203125 -2.78125 C 7.671875 -3.132812 7.90625 -3.59375 7.90625 -4.15625 L 7.90625 -4.96875 C 7.90625 -5.050781 7.859375 -5.09375 7.765625 -5.09375 L 6.125 -5.09375 C 5.425781 -5.09375 4.875 -4.960938 4.46875 -4.703125 C 4.070312 -4.441406 3.875 -4.070312 3.875 -3.59375 C 3.875 -3.175781 4.023438 -2.847656 4.328125 -2.609375 C 4.628906 -2.367188 5.023438 -2.25 5.515625 -2.25 Z M 5.515625 -2.25 "/></g></g></g><g fill="#ffffff" fill-opacity="1"><g transform="translate(192.67847, 248.524375)"><g><path d="M 8.390625 -15.84375 C 8.390625 -16.101562 8.519531 -16.234375 8.78125 -16.234375 L 11.265625 -16.234375 C 11.523438 -16.234375 11.65625 -16.101562 11.65625 -15.84375 L 11.65625 -0.390625 C 11.65625 -0.128906 11.523438 0 11.265625 0 L 8.78125 0 C 8.519531 0 8.390625 -0.128906 8.390625 -0.390625 L 8.390625 -1.015625 C 8.390625 -1.078125 8.367188 -1.113281 8.328125 -1.125 C 8.296875 -1.132812 8.265625 -1.113281 8.234375 -1.0625 C 7.597656 -0.226562 6.71875 0.1875 5.59375 0.1875 C 4.539062 0.1875 3.609375 -0.125 2.796875 -0.75 C 1.984375 -1.375 1.421875 -2.195312 1.109375 -3.21875 C 0.847656 -3.96875 0.71875 -4.894531 0.71875 -6 C 0.71875 -7.144531 0.863281 -8.101562 1.15625 -8.875 C 1.5 -9.863281 2.0625 -10.648438 2.84375 -11.234375 C 3.625 -11.828125 4.539062 -12.125 5.59375 -12.125 C 6.726562 -12.125 7.609375 -11.742188 8.234375 -10.984375 C 8.265625 -10.941406 8.296875 -10.925781 8.328125 -10.9375 C 8.367188 -10.957031 8.390625 -11 8.390625 -11.0625 Z M 7.90625 -3.65625 C 8.21875 -4.226562 8.375 -4.992188 8.375 -5.953125 C 8.375 -6.972656 8.210938 -7.769531 7.890625 -8.34375 C 7.492188 -8.945312 6.972656 -9.25 6.328125 -9.25 C 5.617188 -9.25 5.078125 -8.957031 4.703125 -8.375 C 4.335938 -7.75 4.15625 -6.9375 4.15625 -5.9375 C 4.15625 -5.019531 4.316406 -4.257812 4.640625 -3.65625 C 5.003906 -3 5.566406 -2.671875 6.328125 -2.671875 C 7.003906 -2.671875 7.53125 -3 7.90625 -3.65625 Z M 7.90625 -3.65625 "/></g></g></g><g fill="#ffffff" fill-opacity="1"><g transform="translate(207.910202, 248.524375)"><g><path d="M 6.953125 -2.578125 C 7.972656 -2.617188 8.753906 -2.972656 9.296875 -3.640625 C 9.390625 -3.742188 9.488281 -3.796875 9.59375 -3.796875 C 9.6875 -3.796875 9.773438 -3.757812 9.859375 -3.6875 L 11.171875 -2.40625 C 11.265625 -2.3125 11.3125 -2.222656 11.3125 -2.140625 C 11.3125 -2.023438 11.28125 -1.929688 11.21875 -1.859375 C 10.707031 -1.222656 10.050781 -0.722656 9.25 -0.359375 C 8.457031 0.00390625 7.59375 0.1875 6.65625 0.1875 C 5.226562 0.1875 4.046875 -0.175781 3.109375 -0.90625 C 2.179688 -1.632812 1.554688 -2.628906 1.234375 -3.890625 C 1.046875 -4.578125 0.953125 -5.296875 0.953125 -6.046875 C 0.953125 -6.941406 1.035156 -7.703125 1.203125 -8.328125 C 1.515625 -9.472656 2.132812 -10.390625 3.0625 -11.078125 C 4 -11.773438 5.113281 -12.125 6.40625 -12.125 C 7.914062 -12.125 9.113281 -11.675781 10 -10.78125 C 10.894531 -9.882812 11.472656 -8.625 11.734375 -7 C 11.796875 -6.488281 11.84375 -5.925781 11.875 -5.3125 C 11.875 -5.050781 11.742188 -4.921875 11.484375 -4.921875 L 4.359375 -4.921875 C 4.265625 -4.921875 4.21875 -4.875 4.21875 -4.78125 C 4.269531 -4.457031 4.320312 -4.21875 4.375 -4.0625 C 4.53125 -3.582031 4.835938 -3.210938 5.296875 -2.953125 C 5.753906 -2.703125 6.304688 -2.578125 6.953125 -2.578125 Z M 6.359375 -9.296875 C 5.859375 -9.296875 5.441406 -9.175781 5.109375 -8.9375 C 4.773438 -8.695312 4.546875 -8.363281 4.421875 -7.9375 C 4.347656 -7.632812 4.304688 -7.4375 4.296875 -7.34375 C 4.273438 -7.257812 4.3125 -7.21875 4.40625 -7.21875 L 8.34375 -7.21875 C 8.425781 -7.21875 8.46875 -7.242188 8.46875 -7.296875 C 8.46875 -7.472656 8.4375 -7.65625 8.375 -7.84375 C 8.226562 -8.289062 7.984375 -8.644531 7.640625 -8.90625 C 7.304688 -9.164062 6.878906 -9.296875 6.359375 -9.296875 Z M 6.359375 -9.296875 "/></g></g></g><g fill="#ffffff" fill-opacity="1"><g transform="translate(222.910113, 248.524375)"><g/></g></g><g fill="#ffffff" fill-opacity="1"><g transform="translate(229.866011, 248.524375)"><g><path d="M 1.8125 0 C 1.550781 0 1.421875 -0.128906 1.421875 -0.390625 L 1.421875 -15.84375 C 1.421875 -16.101562 1.550781 -16.234375 1.8125 -16.234375 L 7.484375 -16.234375 C 8.648438 -16.234375 9.664062 -16.023438 10.53125 -15.609375 C 11.40625 -15.203125 12.082031 -14.628906 12.5625 -13.890625 C 13.039062 -13.148438 13.28125 -12.289062 13.28125 -11.3125 L 13.28125 -4.921875 C 13.28125 -3.941406 13.039062 -3.082031 12.5625 -2.34375 C 12.082031 -1.601562 11.40625 -1.023438 10.53125 -0.609375 C 9.664062 -0.203125 8.648438 0 7.484375 0 Z M 4.6875 -2.9375 C 4.6875 -2.851562 4.734375 -2.8125 4.828125 -2.8125 L 7.609375 -2.8125 C 8.316406 -2.8125 8.890625 -3.050781 9.328125 -3.53125 C 9.773438 -4.007812 10.003906 -4.648438 10.015625 -5.453125 L 10.015625 -10.78125 C 10.015625 -11.582031 9.789062 -12.222656 9.34375 -12.703125 C 8.90625 -13.179688 8.316406 -13.421875 7.578125 -13.421875 L 4.828125 -13.421875 C 4.734375 -13.421875 4.6875 -13.375 4.6875 -13.28125 Z M 4.6875 -2.9375 "/></g></g></g><g fill="#ffffff" fill-opacity="1"><g transform="translate(246.511829, 248.524375)"><g><path d="M 3.015625 -13.046875 C 2.429688 -13.046875 1.953125 -13.226562 1.578125 -13.59375 C 1.203125 -13.957031 1.015625 -14.425781 1.015625 -15 C 1.015625 -15.570312 1.203125 -16.039062 1.578125 -16.40625 C 1.953125 -16.769531 2.429688 -16.953125 3.015625 -16.953125 C 3.617188 -16.953125 4.101562 -16.773438 4.46875 -16.421875 C 4.832031 -16.066406 5.015625 -15.59375 5.015625 -15 C 5.015625 -14.414062 4.832031 -13.941406 4.46875 -13.578125 C 4.101562 -13.222656 3.617188 -13.046875 3.015625 -13.046875 Z M 1.78125 0 C 1.519531 0 1.390625 -0.128906 1.390625 -0.390625 L 1.390625 -11.53125 C 1.390625 -11.789062 1.519531 -11.921875 1.78125 -11.921875 L 4.265625 -11.921875 C 4.523438 -11.921875 4.65625 -11.789062 4.65625 -11.53125 L 4.65625 -0.390625 C 4.65625 -0.128906 4.523438 0 4.265625 0 Z M 1.78125 0 "/></g></g></g><g fill="#ffffff" fill-opacity="1"><g transform="translate(254.858621, 248.524375)"><g><path d="M 8.484375 -11.53125 C 8.484375 -11.789062 8.613281 -11.921875 8.875 -11.921875 L 11.359375 -11.921875 C 11.617188 -11.921875 11.75 -11.789062 11.75 -11.53125 L 11.75 -1.0625 C 11.75 0.957031 11.171875 2.398438 10.015625 3.265625 C 8.859375 4.128906 7.367188 4.5625 5.546875 4.5625 C 5.035156 4.5625 4.453125 4.523438 3.796875 4.453125 C 3.566406 4.429688 3.453125 4.289062 3.453125 4.03125 L 3.546875 1.875 C 3.546875 1.75 3.585938 1.648438 3.671875 1.578125 C 3.753906 1.515625 3.859375 1.5 3.984375 1.53125 C 4.554688 1.601562 5.03125 1.640625 5.40625 1.640625 C 6.394531 1.640625 7.15625 1.421875 7.6875 0.984375 C 8.21875 0.554688 8.484375 -0.132812 8.484375 -1.09375 C 8.484375 -1.132812 8.46875 -1.160156 8.4375 -1.171875 C 8.40625 -1.179688 8.367188 -1.160156 8.328125 -1.109375 C 7.753906 -0.492188 6.90625 -0.1875 5.78125 -0.1875 C 4.769531 -0.1875 3.84375 -0.425781 3 -0.90625 C 2.15625 -1.394531 1.554688 -2.179688 1.203125 -3.265625 C 0.972656 -3.984375 0.859375 -4.90625 0.859375 -6.03125 C 0.859375 -7.238281 1 -8.21875 1.28125 -8.96875 C 1.601562 -9.914062 2.148438 -10.675781 2.921875 -11.25 C 3.691406 -11.820312 4.585938 -12.109375 5.609375 -12.109375 C 6.765625 -12.109375 7.671875 -11.757812 8.328125 -11.0625 C 8.367188 -11.007812 8.40625 -10.988281 8.4375 -11 C 8.46875 -11.019531 8.484375 -11.0625 8.484375 -11.125 Z M 8.296875 -4.15625 C 8.421875 -4.613281 8.484375 -5.242188 8.484375 -6.046875 C 8.484375 -6.523438 8.46875 -6.894531 8.4375 -7.15625 C 8.40625 -7.425781 8.351562 -7.675781 8.28125 -7.90625 C 8.132812 -8.320312 7.898438 -8.65625 7.578125 -8.90625 C 7.253906 -9.164062 6.851562 -9.296875 6.375 -9.296875 C 5.914062 -9.296875 5.519531 -9.164062 5.1875 -8.90625 C 4.863281 -8.65625 4.625 -8.320312 4.46875 -7.90625 C 4.257812 -7.445312 4.15625 -6.820312 4.15625 -6.03125 C 4.15625 -5.164062 4.242188 -4.546875 4.421875 -4.171875 C 4.566406 -3.753906 4.8125 -3.414062 5.15625 -3.15625 C 5.507812 -2.90625 5.925781 -2.78125 6.40625 -2.78125 C 6.894531 -2.78125 7.300781 -2.90625 7.625 -3.15625 C 7.945312 -3.414062 8.171875 -3.75 8.296875 -4.15625 Z M 8.296875 -4.15625 "/></g></g></g><g fill="#ffffff" fill-opacity="1"><g transform="translate(270.06718, 248.524375)"><g><path d="M 3.015625 -13.046875 C 2.429688 -13.046875 1.953125 -13.226562 1.578125 -13.59375 C 1.203125 -13.957031 1.015625 -14.425781 1.015625 -15 C 1.015625 -15.570312 1.203125 -16.039062 1.578125 -16.40625 C 1.953125 -16.769531 2.429688 -16.953125 3.015625 -16.953125 C 3.617188 -16.953125 4.101562 -16.773438 4.46875 -16.421875 C 4.832031 -16.066406 5.015625 -15.59375 5.015625 -15 C 5.015625 -14.414062 4.832031 -13.941406 4.46875 -13.578125 C 4.101562 -13.222656 3.617188 -13.046875 3.015625 -13.046875 Z M 1.78125 0 C 1.519531 0 1.390625 -0.128906 1.390625 -0.390625 L 1.390625 -11.53125 C 1.390625 -11.789062 1.519531 -11.921875 1.78125 -11.921875 L 4.265625 -11.921875 C 4.523438 -11.921875 4.65625 -11.789062 4.65625 -11.53125 L 4.65625 -0.390625 C 4.65625 -0.128906 4.523438 0 4.265625 0 Z M 1.78125 0 "/></g></g></g><g fill="#ffffff" fill-opacity="1"><g transform="translate(278.413972, 248.524375)"><g><path d="M 8.046875 -9.6875 C 8.046875 -9.425781 7.914062 -9.296875 7.65625 -9.296875 L 5.5625 -9.296875 C 5.46875 -9.296875 5.421875 -9.25 5.421875 -9.15625 L 5.421875 -4.359375 C 5.421875 -3.847656 5.523438 -3.472656 5.734375 -3.234375 C 5.941406 -2.992188 6.28125 -2.875 6.75 -2.875 L 7.390625 -2.875 C 7.660156 -2.875 7.796875 -2.742188 7.796875 -2.484375 L 7.796875 -0.484375 C 7.796875 -0.234375 7.660156 -0.09375 7.390625 -0.0625 C 6.804688 -0.03125 6.382812 -0.015625 6.125 -0.015625 C 4.84375 -0.015625 3.882812 -0.234375 3.25 -0.671875 C 2.613281 -1.109375 2.285156 -1.910156 2.265625 -3.078125 L 2.265625 -9.15625 C 2.265625 -9.25 2.222656 -9.296875 2.140625 -9.296875 L 0.953125 -9.296875 C 0.691406 -9.296875 0.5625 -9.425781 0.5625 -9.6875 L 0.5625 -11.53125 C 0.5625 -11.789062 0.691406 -11.921875 0.953125 -11.921875 L 2.140625 -11.921875 C 2.222656 -11.921875 2.265625 -11.96875 2.265625 -12.0625 L 2.265625 -14.671875 C 2.265625 -14.941406 2.398438 -15.078125 2.671875 -15.078125 L 5.03125 -15.078125 C 5.289062 -15.078125 5.421875 -14.941406 5.421875 -14.671875 L 5.421875 -12.0625 C 5.421875 -11.96875 5.46875 -11.921875 5.5625 -11.921875 L 7.65625 -11.921875 C 7.914062 -11.921875 8.046875 -11.789062 8.046875 -11.53125 Z M 8.046875 -9.6875 "/></g></g></g><g fill="#ffffff" fill-opacity="1"><g transform="translate(289.542556, 248.524375)"><g><path d="M 5.984375 -12.109375 C 6.984375 -12.109375 7.878906 -11.929688 8.671875 -11.578125 C 9.460938 -11.234375 10.078125 -10.757812 10.515625 -10.15625 C 10.953125 -9.550781 11.171875 -8.878906 11.171875 -8.140625 L 11.171875 -0.390625 C 11.171875 -0.128906 11.039062 0 10.78125 0 L 8.296875 0 C 8.035156 0 7.90625 -0.128906 7.90625 -0.390625 L 7.90625 -0.953125 C 7.90625 -1.015625 7.890625 -1.046875 7.859375 -1.046875 C 7.828125 -1.054688 7.789062 -1.039062 7.75 -1 C 7.03125 -0.207031 5.96875 0.1875 4.5625 0.1875 C 3.375 0.1875 2.414062 -0.101562 1.6875 -0.6875 C 0.96875 -1.28125 0.609375 -2.148438 0.609375 -3.296875 C 0.609375 -4.484375 1.023438 -5.40625 1.859375 -6.0625 C 2.691406 -6.71875 3.878906 -7.046875 5.421875 -7.046875 L 7.765625 -7.046875 C 7.859375 -7.046875 7.90625 -7.09375 7.90625 -7.1875 L 7.90625 -7.671875 C 7.90625 -8.179688 7.742188 -8.578125 7.421875 -8.859375 C 7.109375 -9.148438 6.648438 -9.296875 6.046875 -9.296875 C 5.585938 -9.296875 5.207031 -9.21875 4.90625 -9.0625 C 4.601562 -8.90625 4.398438 -8.691406 4.296875 -8.421875 C 4.203125 -8.203125 4.046875 -8.097656 3.828125 -8.109375 L 1.25 -8.4375 C 1.125 -8.457031 1.023438 -8.492188 0.953125 -8.546875 C 0.890625 -8.597656 0.863281 -8.671875 0.875 -8.765625 C 0.957031 -9.398438 1.222656 -9.972656 1.671875 -10.484375 C 2.128906 -10.992188 2.734375 -11.390625 3.484375 -11.671875 C 4.234375 -11.960938 5.066406 -12.109375 5.984375 -12.109375 Z M 5.515625 -2.25 C 6.179688 -2.25 6.742188 -2.425781 7.203125 -2.78125 C 7.671875 -3.132812 7.90625 -3.59375 7.90625 -4.15625 L 7.90625 -4.96875 C 7.90625 -5.050781 7.859375 -5.09375 7.765625 -5.09375 L 6.125 -5.09375 C 5.425781 -5.09375 4.875 -4.960938 4.46875 -4.703125 C 4.070312 -4.441406 3.875 -4.070312 3.875 -3.59375 C 3.875 -3.175781 4.023438 -2.847656 4.328125 -2.609375 C 4.628906 -2.367188 5.023438 -2.25 5.515625 -2.25 Z M 5.515625 -2.25 "/></g></g></g><g fill="#ffffff" fill-opacity="1"><g transform="translate(304.102031, 248.524375)"><g><path d="M 1.640625 0 C 1.378906 0 1.25 -0.128906 1.25 -0.390625 L 1.25 -15.84375 C 1.25 -16.101562 1.378906 -16.234375 1.640625 -16.234375 L 4.125 -16.234375 C 4.382812 -16.234375 4.515625 -16.101562 4.515625 -15.84375 L 4.515625 -0.390625 C 4.515625 -0.128906 4.382812 0 4.125 0 Z M 1.640625 0 "/></g></g></g><g mask="url(#35a0ce26cb)"><g transform="matrix(1, 0, 0, 1, 300, 120)"><g clip-path="url(#29c8bd30bd)"><g clip-path="url(#920fc49d29)"><g clip-path="url(#6638eb333b)"><g clip-path="url(#b405652cd5)"><g clip-path="url(#1fc2aaf711)"><path fill="#000000" d="M 12.601562 44.734375 L 11.605469 47.648438 L 44.503906 71.230469 L 46.945312 69.347656 Z M 30.457031 35.757812 C 34.230469 36.953125 39.734375 34.964844 46.824219 29.859375 C 48.871094 28.386719 50.742188 26.871094 52.261719 25.574219 C 51.445312 27.511719 50.519531 29.886719 49.714844 32.410156 C 46.976562 40.949219 47.011719 46.761719 49.808594 49.679688 C 54.136719 54.195312 62.925781 53.691406 68.332031 52.847656 L 48.960938 67.789062 L 13.433594 42.320312 L 21.28125 19.417969 C 22.144531 25.085938 24.4375 33.855469 30.457031 35.757812 Z M 56.375 19.996094 C 56.652344 20.195312 56.878906 20.4375 57.058594 20.730469 C 57.238281 21.019531 57.355469 21.332031 57.410156 21.667969 C 57.464844 22.003906 57.453125 22.339844 57.375 22.671875 C 57.296875 23.003906 57.160156 23.308594 56.960938 23.589844 C 56.761719 23.867188 56.515625 24.09375 56.226562 24.277344 C 55.9375 24.457031 55.621094 24.578125 55.285156 24.632812 C 54.949219 24.6875 54.617188 24.679688 54.285156 24.601562 C 53.953125 24.523438 53.648438 24.386719 53.371094 24.1875 C 53.09375 23.992188 52.867188 23.746094 52.6875 23.457031 C 52.507812 23.167969 52.390625 22.855469 52.335938 22.519531 C 52.28125 22.179688 52.292969 21.847656 52.371094 21.515625 C 52.449219 21.179688 52.585938 20.875 52.785156 20.597656 C 52.984375 20.320312 53.230469 20.089844 53.519531 19.910156 C 53.808594 19.730469 54.121094 19.609375 54.460938 19.554688 C 54.796875 19.5 55.128906 19.507812 55.460938 19.585938 C 55.792969 19.660156 56.097656 19.800781 56.375 19.996094 Z M 73.773438 49.65625 C 74.050781 49.855469 74.277344 50.097656 74.457031 50.390625 C 74.636719 50.679688 74.753906 50.992188 74.808594 51.328125 C 74.863281 51.664062 74.851562 52 74.773438 52.332031 C 74.695312 52.664062 74.558594 52.96875 74.359375 53.25 C 74.160156 53.527344 73.914062 53.753906 73.625 53.9375 C 73.335938 54.117188 73.019531 54.234375 72.683594 54.292969 C 72.347656 54.347656 72.015625 54.339844 71.683594 54.261719 C 71.351562 54.183594 71.046875 54.046875 70.769531 53.847656 C 70.492188 53.652344 70.265625 53.40625 70.085938 53.117188 C 69.90625 52.828125 69.789062 52.515625 69.734375 52.179688 C 69.679688 51.839844 69.691406 51.507812 69.769531 51.175781 C 69.847656 50.839844 69.984375 50.535156 70.183594 50.257812 C 70.382812 49.980469 70.628906 49.75 70.917969 49.570312 C 71.210938 49.390625 71.523438 49.269531 71.859375 49.214844 C 72.195312 49.160156 72.53125 49.167969 72.863281 49.246094 C 73.195312 49.324219 73.5 49.460938 73.777344 49.660156 Z M 23.15625 13.839844 C 23.433594 14.039062 23.664062 14.285156 23.84375 14.574219 C 24.023438 14.863281 24.140625 15.175781 24.195312 15.511719 C 24.25 15.847656 24.238281 16.183594 24.160156 16.515625 C 24.082031 16.847656 23.945312 17.15625 23.746094 17.433594 C 23.546875 17.710938 23.304688 17.941406 23.011719 18.121094 C 22.722656 18.304688 22.410156 18.421875 22.074219 18.480469 C 21.738281 18.535156 21.402344 18.527344 21.070312 18.449219 C 20.738281 18.371094 20.433594 18.234375 20.15625 18.039062 C 19.878906 17.839844 19.652344 17.59375 19.472656 17.304688 C 19.292969 17.015625 19.175781 16.703125 19.121094 16.367188 C 19.066406 16.03125 19.078125 15.695312 19.15625 15.363281 C 19.234375 15.027344 19.371094 14.722656 19.570312 14.445312 C 19.769531 14.167969 20.015625 13.9375 20.304688 13.757812 C 20.59375 13.578125 20.910156 13.457031 21.246094 13.402344 C 21.582031 13.34375 21.914062 13.355469 22.246094 13.433594 C 22.578125 13.507812 22.882812 13.644531 23.160156 13.84375 Z M 23.15625 13.839844 " fill-opacity="1" fill-rule="nonzero"/></g></g></g></g></g></g></g><g clip-path="url(#9135ba41b7)"><g clip-path="url(#09241bcecd)"><g clip-path="url(#3a641df219)"><path fill="#ffffff" d="M 310.636719 165.472656 L 309.664062 168.328125 L 342.058594 191.550781 L 344.453125 189.710938 Z M 328.15625 156.71875 C 331.867188 157.902344 337.269531 155.96875 344.222656 150.980469 C 346.230469 149.542969 348.066406 148.0625 349.554688 146.796875 C 348.757812 148.691406 347.855469 151.019531 347.070312 153.492188 C 344.40625 161.859375 344.453125 167.558594 347.210938 170.429688 C 351.476562 174.867188 360.109375 174.398438 365.425781 173.585938 L 346.429688 188.1875 L 311.445312 163.105469 L 319.09375 140.667969 C 319.957031 146.230469 322.234375 154.835938 328.15625 156.71875 Z M 353.582031 141.335938 C 353.851562 141.53125 354.078125 141.769531 354.253906 142.054688 C 354.433594 142.339844 354.546875 142.648438 354.601562 142.976562 C 354.65625 143.308594 354.648438 143.636719 354.570312 143.960938 C 354.496094 144.289062 354.359375 144.585938 354.164062 144.859375 C 353.96875 145.132812 353.730469 145.355469 353.445312 145.53125 C 353.160156 145.707031 352.855469 145.824219 352.523438 145.878906 C 352.191406 145.933594 351.863281 145.921875 351.539062 145.84375 C 351.210938 145.769531 350.914062 145.632812 350.640625 145.4375 C 350.367188 145.242188 350.144531 145.003906 349.964844 144.71875 C 349.789062 144.433594 349.671875 144.125 349.617188 143.796875 C 349.5625 143.464844 349.574219 143.136719 349.648438 142.8125 C 349.726562 142.484375 349.859375 142.1875 350.054688 141.914062 C 350.25 141.644531 350.488281 141.417969 350.773438 141.242188 C 351.058594 141.066406 351.367188 140.949219 351.695312 140.894531 C 352.027344 140.839844 352.355469 140.851562 352.683594 140.929688 C 353.007812 141.003906 353.308594 141.140625 353.582031 141.335938 Z M 370.761719 170.472656 C 371.035156 170.667969 371.257812 170.90625 371.433594 171.191406 C 371.613281 171.476562 371.726562 171.785156 371.78125 172.113281 C 371.835938 172.445312 371.828125 172.773438 371.75 173.101562 C 371.675781 173.425781 371.539062 173.726562 371.34375 173.996094 C 371.148438 174.269531 370.910156 174.492188 370.625 174.671875 C 370.34375 174.847656 370.035156 174.960938 369.703125 175.015625 C 369.375 175.070312 369.046875 175.058594 368.71875 174.984375 C 368.390625 174.90625 368.09375 174.773438 367.820312 174.578125 C 367.546875 174.382812 367.324219 174.140625 367.144531 173.855469 C 366.96875 173.574219 366.851562 173.265625 366.796875 172.933594 C 366.742188 172.605469 366.753906 172.277344 366.828125 171.949219 C 366.90625 171.625 367.039062 171.324219 367.234375 171.050781 C 367.429688 170.78125 367.671875 170.554688 367.957031 170.378906 C 368.238281 170.203125 368.546875 170.085938 368.878906 170.035156 C 369.210938 169.980469 369.539062 169.992188 369.863281 170.066406 C 370.191406 170.144531 370.492188 170.28125 370.765625 170.476562 Z M 320.921875 135.203125 C 321.195312 135.398438 321.417969 135.640625 321.597656 135.921875 C 321.773438 136.207031 321.890625 136.515625 321.945312 136.847656 C 322 137.175781 321.992188 137.503906 321.917969 137.832031 C 321.839844 138.15625 321.707031 138.457031 321.511719 138.730469 C 321.316406 139 321.078125 139.226562 320.792969 139.402344 C 320.507812 139.578125 320.199219 139.695312 319.871094 139.75 C 319.539062 139.804688 319.210938 139.792969 318.882812 139.71875 C 318.558594 139.640625 318.257812 139.507812 317.984375 139.3125 C 317.710938 139.117188 317.488281 138.875 317.308594 138.59375 C 317.132812 138.308594 317.015625 138 316.960938 137.667969 C 316.90625 137.339844 316.917969 137.011719 316.992188 136.683594 C 317.070312 136.359375 317.203125 136.058594 317.398438 135.785156 C 317.59375 135.515625 317.835938 135.289062 318.117188 135.113281 C 318.402344 134.9375 318.710938 134.824219 319.042969 134.769531 C 319.371094 134.714844 319.699219 134.726562 320.027344 134.800781 C 320.351562 134.875 320.652344 135.011719 320.925781 135.207031 Z M 320.921875 135.203125 " fill-opacity="1" fill-rule="nonzero"/></g></g></g></svg>