<svg xmlns="http://www.w3.org/2000/svg" xmlns:xlink="http://www.w3.org/1999/xlink" width="1366" zoomAndPan="magnify" viewBox="0 0 1024.5 576" height="768" preserveAspectRatio="xMidYMid meet" version="1.0"><defs><filter x="0%" y="0%" width="100%" height="100%" id="cd334256f2"><feColorMatrix values="0 0 0 0 1 0 0 0 0 1 0 0 0 0 1 0 0 0 1 0" color-interpolation-filters="sRGB"/></filter><g/><mask id="63139ecec4"><g filter="url(#cd334256f2)"><rect x="-102.45" width="1229.4" fill="#000000" y="-57.6" height="691.2" fill-opacity="0.3294"/></g></mask><clipPath id="c22a1859da"><path d="M 28 34 L 201 34 L 201 192 L 28 192 Z M 28 34 " clip-rule="nonzero"/></clipPath><clipPath id="2350920196"><path d="M 77.042969 0.253906 L 225.164062 106.441406 L 148.691406 213.109375 L 0.574219 106.925781 Z M 77.042969 0.253906 " clip-rule="nonzero"/></clipPath><clipPath id="c61a76d522"><path d="M 225.03125 106.34375 L 76.910156 0.15625 L 0.4375 106.828125 L 148.558594 213.015625 Z M 225.03125 106.34375 " clip-rule="nonzero"/></clipPath><clipPath id="863f840351"><path d="M 225.03125 106.34375 L 76.910156 0.15625 L 0.4375 106.828125 L 148.558594 213.015625 Z M 225.03125 106.34375 " clip-rule="nonzero"/></clipPath><clipPath id="7a71520ec7"><rect x="0" width="206" y="0" height="214"/></clipPath><clipPath id="85d4b785f7"><path d="M 843 146 L 1011 146 L 1011 299 L 843 299 Z M 843 146 " clip-rule="nonzero"/></clipPath><clipPath id="0c200d376a"><path d="M 890.246094 112.835938 L 1034.101562 215.960938 L 959.8125 319.585938 L 815.960938 216.457031 Z M 890.246094 112.835938 " clip-rule="nonzero"/></clipPath><clipPath id="88a1228679"><path d="M 1034.347656 216.140625 L 890.496094 113.011719 L 816.207031 216.636719 L 960.0625 319.761719 Z M 1034.347656 216.140625 " clip-rule="nonzero"/></clipPath></defs><g fill="#ffffff" fill-opacity="1"><g transform="translate(138.05664, 379.901584)"><g><path d="M 8.4375 -11.3125 C 14.882812 -11.3125 19.097656 -11.945312 21.078125 -13.21875 C 23.066406 -14.488281 24.335938 -15.84375 24.890625 -17.28125 C 25.441406 -18.71875 25.71875 -20.46875 25.71875 -22.53125 L 25.71875 -131.75 C 25.71875 -136.207031 24.960938 -138.984375 23.453125 -140.078125 C 20.710938 -142.003906 15.707031 -142.96875 8.4375 -142.96875 L 8.4375 -154.28125 L 56.984375 -154.28125 L 102.546875 -35.28125 L 146.25 -154.28125 L 194.28125 -154.28125 L 194.28125 -142.96875 C 187.769531 -142.96875 183.519531 -142.332031 181.53125 -141.0625 C 179.539062 -139.789062 178.269531 -138.4375 177.71875 -137 C 177.175781 -135.5625 176.90625 -133.8125 176.90625 -131.75 L 176.90625 -22.53125 C 176.90625 -18.132812 177.691406 -15.351562 179.265625 -14.1875 C 182.015625 -12.269531 187.019531 -11.3125 194.28125 -11.3125 L 194.28125 0 L 137.203125 0 L 137.203125 -11.3125 C 143.648438 -11.3125 147.816406 -11.945312 149.703125 -13.21875 C 151.585938 -14.488281 152.769531 -15.84375 153.25 -17.28125 C 153.726562 -18.71875 153.96875 -20.46875 153.96875 -22.53125 L 153.96875 -132.265625 L 106.25 0 L 94.828125 0 L 42.171875 -132.375 L 42.171875 -22.53125 C 42.171875 -18.070312 42.925781 -15.289062 44.4375 -14.1875 C 47.175781 -12.269531 52.179688 -11.3125 59.453125 -11.3125 L 59.453125 0 L 8.4375 0 Z M 8.4375 -11.3125 "/></g></g></g><g fill="#ffffff" fill-opacity="1"><g transform="translate(336.444921, 379.901584)"><g><path d="M 10.90625 0 Z M 106.859375 -47.421875 L 35.484375 -47.421875 C 35.484375 -35.617188 38.273438 -26.492188 43.859375 -20.046875 C 49.453125 -13.609375 56.363281 -10.390625 64.59375 -10.390625 C 75.625 -10.390625 83.539062 -14.945312 88.34375 -24.0625 L 103.671875 -24.171875 C 102.085938 -16.835938 97.578125 -10.628906 90.140625 -5.546875 C 82.703125 -0.472656 72.675781 2.0625 60.0625 2.0625 C 47.445312 2.0625 36.546875 -1.847656 27.359375 -9.671875 C 16.378906 -19.066406 10.890625 -32.300781 10.890625 -49.375 C 10.890625 -66.445312 15.257812 -80.207031 24 -90.65625 C 32.75 -101.113281 45.285156 -106.34375 61.609375 -106.34375 C 83.066406 -106.34375 96.953125 -97.707031 103.265625 -80.4375 C 105.796875 -73.507812 107.0625 -66.957031 107.0625 -60.78125 C 107.0625 -54.613281 106.992188 -50.160156 106.859375 -47.421875 Z M 83.09375 -62.84375 C 83.09375 -83.820312 75.960938 -94.3125 61.703125 -94.3125 C 53.679688 -94.3125 47.425781 -91.191406 42.9375 -84.953125 C 38.445312 -78.710938 35.992188 -70.070312 35.578125 -59.03125 L 83 -59.03125 C 83.0625 -60.332031 83.09375 -61.601562 83.09375 -62.84375 Z M 67.984375 -129.078125 C 65.453125 -124.898438 62.40625 -122.8125 58.84375 -122.8125 C 57.195312 -122.8125 55.910156 -123.34375 54.984375 -124.40625 C 54.054688 -125.46875 53.59375 -126.492188 53.59375 -127.484375 C 53.59375 -128.472656 53.695312 -129.347656 53.90625 -130.109375 L 59.046875 -154.375 C 60.554688 -161.4375 61.992188 -166.03125 63.359375 -168.15625 C 65.898438 -171.925781 69.191406 -173.8125 73.234375 -173.8125 C 81.460938 -173.8125 85.578125 -170.488281 85.578125 -163.84375 C 85.578125 -160.207031 84.171875 -156.023438 81.359375 -151.296875 Z M 67.984375 -129.078125 "/></g></g></g><g fill="#ffffff" fill-opacity="1"><g transform="translate(448.136168, 379.901584)"><g><path d="M 51.328125 2.0625 C 29.722656 2.0625 18.921875 -9.9375 18.921875 -33.9375 L 18.921875 -85.359375 C 18.921875 -88.035156 18.59375 -89.800781 17.9375 -90.65625 C 17.289062 -91.519531 15.90625 -91.953125 13.78125 -91.953125 L 5.34375 -91.953125 L 5.34375 -104.296875 L 9.15625 -104.296875 C 14.363281 -104.296875 18.179688 -105.941406 20.609375 -109.234375 C 23.046875 -112.523438 24.367188 -117.941406 24.578125 -125.484375 L 24.6875 -134.640625 L 41.140625 -134.640625 L 41.140625 -104.296875 L 72.71875 -104.296875 L 72.71875 -91.953125 L 41.140625 -91.953125 L 41.140625 -34.25 C 41.140625 -21.5 44.085938 -13.890625 49.984375 -11.421875 C 51.628906 -10.734375 53.273438 -10.390625 54.921875 -10.390625 C 62.117188 -10.390625 66.816406 -16.320312 69.015625 -28.1875 L 80.9375 -28.1875 C 80.257812 -14.125 74.398438 -4.796875 63.359375 -0.203125 C 59.796875 1.304688 55.785156 2.0625 51.328125 2.0625 Z M 51.328125 2.0625 "/></g></g></g><g fill="#ffffff" fill-opacity="1"><g transform="translate(530.002796, 379.901584)"><g><path d="M 9.25 -52.65625 C 9.25 -60.882812 10.535156 -68.476562 13.109375 -75.4375 C 15.679688 -82.394531 19.265625 -88.171875 23.859375 -92.765625 C 32.910156 -101.816406 44.945312 -106.34375 59.96875 -106.34375 C 75.113281 -106.34375 87.332031 -101.800781 96.625 -92.71875 C 105.914062 -83.632812 110.5625 -70.742188 110.5625 -54.046875 C 110.5625 -37.347656 106.273438 -23.820312 97.703125 -13.46875 C 89.140625 -3.113281 76.5625 2.0625 59.96875 2.0625 C 43.375 2.0625 30.769531 -2.957031 22.15625 -13 C 13.550781 -23.050781 9.25 -36.269531 9.25 -52.65625 Z M 59.96875 -10.28125 C 67.914062 -10.28125 74.375 -13.914062 79.34375 -21.1875 C 84.320312 -28.457031 86.8125 -38.675781 86.8125 -51.84375 C 86.8125 -73.03125 81.460938 -86.257812 70.765625 -91.53125 C 67.472656 -93.175781 63.875 -94 59.96875 -94 C 47.28125 -94 39.015625 -86.320312 35.171875 -70.96875 C 33.804688 -65.6875 33.125 -59.515625 33.125 -52.453125 C 33.125 -38.878906 35.609375 -28.457031 40.578125 -21.1875 C 45.546875 -13.914062 52.007812 -10.28125 59.96875 -10.28125 Z M 59.96875 -10.28125 "/></g></g></g><g fill="#ffffff" fill-opacity="1"><g transform="translate(645.602078, 379.901584)"><g><path d="M 88.140625 -16.25 C 79.984375 -4.039062 68.875 2.0625 54.8125 2.0625 C 40.757812 2.0625 29.601562 -2.566406 21.34375 -11.828125 C 13.082031 -21.085938 8.953125 -33.53125 8.953125 -49.15625 C 8.953125 -68.363281 13.1875 -82.695312 21.65625 -92.15625 C 30.125 -101.613281 41.726562 -106.34375 56.46875 -106.34375 C 67.644531 -106.34375 77.207031 -102.503906 85.15625 -94.828125 L 85.15625 -132.78125 C 85.15625 -137.644531 84.65625 -140.847656 83.65625 -142.390625 C 82.664062 -143.941406 80.253906 -144.71875 76.421875 -144.71875 L 69.109375 -144.71875 L 69.109375 -156.03125 C 75.898438 -156.03125 81.210938 -156.523438 85.046875 -157.515625 C 88.890625 -158.515625 91.632812 -159.234375 93.28125 -159.671875 C 94.925781 -160.117188 96.675781 -160.34375 98.53125 -160.34375 C 102.164062 -160.34375 104.546875 -159.296875 105.671875 -157.203125 C 106.804688 -155.117188 107.375 -151.78125 107.375 -147.1875 L 107.375 -27.359375 C 107.375 -20.703125 107.648438 -16.585938 108.203125 -15.015625 C 109.367188 -11.992188 112.179688 -10.484375 116.640625 -10.484375 C 118.898438 -10.484375 120.851562 -10.863281 122.5 -11.625 L 122.5 -1.640625 C 119.207031 0.828125 114.75 2.0625 109.125 2.0625 C 97.882812 2.0625 90.890625 -4.039062 88.140625 -16.25 Z M 46.6875 -13.78125 C 49.976562 -11.445312 53.957031 -10.28125 58.625 -10.28125 C 67.675781 -10.28125 74.445312 -14.066406 78.9375 -21.640625 C 83.425781 -29.222656 85.671875 -39.703125 85.671875 -53.078125 C 85.671875 -72.960938 80.425781 -85.710938 69.9375 -91.328125 C 66.582031 -93.109375 62.878906 -94 58.828125 -94 C 50.734375 -94 44.390625 -90.28125 39.796875 -82.84375 C 35.203125 -75.40625 32.90625 -65.484375 32.90625 -53.078125 C 32.90625 -33.253906 37.5 -20.15625 46.6875 -13.78125 Z M 46.6875 -13.78125 "/></g></g></g><g fill="#ffffff" fill-opacity="1"><g transform="translate(766.652096, 379.901584)"><g><path d="M 9.25 -52.65625 C 9.25 -60.882812 10.535156 -68.476562 13.109375 -75.4375 C 15.679688 -82.394531 19.265625 -88.171875 23.859375 -92.765625 C 32.910156 -101.816406 44.945312 -106.34375 59.96875 -106.34375 C 75.113281 -106.34375 87.332031 -101.800781 96.625 -92.71875 C 105.914062 -83.632812 110.5625 -70.742188 110.5625 -54.046875 C 110.5625 -37.347656 106.273438 -23.820312 97.703125 -13.46875 C 89.140625 -3.113281 76.5625 2.0625 59.96875 2.0625 C 43.375 2.0625 30.769531 -2.957031 22.15625 -13 C 13.550781 -23.050781 9.25 -36.269531 9.25 -52.65625 Z M 59.96875 -10.28125 C 67.914062 -10.28125 74.375 -13.914062 79.34375 -21.1875 C 84.320312 -28.457031 86.8125 -38.675781 86.8125 -51.84375 C 86.8125 -73.03125 81.460938 -86.257812 70.765625 -91.53125 C 67.472656 -93.175781 63.875 -94 59.96875 -94 C 47.28125 -94 39.015625 -86.320312 35.171875 -70.96875 C 33.804688 -65.6875 33.125 -59.515625 33.125 -52.453125 C 33.125 -38.878906 35.609375 -28.457031 40.578125 -21.1875 C 45.546875 -13.914062 52.007812 -10.28125 59.96875 -10.28125 Z M 59.96875 -10.28125 "/></g></g></g><g fill="#fd546e" fill-opacity="1"><g transform="translate(305.208469, 438.752853)"><g><path d="M 11.671875 0.421875 C 9.710938 0.421875 7.984375 0.0195312 6.484375 -0.78125 C 4.992188 -1.59375 3.832031 -2.71875 3 -4.15625 C 2.175781 -5.601562 1.765625 -7.269531 1.765625 -9.15625 L 1.765625 -17.21875 C 1.765625 -19.070312 2.175781 -20.710938 3 -22.140625 C 3.832031 -23.578125 4.992188 -24.691406 6.484375 -25.484375 C 7.984375 -26.273438 9.710938 -26.671875 11.671875 -26.671875 C 13.660156 -26.671875 15.398438 -26.273438 16.890625 -25.484375 C 18.390625 -24.691406 19.550781 -23.578125 20.375 -22.140625 C 21.207031 -20.710938 21.625 -19.070312 21.625 -17.21875 L 21.625 -9.15625 C 21.625 -7.269531 21.207031 -5.597656 20.375 -4.140625 C 19.550781 -2.679688 18.390625 -1.554688 16.890625 -0.765625 C 15.398438 0.0234375 13.660156 0.421875 11.671875 0.421875 Z M 11.671875 -4.140625 C 13.054688 -4.140625 14.175781 -4.578125 15.03125 -5.453125 C 15.882812 -6.335938 16.3125 -7.507812 16.3125 -8.96875 L 16.3125 -17.25 C 16.3125 -18.707031 15.890625 -19.878906 15.046875 -20.765625 C 14.203125 -21.660156 13.078125 -22.109375 11.671875 -22.109375 C 10.296875 -22.109375 9.1875 -21.660156 8.34375 -20.765625 C 7.5 -19.878906 7.078125 -18.707031 7.078125 -17.25 L 7.078125 -8.96875 C 7.078125 -7.507812 7.5 -6.335938 8.34375 -5.453125 C 9.1875 -4.578125 10.296875 -4.140625 11.671875 -4.140625 Z M 11.671875 -4.140625 "/></g></g></g><g fill="#fd546e" fill-opacity="1"><g transform="translate(332.36939, 438.752853)"><g><path d="M 19.28125 -14.125 C 19.707031 -12.914062 19.921875 -11.410156 19.921875 -9.609375 C 19.921875 -7.742188 19.6875 -6.1875 19.21875 -4.9375 C 18.664062 -3.332031 17.753906 -2.050781 16.484375 -1.09375 C 15.210938 -0.132812 13.722656 0.34375 12.015625 0.34375 C 10.160156 0.34375 8.726562 -0.269531 7.71875 -1.5 C 7.664062 -1.582031 7.609375 -1.609375 7.546875 -1.578125 C 7.484375 -1.554688 7.453125 -1.492188 7.453125 -1.390625 L 7.453125 6.359375 C 7.453125 6.785156 7.238281 7 6.8125 7 L 2.78125 7 C 2.351562 7 2.140625 6.785156 2.140625 6.359375 L 2.140625 -18.71875 C 2.140625 -19.144531 2.351562 -19.359375 2.78125 -19.359375 L 6.8125 -19.359375 C 7.238281 -19.359375 7.453125 -19.144531 7.453125 -18.71875 L 7.453125 -17.703125 C 7.453125 -17.609375 7.484375 -17.550781 7.546875 -17.53125 C 7.609375 -17.519531 7.664062 -17.550781 7.71875 -17.625 C 8.75 -18.988281 10.179688 -19.671875 12.015625 -19.671875 C 13.722656 -19.671875 15.234375 -19.160156 16.546875 -18.140625 C 17.867188 -17.117188 18.78125 -15.78125 19.28125 -14.125 Z M 13.453125 -5.765625 C 14.054688 -6.765625 14.359375 -8.082031 14.359375 -9.71875 C 14.359375 -11.195312 14.09375 -12.425781 13.5625 -13.40625 C 12.957031 -14.488281 12.039062 -15.03125 10.8125 -15.03125 C 9.707031 -15.03125 8.851562 -14.488281 8.25 -13.40625 C 7.75 -12.476562 7.5 -11.238281 7.5 -9.6875 C 7.5 -8.050781 7.757812 -6.753906 8.28125 -5.796875 C 8.914062 -4.816406 9.757812 -4.328125 10.8125 -4.328125 C 11.96875 -4.328125 12.847656 -4.804688 13.453125 -5.765625 Z M 13.453125 -5.765625 "/></g></g></g><g fill="#fd546e" fill-opacity="1"><g transform="translate(357.194765, 438.752853)"><g><path d="M 10.546875 0.296875 C 8.410156 0.296875 6.585938 -0.253906 5.078125 -1.359375 C 3.578125 -2.460938 2.550781 -3.96875 2 -5.875 C 1.644531 -7.050781 1.46875 -8.332031 1.46875 -9.71875 C 1.46875 -11.25 1.65625 -12.582031 2.03125 -13.71875 C 2.613281 -15.570312 3.648438 -17.023438 5.140625 -18.078125 C 6.640625 -19.140625 8.453125 -19.671875 10.578125 -19.671875 C 12.640625 -19.671875 14.40625 -19.140625 15.875 -18.078125 C 17.34375 -17.023438 18.367188 -15.582031 18.953125 -13.75 C 19.328125 -12.59375 19.515625 -11.273438 19.515625 -9.796875 C 19.515625 -8.484375 19.351562 -7.210938 19.03125 -5.984375 C 18.445312 -4.023438 17.40625 -2.488281 15.90625 -1.375 C 14.414062 -0.257812 12.628906 0.296875 10.546875 0.296875 Z M 10.546875 -4.25 C 11.347656 -4.25 12.035156 -4.5 12.609375 -5 C 13.191406 -5.507812 13.609375 -6.203125 13.859375 -7.078125 C 14.066406 -7.753906 14.171875 -8.632812 14.171875 -9.71875 C 14.171875 -10.769531 14.066406 -11.660156 13.859375 -12.390625 C 13.609375 -13.242188 13.191406 -13.910156 12.609375 -14.390625 C 12.035156 -14.867188 11.320312 -15.109375 10.46875 -15.109375 C 9.644531 -15.109375 8.941406 -14.867188 8.359375 -14.390625 C 7.785156 -13.910156 7.375 -13.242188 7.125 -12.390625 C 6.914062 -11.660156 6.8125 -10.769531 6.8125 -9.71875 C 6.8125 -8.6875 6.914062 -7.804688 7.125 -7.078125 C 7.375 -6.203125 7.789062 -5.507812 8.375 -5 C 8.96875 -4.5 9.691406 -4.25 10.546875 -4.25 Z M 10.546875 -4.25 "/></g></g></g><g fill="#fd546e" fill-opacity="1"><g transform="translate(381.944795, 438.752853)"><g><path d="M 11.609375 -19.625 C 12.410156 -19.625 13.070312 -19.472656 13.59375 -19.171875 C 13.894531 -19.023438 14.007812 -18.765625 13.9375 -18.390625 L 13.21875 -14.421875 C 13.195312 -14.203125 13.128906 -14.066406 13.015625 -14.015625 C 12.898438 -13.960938 12.71875 -13.960938 12.46875 -14.015625 C 12.0625 -14.117188 11.695312 -14.171875 11.375 -14.171875 C 11.195312 -14.171875 10.910156 -14.144531 10.515625 -14.09375 C 9.609375 -14.007812 8.835938 -13.671875 8.203125 -13.078125 C 7.578125 -12.492188 7.265625 -11.710938 7.265625 -10.734375 L 7.265625 -0.640625 C 7.265625 -0.210938 7.050781 0 6.625 0 L 2.59375 0 C 2.164062 0 1.953125 -0.210938 1.953125 -0.640625 L 1.953125 -18.71875 C 1.953125 -19.144531 2.164062 -19.359375 2.59375 -19.359375 L 6.625 -19.359375 C 7.050781 -19.359375 7.265625 -19.144531 7.265625 -18.71875 L 7.265625 -17.5625 C 7.265625 -17.457031 7.289062 -17.390625 7.34375 -17.359375 C 7.394531 -17.335938 7.457031 -17.363281 7.53125 -17.4375 C 8.539062 -18.894531 9.898438 -19.625 11.609375 -19.625 Z M 11.609375 -19.625 "/></g></g></g><g fill="#fd546e" fill-opacity="1"><g transform="translate(400.140231, 438.752853)"><g><path d="M 13.078125 -15.75 C 13.078125 -15.320312 12.863281 -15.109375 12.4375 -15.109375 L 9.046875 -15.109375 C 8.890625 -15.109375 8.8125 -15.03125 8.8125 -14.875 L 8.8125 -7.078125 C 8.8125 -6.253906 8.976562 -5.644531 9.3125 -5.25 C 9.65625 -4.863281 10.207031 -4.671875 10.96875 -4.671875 L 12.015625 -4.671875 C 12.441406 -4.671875 12.65625 -4.457031 12.65625 -4.03125 L 12.65625 -0.796875 C 12.65625 -0.390625 12.441406 -0.160156 12.015625 -0.109375 C 11.054688 -0.0546875 10.367188 -0.03125 9.953125 -0.03125 C 7.859375 -0.03125 6.296875 -0.378906 5.265625 -1.078125 C 4.242188 -1.785156 3.71875 -3.097656 3.6875 -5.015625 L 3.6875 -14.875 C 3.6875 -15.03125 3.613281 -15.109375 3.46875 -15.109375 L 1.546875 -15.109375 C 1.117188 -15.109375 0.90625 -15.320312 0.90625 -15.75 L 0.90625 -18.71875 C 0.90625 -19.144531 1.117188 -19.359375 1.546875 -19.359375 L 3.46875 -19.359375 C 3.613281 -19.359375 3.6875 -19.4375 3.6875 -19.59375 L 3.6875 -23.84375 C 3.6875 -24.269531 3.898438 -24.484375 4.328125 -24.484375 L 8.171875 -24.484375 C 8.597656 -24.484375 8.8125 -24.269531 8.8125 -23.84375 L 8.8125 -19.59375 C 8.8125 -19.4375 8.890625 -19.359375 9.046875 -19.359375 L 12.4375 -19.359375 C 12.863281 -19.359375 13.078125 -19.144531 13.078125 -18.71875 Z M 13.078125 -15.75 "/></g></g></g><g fill="#fd546e" fill-opacity="1"><g transform="translate(418.222653, 438.752853)"><g><path d="M 13.265625 -18.71875 C 13.265625 -19.144531 13.476562 -19.359375 13.90625 -19.359375 L 17.9375 -19.359375 C 18.363281 -19.359375 18.578125 -19.144531 18.578125 -18.71875 L 18.578125 -0.640625 C 18.578125 -0.210938 18.363281 0 17.9375 0 L 13.90625 0 C 13.476562 0 13.265625 -0.210938 13.265625 -0.640625 L 13.265625 -1.65625 C 13.265625 -1.757812 13.234375 -1.816406 13.171875 -1.828125 C 13.109375 -1.835938 13.050781 -1.804688 13 -1.734375 C 12.019531 -0.398438 10.472656 0.265625 8.359375 0.265625 C 6.453125 0.265625 4.882812 -0.3125 3.65625 -1.46875 C 2.425781 -2.625 1.8125 -4.242188 1.8125 -6.328125 L 1.8125 -18.71875 C 1.8125 -19.144531 2.023438 -19.359375 2.453125 -19.359375 L 6.4375 -19.359375 C 6.863281 -19.359375 7.078125 -19.144531 7.078125 -18.71875 L 7.078125 -7.640625 C 7.078125 -6.640625 7.347656 -5.820312 7.890625 -5.1875 C 8.429688 -4.5625 9.179688 -4.25 10.140625 -4.25 C 10.992188 -4.25 11.695312 -4.503906 12.25 -5.015625 C 12.800781 -5.535156 13.140625 -6.210938 13.265625 -7.046875 Z M 13.265625 -18.71875 "/></g></g></g><g fill="#fd546e" fill-opacity="1"><g transform="translate(442.520645, 438.752853)"><g><path d="M 12.0625 -19.671875 C 14.0625 -19.671875 15.675781 -19.050781 16.90625 -17.8125 C 18.144531 -16.582031 18.765625 -14.914062 18.765625 -12.8125 L 18.765625 -0.640625 C 18.765625 -0.210938 18.550781 0 18.125 0 L 14.09375 0 C 13.664062 0 13.453125 -0.210938 13.453125 -0.640625 L 13.453125 -11.71875 C 13.453125 -12.71875 13.175781 -13.53125 12.625 -14.15625 C 12.070312 -14.789062 11.328125 -15.109375 10.390625 -15.109375 C 9.460938 -15.109375 8.707031 -14.789062 8.125 -14.15625 C 7.550781 -13.53125 7.265625 -12.71875 7.265625 -11.71875 L 7.265625 -0.640625 C 7.265625 -0.210938 7.050781 0 6.625 0 L 2.59375 0 C 2.164062 0 1.953125 -0.210938 1.953125 -0.640625 L 1.953125 -18.71875 C 1.953125 -19.144531 2.164062 -19.359375 2.59375 -19.359375 L 6.625 -19.359375 C 7.050781 -19.359375 7.265625 -19.144531 7.265625 -18.71875 L 7.265625 -17.671875 C 7.265625 -17.566406 7.289062 -17.5 7.34375 -17.46875 C 7.394531 -17.445312 7.445312 -17.476562 7.5 -17.5625 C 8.53125 -18.96875 10.050781 -19.671875 12.0625 -19.671875 Z M 12.0625 -19.671875 "/></g></g></g><g fill="#fd546e" fill-opacity="1"><g transform="translate(466.893978, 438.752853)"><g><path d="M 4.890625 -21.203125 C 3.941406 -21.203125 3.164062 -21.5 2.5625 -22.09375 C 1.957031 -22.6875 1.65625 -23.445312 1.65625 -24.375 C 1.65625 -25.300781 1.957031 -26.054688 2.5625 -26.640625 C 3.164062 -27.234375 3.941406 -27.53125 4.890625 -27.53125 C 5.867188 -27.53125 6.65625 -27.242188 7.25 -26.671875 C 7.84375 -26.097656 8.140625 -25.332031 8.140625 -24.375 C 8.140625 -23.414062 7.84375 -22.644531 7.25 -22.0625 C 6.65625 -21.488281 5.867188 -21.203125 4.890625 -21.203125 Z M 2.90625 0 C 2.476562 0 2.265625 -0.210938 2.265625 -0.640625 L 2.265625 -18.71875 C 2.265625 -19.144531 2.476562 -19.359375 2.90625 -19.359375 L 6.9375 -19.359375 C 7.363281 -19.359375 7.578125 -19.144531 7.578125 -18.71875 L 7.578125 -0.640625 C 7.578125 -0.210938 7.363281 0 6.9375 0 Z M 2.90625 0 "/></g></g></g><g fill="#fd546e" fill-opacity="1"><g transform="translate(480.455986, 438.752853)"><g><path d="M 13.640625 -25.734375 C 13.640625 -26.160156 13.851562 -26.375 14.28125 -26.375 L 18.3125 -26.375 C 18.738281 -26.375 18.953125 -26.160156 18.953125 -25.734375 L 18.953125 -0.640625 C 18.953125 -0.210938 18.738281 0 18.3125 0 L 14.28125 0 C 13.851562 0 13.640625 -0.210938 13.640625 -0.640625 L 13.640625 -1.65625 C 13.640625 -1.757812 13.609375 -1.816406 13.546875 -1.828125 C 13.484375 -1.835938 13.425781 -1.804688 13.375 -1.734375 C 12.34375 -0.378906 10.910156 0.296875 9.078125 0.296875 C 7.367188 0.296875 5.851562 -0.207031 4.53125 -1.21875 C 3.21875 -2.238281 2.3125 -3.578125 1.8125 -5.234375 C 1.382812 -6.441406 1.171875 -7.945312 1.171875 -9.75 C 1.171875 -11.613281 1.410156 -13.171875 1.890625 -14.421875 C 2.441406 -16.035156 3.347656 -17.316406 4.609375 -18.265625 C 5.878906 -19.222656 7.367188 -19.703125 9.078125 -19.703125 C 10.929688 -19.703125 12.363281 -19.085938 13.375 -17.859375 C 13.425781 -17.785156 13.484375 -17.757812 13.546875 -17.78125 C 13.609375 -17.800781 13.640625 -17.863281 13.640625 -17.96875 Z M 12.84375 -5.953125 C 13.34375 -6.878906 13.59375 -8.125 13.59375 -9.6875 C 13.59375 -11.34375 13.332031 -12.632812 12.8125 -13.5625 C 12.175781 -14.539062 11.332031 -15.03125 10.28125 -15.03125 C 9.125 -15.03125 8.242188 -14.550781 7.640625 -13.59375 C 7.046875 -12.59375 6.75 -11.273438 6.75 -9.640625 C 6.75 -8.160156 7.007812 -6.929688 7.53125 -5.953125 C 8.132812 -4.867188 9.050781 -4.328125 10.28125 -4.328125 C 11.382812 -4.328125 12.238281 -4.867188 12.84375 -5.953125 Z M 12.84375 -5.953125 "/></g></g></g><g fill="#fd546e" fill-opacity="1"><g transform="translate(505.206011, 438.752853)"><g><path d="M 9.71875 -19.671875 C 11.351562 -19.671875 12.8125 -19.382812 14.09375 -18.8125 C 15.375 -18.25 16.367188 -17.476562 17.078125 -16.5 C 17.796875 -15.519531 18.15625 -14.425781 18.15625 -13.21875 L 18.15625 -0.640625 C 18.15625 -0.210938 17.941406 0 17.515625 0 L 13.484375 0 C 13.054688 0 12.84375 -0.210938 12.84375 -0.640625 L 12.84375 -1.546875 C 12.84375 -1.640625 12.816406 -1.691406 12.765625 -1.703125 C 12.722656 -1.722656 12.660156 -1.695312 12.578125 -1.625 C 11.421875 -0.34375 9.703125 0.296875 7.421875 0.296875 C 5.484375 0.296875 3.925781 -0.175781 2.75 -1.125 C 1.570312 -2.082031 0.984375 -3.488281 0.984375 -5.34375 C 0.984375 -7.28125 1.660156 -8.78125 3.015625 -9.84375 C 4.367188 -10.914062 6.300781 -11.453125 8.8125 -11.453125 L 12.625 -11.453125 C 12.769531 -11.453125 12.84375 -11.523438 12.84375 -11.671875 L 12.84375 -12.46875 C 12.84375 -13.300781 12.582031 -13.945312 12.0625 -14.40625 C 11.550781 -14.875 10.804688 -15.109375 9.828125 -15.109375 C 9.078125 -15.109375 8.457031 -14.984375 7.96875 -14.734375 C 7.476562 -14.484375 7.144531 -14.128906 6.96875 -13.671875 C 6.820312 -13.316406 6.570312 -13.15625 6.21875 -13.1875 L 2.03125 -13.71875 C 1.832031 -13.738281 1.675781 -13.789062 1.5625 -13.875 C 1.445312 -13.96875 1.40625 -14.085938 1.4375 -14.234375 C 1.5625 -15.265625 1.992188 -16.191406 2.734375 -17.015625 C 3.472656 -17.847656 4.453125 -18.5 5.671875 -18.96875 C 6.890625 -19.4375 8.238281 -19.671875 9.71875 -19.671875 Z M 8.96875 -3.65625 C 10.039062 -3.65625 10.953125 -3.941406 11.703125 -4.515625 C 12.460938 -5.097656 12.84375 -5.84375 12.84375 -6.75 L 12.84375 -8.0625 C 12.84375 -8.207031 12.769531 -8.28125 12.625 -8.28125 L 9.953125 -8.28125 C 8.816406 -8.28125 7.921875 -8.066406 7.265625 -7.640625 C 6.617188 -7.210938 6.296875 -6.613281 6.296875 -5.84375 C 6.296875 -5.164062 6.539062 -4.628906 7.03125 -4.234375 C 7.519531 -3.847656 8.164062 -3.65625 8.96875 -3.65625 Z M 8.96875 -3.65625 "/></g></g></g><g fill="#fd546e" fill-opacity="1"><g transform="translate(528.863611, 438.752853)"><g><path d="M 13.640625 -25.734375 C 13.640625 -26.160156 13.851562 -26.375 14.28125 -26.375 L 18.3125 -26.375 C 18.738281 -26.375 18.953125 -26.160156 18.953125 -25.734375 L 18.953125 -0.640625 C 18.953125 -0.210938 18.738281 0 18.3125 0 L 14.28125 0 C 13.851562 0 13.640625 -0.210938 13.640625 -0.640625 L 13.640625 -1.65625 C 13.640625 -1.757812 13.609375 -1.816406 13.546875 -1.828125 C 13.484375 -1.835938 13.425781 -1.804688 13.375 -1.734375 C 12.34375 -0.378906 10.910156 0.296875 9.078125 0.296875 C 7.367188 0.296875 5.851562 -0.207031 4.53125 -1.21875 C 3.21875 -2.238281 2.3125 -3.578125 1.8125 -5.234375 C 1.382812 -6.441406 1.171875 -7.945312 1.171875 -9.75 C 1.171875 -11.613281 1.410156 -13.171875 1.890625 -14.421875 C 2.441406 -16.035156 3.347656 -17.316406 4.609375 -18.265625 C 5.878906 -19.222656 7.367188 -19.703125 9.078125 -19.703125 C 10.929688 -19.703125 12.363281 -19.085938 13.375 -17.859375 C 13.425781 -17.785156 13.484375 -17.757812 13.546875 -17.78125 C 13.609375 -17.800781 13.640625 -17.863281 13.640625 -17.96875 Z M 12.84375 -5.953125 C 13.34375 -6.878906 13.59375 -8.125 13.59375 -9.6875 C 13.59375 -11.34375 13.332031 -12.632812 12.8125 -13.5625 C 12.175781 -14.539062 11.332031 -15.03125 10.28125 -15.03125 C 9.125 -15.03125 8.242188 -14.550781 7.640625 -13.59375 C 7.046875 -12.59375 6.75 -11.273438 6.75 -9.640625 C 6.75 -8.160156 7.007812 -6.929688 7.53125 -5.953125 C 8.132812 -4.867188 9.050781 -4.328125 10.28125 -4.328125 C 11.382812 -4.328125 12.238281 -4.867188 12.84375 -5.953125 Z M 12.84375 -5.953125 "/></g></g></g><g fill="#fd546e" fill-opacity="1"><g transform="translate(553.613637, 438.752853)"><g><path d="M 11.296875 -4.1875 C 12.953125 -4.257812 14.222656 -4.835938 15.109375 -5.921875 C 15.253906 -6.085938 15.414062 -6.171875 15.59375 -6.171875 C 15.75 -6.171875 15.890625 -6.109375 16.015625 -5.984375 L 18.15625 -3.921875 C 18.3125 -3.765625 18.390625 -3.613281 18.390625 -3.46875 C 18.390625 -3.289062 18.335938 -3.140625 18.234375 -3.015625 C 17.398438 -1.984375 16.335938 -1.171875 15.046875 -0.578125 C 13.753906 0.00390625 12.34375 0.296875 10.8125 0.296875 C 8.5 0.296875 6.582031 -0.289062 5.0625 -1.46875 C 3.539062 -2.644531 2.519531 -4.265625 2 -6.328125 C 1.695312 -7.429688 1.546875 -8.597656 1.546875 -9.828125 C 1.546875 -11.285156 1.679688 -12.519531 1.953125 -13.53125 C 2.460938 -15.382812 3.472656 -16.875 4.984375 -18 C 6.503906 -19.132812 8.304688 -19.703125 10.390625 -19.703125 C 12.859375 -19.703125 14.8125 -18.972656 16.25 -17.515625 C 17.695312 -16.054688 18.632812 -14.007812 19.0625 -11.375 C 19.164062 -10.550781 19.238281 -9.632812 19.28125 -8.625 C 19.28125 -8.195312 19.066406 -7.984375 18.640625 -7.984375 L 7.078125 -7.984375 C 6.929688 -7.984375 6.859375 -7.910156 6.859375 -7.765625 C 6.929688 -7.234375 7.019531 -6.84375 7.125 -6.59375 C 7.375 -5.8125 7.867188 -5.210938 8.609375 -4.796875 C 9.347656 -4.390625 10.242188 -4.1875 11.296875 -4.1875 Z M 10.328125 -15.109375 C 9.515625 -15.109375 8.835938 -14.910156 8.296875 -14.515625 C 7.765625 -14.128906 7.398438 -13.585938 7.203125 -12.890625 C 7.066406 -12.410156 6.988281 -12.09375 6.96875 -11.9375 C 6.945312 -11.789062 7.007812 -11.71875 7.15625 -11.71875 L 13.5625 -11.71875 C 13.6875 -11.71875 13.75 -11.765625 13.75 -11.859375 C 13.75 -12.140625 13.695312 -12.429688 13.59375 -12.734375 C 13.375 -13.460938 12.988281 -14.039062 12.4375 -14.46875 C 11.882812 -14.894531 11.179688 -15.109375 10.328125 -15.109375 Z M 10.328125 -15.109375 "/></g></g></g><g fill="#fd546e" fill-opacity="1"><g transform="translate(577.986971, 438.752853)"><g/></g></g><g fill="#fd546e" fill-opacity="1"><g transform="translate(589.288776, 438.752853)"><g><path d="M 2.9375 0 C 2.507812 0 2.296875 -0.210938 2.296875 -0.640625 L 2.296875 -25.734375 C 2.296875 -26.160156 2.507812 -26.375 2.9375 -26.375 L 12.171875 -26.375 C 14.054688 -26.375 15.707031 -26.039062 17.125 -25.375 C 18.539062 -24.707031 19.640625 -23.769531 20.421875 -22.5625 C 21.203125 -21.351562 21.59375 -19.960938 21.59375 -18.390625 L 21.59375 -7.984375 C 21.59375 -6.398438 21.203125 -5.003906 20.421875 -3.796875 C 19.640625 -2.597656 18.539062 -1.664062 17.125 -1 C 15.707031 -0.332031 14.054688 0 12.171875 0 Z M 7.609375 -4.78125 C 7.609375 -4.632812 7.679688 -4.5625 7.828125 -4.5625 L 12.359375 -4.5625 C 13.515625 -4.5625 14.445312 -4.945312 15.15625 -5.71875 C 15.875 -6.5 16.25 -7.546875 16.28125 -8.859375 L 16.28125 -17.515625 C 16.28125 -18.816406 15.921875 -19.859375 15.203125 -20.640625 C 14.484375 -21.421875 13.519531 -21.8125 12.3125 -21.8125 L 7.828125 -21.8125 C 7.679688 -21.8125 7.609375 -21.738281 7.609375 -21.59375 Z M 7.609375 -4.78125 "/></g></g></g><g fill="#fd546e" fill-opacity="1"><g transform="translate(616.336685, 438.752853)"><g><path d="M 4.890625 -21.203125 C 3.941406 -21.203125 3.164062 -21.5 2.5625 -22.09375 C 1.957031 -22.6875 1.65625 -23.445312 1.65625 -24.375 C 1.65625 -25.300781 1.957031 -26.054688 2.5625 -26.640625 C 3.164062 -27.234375 3.941406 -27.53125 4.890625 -27.53125 C 5.867188 -27.53125 6.65625 -27.242188 7.25 -26.671875 C 7.84375 -26.097656 8.140625 -25.332031 8.140625 -24.375 C 8.140625 -23.414062 7.84375 -22.644531 7.25 -22.0625 C 6.65625 -21.488281 5.867188 -21.203125 4.890625 -21.203125 Z M 2.90625 0 C 2.476562 0 2.265625 -0.210938 2.265625 -0.640625 L 2.265625 -18.71875 C 2.265625 -19.144531 2.476562 -19.359375 2.90625 -19.359375 L 6.9375 -19.359375 C 7.363281 -19.359375 7.578125 -19.144531 7.578125 -18.71875 L 7.578125 -0.640625 C 7.578125 -0.210938 7.363281 0 6.9375 0 Z M 2.90625 0 "/></g></g></g><g fill="#fd546e" fill-opacity="1"><g transform="translate(629.898702, 438.752853)"><g><path d="M 13.78125 -18.71875 C 13.78125 -19.144531 13.992188 -19.359375 14.421875 -19.359375 L 18.453125 -19.359375 C 18.878906 -19.359375 19.09375 -19.144531 19.09375 -18.71875 L 19.09375 -1.734375 C 19.09375 1.554688 18.148438 3.90625 16.265625 5.3125 C 14.390625 6.71875 11.96875 7.421875 9 7.421875 C 8.175781 7.421875 7.234375 7.359375 6.171875 7.234375 C 5.796875 7.210938 5.609375 6.988281 5.609375 6.5625 L 5.765625 3.046875 C 5.765625 2.847656 5.832031 2.691406 5.96875 2.578125 C 6.101562 2.460938 6.273438 2.429688 6.484375 2.484375 C 7.410156 2.609375 8.175781 2.671875 8.78125 2.671875 C 10.382812 2.671875 11.617188 2.316406 12.484375 1.609375 C 13.347656 0.910156 13.78125 -0.210938 13.78125 -1.765625 C 13.78125 -1.847656 13.753906 -1.894531 13.703125 -1.90625 C 13.660156 -1.914062 13.601562 -1.882812 13.53125 -1.8125 C 12.59375 -0.800781 11.207031 -0.296875 9.375 -0.296875 C 7.75 -0.296875 6.25 -0.691406 4.875 -1.484375 C 3.507812 -2.273438 2.535156 -3.550781 1.953125 -5.3125 C 1.578125 -6.46875 1.390625 -7.960938 1.390625 -9.796875 C 1.390625 -11.753906 1.617188 -13.347656 2.078125 -14.578125 C 2.597656 -16.109375 3.484375 -17.335938 4.734375 -18.265625 C 5.992188 -19.203125 7.453125 -19.671875 9.109375 -19.671875 C 10.992188 -19.671875 12.46875 -19.101562 13.53125 -17.96875 C 13.601562 -17.894531 13.660156 -17.867188 13.703125 -17.890625 C 13.753906 -17.921875 13.78125 -17.984375 13.78125 -18.078125 Z M 13.484375 -6.75 C 13.679688 -7.5 13.78125 -8.523438 13.78125 -9.828125 C 13.78125 -10.609375 13.753906 -11.210938 13.703125 -11.640625 C 13.660156 -12.066406 13.578125 -12.46875 13.453125 -12.84375 C 13.222656 -13.519531 12.84375 -14.066406 12.3125 -14.484375 C 11.789062 -14.898438 11.140625 -15.109375 10.359375 -15.109375 C 9.609375 -15.109375 8.96875 -14.898438 8.4375 -14.484375 C 7.90625 -14.066406 7.515625 -13.519531 7.265625 -12.84375 C 6.921875 -12.09375 6.75 -11.078125 6.75 -9.796875 C 6.75 -8.390625 6.898438 -7.382812 7.203125 -6.78125 C 7.421875 -6.101562 7.8125 -5.554688 8.375 -5.140625 C 8.945312 -4.722656 9.617188 -4.515625 10.390625 -4.515625 C 11.203125 -4.515625 11.867188 -4.722656 12.390625 -5.140625 C 12.921875 -5.554688 13.285156 -6.09375 13.484375 -6.75 Z M 13.484375 -6.75 "/></g></g></g><g fill="#fd546e" fill-opacity="1"><g transform="translate(654.611056, 438.752853)"><g><path d="M 4.890625 -21.203125 C 3.941406 -21.203125 3.164062 -21.5 2.5625 -22.09375 C 1.957031 -22.6875 1.65625 -23.445312 1.65625 -24.375 C 1.65625 -25.300781 1.957031 -26.054688 2.5625 -26.640625 C 3.164062 -27.234375 3.941406 -27.53125 4.890625 -27.53125 C 5.867188 -27.53125 6.65625 -27.242188 7.25 -26.671875 C 7.84375 -26.097656 8.140625 -25.332031 8.140625 -24.375 C 8.140625 -23.414062 7.84375 -22.644531 7.25 -22.0625 C 6.65625 -21.488281 5.867188 -21.203125 4.890625 -21.203125 Z M 2.90625 0 C 2.476562 0 2.265625 -0.210938 2.265625 -0.640625 L 2.265625 -18.71875 C 2.265625 -19.144531 2.476562 -19.359375 2.90625 -19.359375 L 6.9375 -19.359375 C 7.363281 -19.359375 7.578125 -19.144531 7.578125 -18.71875 L 7.578125 -0.640625 C 7.578125 -0.210938 7.363281 0 6.9375 0 Z M 2.90625 0 "/></g></g></g><g fill="#fd546e" fill-opacity="1"><g transform="translate(668.173054, 438.752853)"><g><path d="M 13.078125 -15.75 C 13.078125 -15.320312 12.863281 -15.109375 12.4375 -15.109375 L 9.046875 -15.109375 C 8.890625 -15.109375 8.8125 -15.03125 8.8125 -14.875 L 8.8125 -7.078125 C 8.8125 -6.253906 8.976562 -5.644531 9.3125 -5.25 C 9.65625 -4.863281 10.207031 -4.671875 10.96875 -4.671875 L 12.015625 -4.671875 C 12.441406 -4.671875 12.65625 -4.457031 12.65625 -4.03125 L 12.65625 -0.796875 C 12.65625 -0.390625 12.441406 -0.160156 12.015625 -0.109375 C 11.054688 -0.0546875 10.367188 -0.03125 9.953125 -0.03125 C 7.859375 -0.03125 6.296875 -0.378906 5.265625 -1.078125 C 4.242188 -1.785156 3.71875 -3.097656 3.6875 -5.015625 L 3.6875 -14.875 C 3.6875 -15.03125 3.613281 -15.109375 3.46875 -15.109375 L 1.546875 -15.109375 C 1.117188 -15.109375 0.90625 -15.320312 0.90625 -15.75 L 0.90625 -18.71875 C 0.90625 -19.144531 1.117188 -19.359375 1.546875 -19.359375 L 3.46875 -19.359375 C 3.613281 -19.359375 3.6875 -19.4375 3.6875 -19.59375 L 3.6875 -23.84375 C 3.6875 -24.269531 3.898438 -24.484375 4.328125 -24.484375 L 8.171875 -24.484375 C 8.597656 -24.484375 8.8125 -24.269531 8.8125 -23.84375 L 8.8125 -19.59375 C 8.8125 -19.4375 8.890625 -19.359375 9.046875 -19.359375 L 12.4375 -19.359375 C 12.863281 -19.359375 13.078125 -19.144531 13.078125 -18.71875 Z M 13.078125 -15.75 "/></g></g></g><g fill="#fd546e" fill-opacity="1"><g transform="translate(686.255476, 438.752853)"><g><path d="M 9.71875 -19.671875 C 11.351562 -19.671875 12.8125 -19.382812 14.09375 -18.8125 C 15.375 -18.25 16.367188 -17.476562 17.078125 -16.5 C 17.796875 -15.519531 18.15625 -14.425781 18.15625 -13.21875 L 18.15625 -0.640625 C 18.15625 -0.210938 17.941406 0 17.515625 0 L 13.484375 0 C 13.054688 0 12.84375 -0.210938 12.84375 -0.640625 L 12.84375 -1.546875 C 12.84375 -1.640625 12.816406 -1.691406 12.765625 -1.703125 C 12.722656 -1.722656 12.660156 -1.695312 12.578125 -1.625 C 11.421875 -0.34375 9.703125 0.296875 7.421875 0.296875 C 5.484375 0.296875 3.925781 -0.175781 2.75 -1.125 C 1.570312 -2.082031 0.984375 -3.488281 0.984375 -5.34375 C 0.984375 -7.28125 1.660156 -8.78125 3.015625 -9.84375 C 4.367188 -10.914062 6.300781 -11.453125 8.8125 -11.453125 L 12.625 -11.453125 C 12.769531 -11.453125 12.84375 -11.523438 12.84375 -11.671875 L 12.84375 -12.46875 C 12.84375 -13.300781 12.582031 -13.945312 12.0625 -14.40625 C 11.550781 -14.875 10.804688 -15.109375 9.828125 -15.109375 C 9.078125 -15.109375 8.457031 -14.984375 7.96875 -14.734375 C 7.476562 -14.484375 7.144531 -14.128906 6.96875 -13.671875 C 6.820312 -13.316406 6.570312 -13.15625 6.21875 -13.1875 L 2.03125 -13.71875 C 1.832031 -13.738281 1.675781 -13.789062 1.5625 -13.875 C 1.445312 -13.96875 1.40625 -14.085938 1.4375 -14.234375 C 1.5625 -15.265625 1.992188 -16.191406 2.734375 -17.015625 C 3.472656 -17.847656 4.453125 -18.5 5.671875 -18.96875 C 6.890625 -19.4375 8.238281 -19.671875 9.71875 -19.671875 Z M 8.96875 -3.65625 C 10.039062 -3.65625 10.953125 -3.941406 11.703125 -4.515625 C 12.460938 -5.097656 12.84375 -5.84375 12.84375 -6.75 L 12.84375 -8.0625 C 12.84375 -8.207031 12.769531 -8.28125 12.625 -8.28125 L 9.953125 -8.28125 C 8.816406 -8.28125 7.921875 -8.066406 7.265625 -7.640625 C 6.617188 -7.210938 6.296875 -6.613281 6.296875 -5.84375 C 6.296875 -5.164062 6.539062 -4.628906 7.03125 -4.234375 C 7.519531 -3.847656 8.164062 -3.65625 8.96875 -3.65625 Z M 8.96875 -3.65625 "/></g></g></g><g fill="#fd546e" fill-opacity="1"><g transform="translate(709.913076, 438.752853)"><g><path d="M 2.671875 0 C 2.242188 0 2.03125 -0.210938 2.03125 -0.640625 L 2.03125 -25.734375 C 2.03125 -26.160156 2.242188 -26.375 2.671875 -26.375 L 6.703125 -26.375 C 7.128906 -26.375 7.34375 -26.160156 7.34375 -25.734375 L 7.34375 -0.640625 C 7.34375 -0.210938 7.128906 0 6.703125 0 Z M 2.671875 0 "/></g></g></g><g mask="url(#63139ecec4)"><g transform="matrix(1, 0, 0, 1, 818, 107)"><g clip-path="url(#7a71520ec7)"><g clip-path="url(#c22a1859da)"><g clip-path="url(#2350920196)"><g clip-path="url(#c61a76d522)"><g clip-path="url(#863f840351)"><path fill="#000000" d="M 31.527344 119.304688 L 28.835938 127.1875 L 118.132812 191.203125 L 124.742188 186.117188 Z M 79.875 95.105469 C 90.101562 98.355469 105.015625 93.007812 124.203125 79.226562 C 129.742188 75.253906 134.808594 71.160156 138.921875 67.660156 C 136.71875 72.898438 134.222656 79.320312 132.050781 86.152344 C 124.679688 109.25 124.800781 124.976562 132.402344 132.894531 C 144.15625 145.136719 167.96875 143.824219 182.628906 141.570312 L 130.199219 181.910156 L 33.757812 112.773438 L 54.914062 50.824219 C 57.277344 66.171875 63.542969 89.917969 79.875 95.105469 Z M 150.039062 52.582031 C 150.410156 52.847656 150.75 53.148438 151.066406 53.484375 C 151.378906 53.816406 151.65625 54.179688 151.894531 54.566406 C 152.136719 54.957031 152.339844 55.363281 152.5 55.792969 C 152.660156 56.21875 152.777344 56.660156 152.851562 57.113281 C 152.925781 57.5625 152.957031 58.019531 152.941406 58.476562 C 152.925781 58.933594 152.867188 59.382812 152.761719 59.828125 C 152.660156 60.277344 152.511719 60.707031 152.324219 61.125 C 152.136719 61.539062 151.90625 61.933594 151.640625 62.308594 C 151.375 62.679688 151.074219 63.019531 150.738281 63.335938 C 150.40625 63.648438 150.042969 63.925781 149.65625 64.167969 C 149.265625 64.40625 148.859375 64.609375 148.429688 64.769531 C 148.003906 64.933594 147.5625 65.050781 147.109375 65.125 C 146.660156 65.199219 146.207031 65.230469 145.746094 65.214844 C 145.289062 65.199219 144.839844 65.140625 144.394531 65.035156 C 143.949219 64.933594 143.515625 64.785156 143.101562 64.597656 C 142.683594 64.410156 142.289062 64.179688 141.917969 63.914062 C 141.542969 63.648438 141.203125 63.347656 140.890625 63.015625 C 140.578125 62.679688 140.300781 62.320312 140.058594 61.929688 C 139.816406 61.542969 139.613281 61.132812 139.453125 60.703125 C 139.292969 60.277344 139.175781 59.835938 139.101562 59.386719 C 139.023438 58.933594 138.996094 58.480469 139.011719 58.023438 C 139.023438 57.566406 139.085938 57.113281 139.1875 56.667969 C 139.292969 56.222656 139.4375 55.789062 139.628906 55.375 C 139.816406 54.957031 140.042969 54.5625 140.308594 54.191406 C 140.578125 53.816406 140.878906 53.476562 141.210938 53.164062 C 141.546875 52.851562 141.90625 52.574219 142.296875 52.332031 C 142.683594 52.089844 143.09375 51.890625 143.523438 51.730469 C 143.949219 51.566406 144.390625 51.449219 144.84375 51.375 C 145.292969 51.300781 145.746094 51.269531 146.207031 51.285156 C 146.664062 51.300781 147.113281 51.359375 147.558594 51.460938 C 148.003906 51.566406 148.4375 51.710938 148.855469 51.902344 C 149.269531 52.089844 149.664062 52.316406 150.039062 52.582031 Z M 197.355469 132.960938 C 197.730469 133.226562 198.070312 133.527344 198.382812 133.863281 C 198.695312 134.195312 198.972656 134.558594 199.214844 134.945312 C 199.457031 135.335938 199.660156 135.742188 199.820312 136.171875 C 199.980469 136.601562 200.097656 137.039062 200.171875 137.492188 C 200.246094 137.941406 200.277344 138.398438 200.261719 138.855469 C 200.246094 139.3125 200.1875 139.761719 200.082031 140.210938 C 199.980469 140.65625 199.832031 141.085938 199.644531 141.503906 C 199.453125 141.917969 199.226562 142.3125 198.960938 142.6875 C 198.695312 143.058594 198.394531 143.402344 198.058594 143.714844 C 197.726562 144.027344 197.363281 144.304688 196.976562 144.546875 C 196.585938 144.785156 196.179688 144.988281 195.75 145.148438 C 195.320312 145.3125 194.882812 145.429688 194.429688 145.503906 C 193.980469 145.578125 193.523438 145.609375 193.066406 145.59375 C 192.609375 145.578125 192.160156 145.519531 191.714844 145.414062 C 191.265625 145.3125 190.835938 145.164062 190.417969 144.976562 C 190.003906 144.789062 189.609375 144.558594 189.234375 144.292969 C 188.863281 144.027344 188.523438 143.726562 188.210938 143.394531 C 187.894531 143.058594 187.617188 142.699219 187.378906 142.308594 C 187.136719 141.921875 186.933594 141.511719 186.773438 141.085938 C 186.613281 140.65625 186.492188 140.214844 186.417969 139.765625 C 186.34375 139.3125 186.316406 138.859375 186.328125 138.402344 C 186.34375 137.945312 186.402344 137.492188 186.507812 137.046875 C 186.613281 136.601562 186.757812 136.167969 186.945312 135.753906 C 187.136719 135.335938 187.363281 134.941406 187.628906 134.570312 C 187.898438 134.195312 188.199219 133.855469 188.53125 133.542969 C 188.867188 133.230469 189.230469 132.953125 189.617188 132.710938 C 190.007812 132.46875 190.417969 132.265625 190.847656 132.105469 C 191.273438 131.945312 191.714844 131.828125 192.167969 131.753906 C 192.617188 131.679688 193.074219 131.648438 193.53125 131.664062 C 193.988281 131.679688 194.441406 131.738281 194.886719 131.84375 C 195.332031 131.949219 195.765625 132.09375 196.183594 132.285156 C 196.597656 132.472656 196.992188 132.699219 197.367188 132.96875 Z M 59.964844 35.742188 C 60.339844 36.007812 60.683594 36.308594 60.996094 36.640625 C 61.308594 36.972656 61.585938 37.335938 61.828125 37.722656 C 62.070312 38.113281 62.273438 38.519531 62.433594 38.949219 C 62.597656 39.375 62.714844 39.816406 62.789062 40.269531 C 62.863281 40.71875 62.894531 41.175781 62.878906 41.632812 C 62.867188 42.089844 62.804688 42.539062 62.703125 42.988281 C 62.601562 43.433594 62.453125 43.863281 62.265625 44.28125 C 62.078125 44.699219 61.847656 45.09375 61.582031 45.464844 C 61.316406 45.839844 61.015625 46.179688 60.683594 46.496094 C 60.347656 46.808594 59.988281 47.085938 59.597656 47.328125 C 59.210938 47.570312 58.800781 47.773438 58.375 47.933594 C 57.945312 48.09375 57.503906 48.214844 57.054688 48.289062 C 56.601562 48.363281 56.148438 48.394531 55.691406 48.378906 C 55.234375 48.363281 54.78125 48.304688 54.335938 48.203125 C 53.890625 48.097656 53.457031 47.953125 53.042969 47.765625 C 52.625 47.574219 52.230469 47.347656 51.859375 47.082031 C 51.484375 46.816406 51.144531 46.515625 50.828125 46.179688 C 50.515625 45.847656 50.238281 45.484375 49.996094 45.097656 C 49.753906 44.707031 49.554688 44.300781 49.390625 43.871094 C 49.230469 43.445312 49.113281 43.003906 49.039062 42.550781 C 48.964844 42.101562 48.933594 41.644531 48.949219 41.1875 C 48.960938 40.730469 49.023438 40.277344 49.125 39.832031 C 49.230469 39.386719 49.375 38.957031 49.566406 38.539062 C 49.753906 38.121094 49.980469 37.726562 50.246094 37.355469 C 50.515625 36.984375 50.816406 36.640625 51.148438 36.328125 C 51.484375 36.015625 51.847656 35.738281 52.234375 35.496094 C 52.625 35.257812 53.03125 35.054688 53.460938 34.894531 C 53.886719 34.734375 54.328125 34.613281 54.78125 34.539062 C 55.230469 34.464844 55.6875 34.433594 56.144531 34.449219 C 56.601562 34.464844 57.050781 34.523438 57.496094 34.628906 C 57.941406 34.730469 58.375 34.878906 58.792969 35.066406 C 59.207031 35.253906 59.601562 35.480469 59.976562 35.746094 Z M 59.964844 35.742188 " fill-opacity="1" fill-rule="nonzero"/></g></g></g></g></g></g></g><g clip-path="url(#85d4b785f7)"><g clip-path="url(#0c200d376a)"><g clip-path="url(#88a1228679)"><path fill="#fd546e" d="M 846.402344 228.75 L 843.789062 236.40625 L 930.511719 298.578125 L 936.933594 293.636719 Z M 893.363281 205.242188 C 903.296875 208.394531 917.78125 203.199219 936.421875 189.8125 C 941.800781 185.949219 946.722656 181.972656 950.71875 178.574219 C 948.578125 183.660156 946.152344 189.902344 944.039062 196.535156 C 936.878906 218.972656 936.992188 234.25 944.375 241.941406 C 955.789062 253.828125 978.921875 252.550781 993.160156 250.359375 L 942.230469 289.550781 L 848.570312 222.40625 L 869.125 162.230469 C 871.417969 177.140625 877.5 200.203125 893.363281 205.242188 Z M 961.515625 163.925781 C 961.875 164.183594 962.207031 164.476562 962.511719 164.800781 C 962.816406 165.125 963.085938 165.476562 963.320312 165.855469 C 963.554688 166.230469 963.75 166.628906 963.90625 167.042969 C 964.0625 167.460938 964.175781 167.886719 964.25 168.324219 C 964.320312 168.765625 964.351562 169.207031 964.335938 169.652344 C 964.320312 170.09375 964.261719 170.535156 964.160156 170.964844 C 964.0625 171.398438 963.917969 171.816406 963.734375 172.222656 C 963.550781 172.628906 963.328125 173.011719 963.070312 173.371094 C 962.8125 173.734375 962.519531 174.066406 962.195312 174.371094 C 961.871094 174.675781 961.519531 174.945312 961.144531 175.179688 C 960.765625 175.414062 960.367188 175.609375 959.953125 175.765625 C 959.535156 175.921875 959.109375 176.035156 958.671875 176.109375 C 958.234375 176.183594 957.792969 176.210938 957.347656 176.195312 C 956.902344 176.183594 956.464844 176.125 956.03125 176.023438 C 955.597656 175.921875 955.179688 175.78125 954.773438 175.597656 C 954.371094 175.414062 953.988281 175.195312 953.625 174.933594 C 953.265625 174.675781 952.933594 174.382812 952.628906 174.058594 C 952.324219 173.734375 952.054688 173.386719 951.820312 173.007812 C 951.585938 172.628906 951.390625 172.234375 951.234375 171.816406 C 951.078125 171.402344 950.964844 170.972656 950.890625 170.535156 C 950.820312 170.097656 950.789062 169.65625 950.804688 169.210938 C 950.820312 168.765625 950.875 168.328125 950.976562 167.894531 C 951.078125 167.464844 951.21875 167.042969 951.402344 166.640625 C 951.585938 166.234375 951.808594 165.851562 952.066406 165.488281 C 952.328125 165.128906 952.617188 164.796875 952.941406 164.492188 C 953.269531 164.1875 953.617188 163.917969 953.996094 163.683594 C 954.375 163.449219 954.769531 163.253906 955.1875 163.097656 C 955.601562 162.941406 956.03125 162.828125 956.46875 162.753906 C 956.90625 162.683594 957.347656 162.652344 957.792969 162.667969 C 958.238281 162.679688 958.675781 162.738281 959.109375 162.839844 C 959.542969 162.941406 959.960938 163.082031 960.367188 163.265625 C 960.769531 163.449219 961.152344 163.667969 961.515625 163.925781 Z M 1007.464844 241.996094 C 1007.824219 242.253906 1008.160156 242.546875 1008.460938 242.871094 C 1008.765625 243.195312 1009.035156 243.546875 1009.269531 243.925781 C 1009.503906 244.300781 1009.699219 244.699219 1009.855469 245.113281 C 1010.011719 245.53125 1010.125 245.957031 1010.199219 246.394531 C 1010.269531 246.835938 1010.300781 247.277344 1010.285156 247.71875 C 1010.269531 248.164062 1010.210938 248.601562 1010.113281 249.035156 C 1010.011719 249.46875 1009.867188 249.886719 1009.683594 250.292969 C 1009.5 250.699219 1009.28125 251.082031 1009.019531 251.441406 C 1008.761719 251.804688 1008.46875 252.136719 1008.144531 252.441406 C 1007.820312 252.746094 1007.46875 253.011719 1007.09375 253.25 C 1006.714844 253.484375 1006.320312 253.679688 1005.902344 253.835938 C 1005.488281 253.992188 1005.058594 254.105469 1004.621094 254.179688 C 1004.183594 254.253906 1003.742188 254.28125 1003.296875 254.265625 C 1002.851562 254.253906 1002.414062 254.195312 1001.980469 254.09375 C 1001.546875 253.992188 1001.128906 253.851562 1000.726562 253.667969 C 1000.320312 253.484375 999.9375 253.261719 999.574219 253.003906 C 999.214844 252.746094 998.882812 252.453125 998.578125 252.128906 C 998.273438 251.804688 998.003906 251.453125 997.769531 251.078125 C 997.535156 250.699219 997.339844 250.304688 997.183594 249.886719 C 997.027344 249.472656 996.914062 249.042969 996.839844 248.605469 C 996.769531 248.167969 996.738281 247.726562 996.753906 247.28125 C 996.769531 246.835938 996.824219 246.398438 996.925781 245.964844 C 997.027344 245.53125 997.171875 245.113281 997.351562 244.710938 C 997.535156 244.304688 997.757812 243.921875 998.015625 243.558594 C 998.277344 243.199219 998.570312 242.867188 998.894531 242.5625 C 999.21875 242.257812 999.570312 241.988281 999.949219 241.753906 C 1000.328125 241.519531 1000.722656 241.324219 1001.140625 241.167969 C 1001.558594 241.011719 1001.984375 240.894531 1002.425781 240.824219 C 1002.863281 240.75 1003.304688 240.722656 1003.75 240.738281 C 1004.195312 240.753906 1004.632812 240.808594 1005.066406 240.910156 C 1005.5 241.011719 1005.917969 241.15625 1006.324219 241.339844 C 1006.730469 241.523438 1007.113281 241.742188 1007.472656 242.003906 Z M 874.035156 147.578125 C 874.398438 147.835938 874.730469 148.128906 875.035156 148.453125 C 875.339844 148.777344 875.609375 149.128906 875.84375 149.503906 C 876.078125 149.882812 876.273438 150.277344 876.429688 150.695312 C 876.589844 151.109375 876.703125 151.539062 876.777344 151.976562 C 876.847656 152.414062 876.878906 152.855469 876.863281 153.300781 C 876.851562 153.746094 876.792969 154.183594 876.691406 154.617188 C 876.589844 155.050781 876.449219 155.46875 876.265625 155.875 C 876.082031 156.28125 875.863281 156.664062 875.605469 157.023438 C 875.34375 157.386719 875.054688 157.71875 874.730469 158.023438 C 874.40625 158.328125 874.054688 158.597656 873.675781 158.832031 C 873.300781 159.070312 872.902344 159.265625 872.488281 159.421875 C 872.070312 159.578125 871.644531 159.695312 871.203125 159.765625 C 870.765625 159.839844 870.324219 159.871094 869.878906 159.855469 C 869.4375 159.839844 868.996094 159.785156 868.5625 159.683594 C 868.132812 159.582031 867.710938 159.441406 867.308594 159.257812 C 866.902344 159.074219 866.519531 158.855469 866.15625 158.59375 C 865.796875 158.335938 865.464844 158.046875 865.160156 157.722656 C 864.855469 157.398438 864.585938 157.046875 864.351562 156.667969 C 864.117188 156.292969 863.921875 155.894531 863.761719 155.476562 C 863.605469 155.0625 863.492188 154.636719 863.417969 154.195312 C 863.347656 153.757812 863.316406 153.316406 863.332031 152.871094 C 863.347656 152.425781 863.40625 151.988281 863.503906 151.554688 C 863.605469 151.121094 863.75 150.703125 863.933594 150.296875 C 864.117188 149.894531 864.335938 149.507812 864.59375 149.148438 C 864.855469 148.785156 865.148438 148.453125 865.472656 148.152344 C 865.796875 147.847656 866.148438 147.578125 866.523438 147.34375 C 866.902344 147.109375 867.300781 146.914062 867.714844 146.757812 C 868.132812 146.601562 868.558594 146.484375 868.996094 146.414062 C 869.4375 146.339844 869.878906 146.3125 870.320312 146.324219 C 870.765625 146.339844 871.203125 146.398438 871.636719 146.496094 C 872.070312 146.597656 872.488281 146.738281 872.894531 146.921875 C 873.296875 147.105469 873.683594 147.328125 874.042969 147.585938 Z M 874.035156 147.578125 " fill-opacity="1" fill-rule="nonzero"/></g></g></g></svg>