<svg xmlns="http://www.w3.org/2000/svg" xmlns:xlink="http://www.w3.org/1999/xlink" width="1366" zoomAndPan="magnify" viewBox="0 0 1024.5 576" height="768" preserveAspectRatio="xMidYMid meet" version="1.0"><defs><filter x="0%" y="0%" width="100%" height="100%" id="36e253bf51"><feColorMatrix values="0 0 0 0 1 0 0 0 0 1 0 0 0 0 1 0 0 0 1 0" color-interpolation-filters="sRGB"/></filter><g/><mask id="26c052bdc5"><g filter="url(#36e253bf51)"><rect x="-102.45" width="1229.4" fill="#000000" y="-57.6" height="691.2" fill-opacity="0.3294"/></g></mask><clipPath id="82b4e88263"><path d="M 31 36 L 203 36 L 203 194 L 31 194 Z M 31 36 " clip-rule="nonzero"/></clipPath><clipPath id="eca54ac782"><path d="M 79.035156 2.25 L 226.453125 107.933594 L 150.039062 214.53125 L 2.617188 108.847656 Z M 79.035156 2.25 " clip-rule="nonzero"/></clipPath><clipPath id="ac2ce54cd7"><path d="M 227.023438 108.339844 L 79.601562 2.65625 L 3.183594 109.253906 L 150.605469 214.9375 Z M 227.023438 108.339844 " clip-rule="nonzero"/></clipPath><clipPath id="3299cbaa05"><path d="M 227.023438 108.339844 L 79.601562 2.65625 L 3.183594 109.253906 L 150.605469 214.9375 Z M 227.023438 108.339844 " clip-rule="nonzero"/></clipPath><clipPath id="d8d00035b5"><rect x="0" width="208" y="0" height="216"/></clipPath><clipPath id="90c4785f2a"><path d="M 842 145 L 1011 145 L 1011 300 L 842 300 Z M 842 145 " clip-rule="nonzero"/></clipPath><clipPath id="f5351bc854"><path d="M 890.238281 112.835938 L 1035.390625 216.894531 L 960.597656 321.222656 L 815.445312 217.164062 Z M 890.238281 112.835938 " clip-rule="nonzero"/></clipPath><clipPath id="6ee5ac2aec"><path d="M 1034.324219 216.132812 L 889.175781 112.074219 L 814.382812 216.402344 L 959.535156 320.460938 Z M 1034.324219 216.132812 " clip-rule="nonzero"/></clipPath></defs><g fill="#000000" fill-opacity="0.4"><g transform="translate(145.318632, 387.163577)"><g><path d="M 8.4375 -11.3125 C 14.882812 -11.3125 19.097656 -11.945312 21.078125 -13.21875 C 23.066406 -14.488281 24.335938 -15.84375 24.890625 -17.28125 C 25.441406 -18.71875 25.71875 -20.46875 25.71875 -22.53125 L 25.71875 -131.75 C 25.71875 -136.207031 24.960938 -138.984375 23.453125 -140.078125 C 20.710938 -142.003906 15.707031 -142.96875 8.4375 -142.96875 L 8.4375 -154.28125 L 56.984375 -154.28125 L 102.546875 -35.28125 L 146.25 -154.28125 L 194.28125 -154.28125 L 194.28125 -142.96875 C 187.769531 -142.96875 183.519531 -142.332031 181.53125 -141.0625 C 179.539062 -139.789062 178.269531 -138.4375 177.71875 -137 C 177.175781 -135.5625 176.90625 -133.8125 176.90625 -131.75 L 176.90625 -22.53125 C 176.90625 -18.132812 177.691406 -15.351562 179.265625 -14.1875 C 182.015625 -12.269531 187.019531 -11.3125 194.28125 -11.3125 L 194.28125 0 L 137.203125 0 L 137.203125 -11.3125 C 143.648438 -11.3125 147.816406 -11.945312 149.703125 -13.21875 C 151.585938 -14.488281 152.769531 -15.84375 153.25 -17.28125 C 153.726562 -18.71875 153.96875 -20.46875 153.96875 -22.53125 L 153.96875 -132.265625 L 106.25 0 L 94.828125 0 L 42.171875 -132.375 L 42.171875 -22.53125 C 42.171875 -18.070312 42.925781 -15.289062 44.4375 -14.1875 C 47.175781 -12.269531 52.179688 -11.3125 59.453125 -11.3125 L 59.453125 0 L 8.4375 0 Z M 8.4375 -11.3125 "/></g></g></g><g fill="#000000" fill-opacity="0.4"><g transform="translate(343.706913, 387.163577)"><g><path d="M 10.90625 0 Z M 106.859375 -47.421875 L 35.484375 -47.421875 C 35.484375 -35.617188 38.273438 -26.492188 43.859375 -20.046875 C 49.453125 -13.609375 56.363281 -10.390625 64.59375 -10.390625 C 75.625 -10.390625 83.539062 -14.945312 88.34375 -24.0625 L 103.671875 -24.171875 C 102.085938 -16.835938 97.578125 -10.628906 90.140625 -5.546875 C 82.703125 -0.472656 72.675781 2.0625 60.0625 2.0625 C 47.445312 2.0625 36.546875 -1.847656 27.359375 -9.671875 C 16.378906 -19.066406 10.890625 -32.300781 10.890625 -49.375 C 10.890625 -66.445312 15.257812 -80.207031 24 -90.65625 C 32.75 -101.113281 45.285156 -106.34375 61.609375 -106.34375 C 83.066406 -106.34375 96.953125 -97.707031 103.265625 -80.4375 C 105.796875 -73.507812 107.0625 -66.957031 107.0625 -60.78125 C 107.0625 -54.613281 106.992188 -50.160156 106.859375 -47.421875 Z M 83.09375 -62.84375 C 83.09375 -83.820312 75.960938 -94.3125 61.703125 -94.3125 C 53.679688 -94.3125 47.425781 -91.191406 42.9375 -84.953125 C 38.445312 -78.710938 35.992188 -70.070312 35.578125 -59.03125 L 83 -59.03125 C 83.0625 -60.332031 83.09375 -61.601562 83.09375 -62.84375 Z M 67.984375 -129.078125 C 65.453125 -124.898438 62.40625 -122.8125 58.84375 -122.8125 C 57.195312 -122.8125 55.910156 -123.34375 54.984375 -124.40625 C 54.054688 -125.46875 53.59375 -126.492188 53.59375 -127.484375 C 53.59375 -128.472656 53.695312 -129.347656 53.90625 -130.109375 L 59.046875 -154.375 C 60.554688 -161.4375 61.992188 -166.03125 63.359375 -168.15625 C 65.898438 -171.925781 69.191406 -173.8125 73.234375 -173.8125 C 81.460938 -173.8125 85.578125 -170.488281 85.578125 -163.84375 C 85.578125 -160.207031 84.171875 -156.023438 81.359375 -151.296875 Z M 67.984375 -129.078125 "/></g></g></g><g fill="#000000" fill-opacity="0.4"><g transform="translate(455.39816, 387.163577)"><g><path d="M 51.328125 2.0625 C 29.722656 2.0625 18.921875 -9.9375 18.921875 -33.9375 L 18.921875 -85.359375 C 18.921875 -88.035156 18.59375 -89.800781 17.9375 -90.65625 C 17.289062 -91.519531 15.90625 -91.953125 13.78125 -91.953125 L 5.34375 -91.953125 L 5.34375 -104.296875 L 9.15625 -104.296875 C 14.363281 -104.296875 18.179688 -105.941406 20.609375 -109.234375 C 23.046875 -112.523438 24.367188 -117.941406 24.578125 -125.484375 L 24.6875 -134.640625 L 41.140625 -134.640625 L 41.140625 -104.296875 L 72.71875 -104.296875 L 72.71875 -91.953125 L 41.140625 -91.953125 L 41.140625 -34.25 C 41.140625 -21.5 44.085938 -13.890625 49.984375 -11.421875 C 51.628906 -10.734375 53.273438 -10.390625 54.921875 -10.390625 C 62.117188 -10.390625 66.816406 -16.320312 69.015625 -28.1875 L 80.9375 -28.1875 C 80.257812 -14.125 74.398438 -4.796875 63.359375 -0.203125 C 59.796875 1.304688 55.785156 2.0625 51.328125 2.0625 Z M 51.328125 2.0625 "/></g></g></g><g fill="#000000" fill-opacity="0.4"><g transform="translate(537.264789, 387.163577)"><g><path d="M 9.25 -52.65625 C 9.25 -60.882812 10.535156 -68.476562 13.109375 -75.4375 C 15.679688 -82.394531 19.265625 -88.171875 23.859375 -92.765625 C 32.910156 -101.816406 44.945312 -106.34375 59.96875 -106.34375 C 75.113281 -106.34375 87.332031 -101.800781 96.625 -92.71875 C 105.914062 -83.632812 110.5625 -70.742188 110.5625 -54.046875 C 110.5625 -37.347656 106.273438 -23.820312 97.703125 -13.46875 C 89.140625 -3.113281 76.5625 2.0625 59.96875 2.0625 C 43.375 2.0625 30.769531 -2.957031 22.15625 -13 C 13.550781 -23.050781 9.25 -36.269531 9.25 -52.65625 Z M 59.96875 -10.28125 C 67.914062 -10.28125 74.375 -13.914062 79.34375 -21.1875 C 84.320312 -28.457031 86.8125 -38.675781 86.8125 -51.84375 C 86.8125 -73.03125 81.460938 -86.257812 70.765625 -91.53125 C 67.472656 -93.175781 63.875 -94 59.96875 -94 C 47.28125 -94 39.015625 -86.320312 35.171875 -70.96875 C 33.804688 -65.6875 33.125 -59.515625 33.125 -52.453125 C 33.125 -38.878906 35.609375 -28.457031 40.578125 -21.1875 C 45.546875 -13.914062 52.007812 -10.28125 59.96875 -10.28125 Z M 59.96875 -10.28125 "/></g></g></g><g fill="#000000" fill-opacity="0.4"><g transform="translate(652.864071, 387.163577)"><g><path d="M 88.140625 -16.25 C 79.984375 -4.039062 68.875 2.0625 54.8125 2.0625 C 40.757812 2.0625 29.601562 -2.566406 21.34375 -11.828125 C 13.082031 -21.085938 8.953125 -33.53125 8.953125 -49.15625 C 8.953125 -68.363281 13.1875 -82.695312 21.65625 -92.15625 C 30.125 -101.613281 41.726562 -106.34375 56.46875 -106.34375 C 67.644531 -106.34375 77.207031 -102.503906 85.15625 -94.828125 L 85.15625 -132.78125 C 85.15625 -137.644531 84.65625 -140.847656 83.65625 -142.390625 C 82.664062 -143.941406 80.253906 -144.71875 76.421875 -144.71875 L 69.109375 -144.71875 L 69.109375 -156.03125 C 75.898438 -156.03125 81.210938 -156.523438 85.046875 -157.515625 C 88.890625 -158.515625 91.632812 -159.234375 93.28125 -159.671875 C 94.925781 -160.117188 96.675781 -160.34375 98.53125 -160.34375 C 102.164062 -160.34375 104.546875 -159.296875 105.671875 -157.203125 C 106.804688 -155.117188 107.375 -151.78125 107.375 -147.1875 L 107.375 -27.359375 C 107.375 -20.703125 107.648438 -16.585938 108.203125 -15.015625 C 109.367188 -11.992188 112.179688 -10.484375 116.640625 -10.484375 C 118.898438 -10.484375 120.851562 -10.863281 122.5 -11.625 L 122.5 -1.640625 C 119.207031 0.828125 114.75 2.0625 109.125 2.0625 C 97.882812 2.0625 90.890625 -4.039062 88.140625 -16.25 Z M 46.6875 -13.78125 C 49.976562 -11.445312 53.957031 -10.28125 58.625 -10.28125 C 67.675781 -10.28125 74.445312 -14.066406 78.9375 -21.640625 C 83.425781 -29.222656 85.671875 -39.703125 85.671875 -53.078125 C 85.671875 -72.960938 80.425781 -85.710938 69.9375 -91.328125 C 66.582031 -93.109375 62.878906 -94 58.828125 -94 C 50.734375 -94 44.390625 -90.28125 39.796875 -82.84375 C 35.203125 -75.40625 32.90625 -65.484375 32.90625 -53.078125 C 32.90625 -33.253906 37.5 -20.15625 46.6875 -13.78125 Z M 46.6875 -13.78125 "/></g></g></g><g fill="#000000" fill-opacity="0.4"><g transform="translate(773.914088, 387.163577)"><g><path d="M 9.25 -52.65625 C 9.25 -60.882812 10.535156 -68.476562 13.109375 -75.4375 C 15.679688 -82.394531 19.265625 -88.171875 23.859375 -92.765625 C 32.910156 -101.816406 44.945312 -106.34375 59.96875 -106.34375 C 75.113281 -106.34375 87.332031 -101.800781 96.625 -92.71875 C 105.914062 -83.632812 110.5625 -70.742188 110.5625 -54.046875 C 110.5625 -37.347656 106.273438 -23.820312 97.703125 -13.46875 C 89.140625 -3.113281 76.5625 2.0625 59.96875 2.0625 C 43.375 2.0625 30.769531 -2.957031 22.15625 -13 C 13.550781 -23.050781 9.25 -36.269531 9.25 -52.65625 Z M 59.96875 -10.28125 C 67.914062 -10.28125 74.375 -13.914062 79.34375 -21.1875 C 84.320312 -28.457031 86.8125 -38.675781 86.8125 -51.84375 C 86.8125 -73.03125 81.460938 -86.257812 70.765625 -91.53125 C 67.472656 -93.175781 63.875 -94 59.96875 -94 C 47.28125 -94 39.015625 -86.320312 35.171875 -70.96875 C 33.804688 -65.6875 33.125 -59.515625 33.125 -52.453125 C 33.125 -38.878906 35.609375 -28.457031 40.578125 -21.1875 C 45.546875 -13.914062 52.007812 -10.28125 59.96875 -10.28125 Z M 59.96875 -10.28125 "/></g></g></g><g fill="#ffffff" fill-opacity="1"><g transform="translate(138.05664, 379.901584)"><g><path d="M 8.4375 -11.3125 C 14.882812 -11.3125 19.097656 -11.945312 21.078125 -13.21875 C 23.066406 -14.488281 24.335938 -15.84375 24.890625 -17.28125 C 25.441406 -18.71875 25.71875 -20.46875 25.71875 -22.53125 L 25.71875 -131.75 C 25.71875 -136.207031 24.960938 -138.984375 23.453125 -140.078125 C 20.710938 -142.003906 15.707031 -142.96875 8.4375 -142.96875 L 8.4375 -154.28125 L 56.984375 -154.28125 L 102.546875 -35.28125 L 146.25 -154.28125 L 194.28125 -154.28125 L 194.28125 -142.96875 C 187.769531 -142.96875 183.519531 -142.332031 181.53125 -141.0625 C 179.539062 -139.789062 178.269531 -138.4375 177.71875 -137 C 177.175781 -135.5625 176.90625 -133.8125 176.90625 -131.75 L 176.90625 -22.53125 C 176.90625 -18.132812 177.691406 -15.351562 179.265625 -14.1875 C 182.015625 -12.269531 187.019531 -11.3125 194.28125 -11.3125 L 194.28125 0 L 137.203125 0 L 137.203125 -11.3125 C 143.648438 -11.3125 147.816406 -11.945312 149.703125 -13.21875 C 151.585938 -14.488281 152.769531 -15.84375 153.25 -17.28125 C 153.726562 -18.71875 153.96875 -20.46875 153.96875 -22.53125 L 153.96875 -132.265625 L 106.25 0 L 94.828125 0 L 42.171875 -132.375 L 42.171875 -22.53125 C 42.171875 -18.070312 42.925781 -15.289062 44.4375 -14.1875 C 47.175781 -12.269531 52.179688 -11.3125 59.453125 -11.3125 L 59.453125 0 L 8.4375 0 Z M 8.4375 -11.3125 "/></g></g></g><g fill="#ffffff" fill-opacity="1"><g transform="translate(336.444921, 379.901584)"><g><path d="M 10.90625 0 Z M 106.859375 -47.421875 L 35.484375 -47.421875 C 35.484375 -35.617188 38.273438 -26.492188 43.859375 -20.046875 C 49.453125 -13.609375 56.363281 -10.390625 64.59375 -10.390625 C 75.625 -10.390625 83.539062 -14.945312 88.34375 -24.0625 L 103.671875 -24.171875 C 102.085938 -16.835938 97.578125 -10.628906 90.140625 -5.546875 C 82.703125 -0.472656 72.675781 2.0625 60.0625 2.0625 C 47.445312 2.0625 36.546875 -1.847656 27.359375 -9.671875 C 16.378906 -19.066406 10.890625 -32.300781 10.890625 -49.375 C 10.890625 -66.445312 15.257812 -80.207031 24 -90.65625 C 32.75 -101.113281 45.285156 -106.34375 61.609375 -106.34375 C 83.066406 -106.34375 96.953125 -97.707031 103.265625 -80.4375 C 105.796875 -73.507812 107.0625 -66.957031 107.0625 -60.78125 C 107.0625 -54.613281 106.992188 -50.160156 106.859375 -47.421875 Z M 83.09375 -62.84375 C 83.09375 -83.820312 75.960938 -94.3125 61.703125 -94.3125 C 53.679688 -94.3125 47.425781 -91.191406 42.9375 -84.953125 C 38.445312 -78.710938 35.992188 -70.070312 35.578125 -59.03125 L 83 -59.03125 C 83.0625 -60.332031 83.09375 -61.601562 83.09375 -62.84375 Z M 67.984375 -129.078125 C 65.453125 -124.898438 62.40625 -122.8125 58.84375 -122.8125 C 57.195312 -122.8125 55.910156 -123.34375 54.984375 -124.40625 C 54.054688 -125.46875 53.59375 -126.492188 53.59375 -127.484375 C 53.59375 -128.472656 53.695312 -129.347656 53.90625 -130.109375 L 59.046875 -154.375 C 60.554688 -161.4375 61.992188 -166.03125 63.359375 -168.15625 C 65.898438 -171.925781 69.191406 -173.8125 73.234375 -173.8125 C 81.460938 -173.8125 85.578125 -170.488281 85.578125 -163.84375 C 85.578125 -160.207031 84.171875 -156.023438 81.359375 -151.296875 Z M 67.984375 -129.078125 "/></g></g></g><g fill="#ffffff" fill-opacity="1"><g transform="translate(448.136168, 379.901584)"><g><path d="M 51.328125 2.0625 C 29.722656 2.0625 18.921875 -9.9375 18.921875 -33.9375 L 18.921875 -85.359375 C 18.921875 -88.035156 18.59375 -89.800781 17.9375 -90.65625 C 17.289062 -91.519531 15.90625 -91.953125 13.78125 -91.953125 L 5.34375 -91.953125 L 5.34375 -104.296875 L 9.15625 -104.296875 C 14.363281 -104.296875 18.179688 -105.941406 20.609375 -109.234375 C 23.046875 -112.523438 24.367188 -117.941406 24.578125 -125.484375 L 24.6875 -134.640625 L 41.140625 -134.640625 L 41.140625 -104.296875 L 72.71875 -104.296875 L 72.71875 -91.953125 L 41.140625 -91.953125 L 41.140625 -34.25 C 41.140625 -21.5 44.085938 -13.890625 49.984375 -11.421875 C 51.628906 -10.734375 53.273438 -10.390625 54.921875 -10.390625 C 62.117188 -10.390625 66.816406 -16.320312 69.015625 -28.1875 L 80.9375 -28.1875 C 80.257812 -14.125 74.398438 -4.796875 63.359375 -0.203125 C 59.796875 1.304688 55.785156 2.0625 51.328125 2.0625 Z M 51.328125 2.0625 "/></g></g></g><g fill="#ffffff" fill-opacity="1"><g transform="translate(530.002796, 379.901584)"><g><path d="M 9.25 -52.65625 C 9.25 -60.882812 10.535156 -68.476562 13.109375 -75.4375 C 15.679688 -82.394531 19.265625 -88.171875 23.859375 -92.765625 C 32.910156 -101.816406 44.945312 -106.34375 59.96875 -106.34375 C 75.113281 -106.34375 87.332031 -101.800781 96.625 -92.71875 C 105.914062 -83.632812 110.5625 -70.742188 110.5625 -54.046875 C 110.5625 -37.347656 106.273438 -23.820312 97.703125 -13.46875 C 89.140625 -3.113281 76.5625 2.0625 59.96875 2.0625 C 43.375 2.0625 30.769531 -2.957031 22.15625 -13 C 13.550781 -23.050781 9.25 -36.269531 9.25 -52.65625 Z M 59.96875 -10.28125 C 67.914062 -10.28125 74.375 -13.914062 79.34375 -21.1875 C 84.320312 -28.457031 86.8125 -38.675781 86.8125 -51.84375 C 86.8125 -73.03125 81.460938 -86.257812 70.765625 -91.53125 C 67.472656 -93.175781 63.875 -94 59.96875 -94 C 47.28125 -94 39.015625 -86.320312 35.171875 -70.96875 C 33.804688 -65.6875 33.125 -59.515625 33.125 -52.453125 C 33.125 -38.878906 35.609375 -28.457031 40.578125 -21.1875 C 45.546875 -13.914062 52.007812 -10.28125 59.96875 -10.28125 Z M 59.96875 -10.28125 "/></g></g></g><g fill="#ffffff" fill-opacity="1"><g transform="translate(645.602078, 379.901584)"><g><path d="M 88.140625 -16.25 C 79.984375 -4.039062 68.875 2.0625 54.8125 2.0625 C 40.757812 2.0625 29.601562 -2.566406 21.34375 -11.828125 C 13.082031 -21.085938 8.953125 -33.53125 8.953125 -49.15625 C 8.953125 -68.363281 13.1875 -82.695312 21.65625 -92.15625 C 30.125 -101.613281 41.726562 -106.34375 56.46875 -106.34375 C 67.644531 -106.34375 77.207031 -102.503906 85.15625 -94.828125 L 85.15625 -132.78125 C 85.15625 -137.644531 84.65625 -140.847656 83.65625 -142.390625 C 82.664062 -143.941406 80.253906 -144.71875 76.421875 -144.71875 L 69.109375 -144.71875 L 69.109375 -156.03125 C 75.898438 -156.03125 81.210938 -156.523438 85.046875 -157.515625 C 88.890625 -158.515625 91.632812 -159.234375 93.28125 -159.671875 C 94.925781 -160.117188 96.675781 -160.34375 98.53125 -160.34375 C 102.164062 -160.34375 104.546875 -159.296875 105.671875 -157.203125 C 106.804688 -155.117188 107.375 -151.78125 107.375 -147.1875 L 107.375 -27.359375 C 107.375 -20.703125 107.648438 -16.585938 108.203125 -15.015625 C 109.367188 -11.992188 112.179688 -10.484375 116.640625 -10.484375 C 118.898438 -10.484375 120.851562 -10.863281 122.5 -11.625 L 122.5 -1.640625 C 119.207031 0.828125 114.75 2.0625 109.125 2.0625 C 97.882812 2.0625 90.890625 -4.039062 88.140625 -16.25 Z M 46.6875 -13.78125 C 49.976562 -11.445312 53.957031 -10.28125 58.625 -10.28125 C 67.675781 -10.28125 74.445312 -14.066406 78.9375 -21.640625 C 83.425781 -29.222656 85.671875 -39.703125 85.671875 -53.078125 C 85.671875 -72.960938 80.425781 -85.710938 69.9375 -91.328125 C 66.582031 -93.109375 62.878906 -94 58.828125 -94 C 50.734375 -94 44.390625 -90.28125 39.796875 -82.84375 C 35.203125 -75.40625 32.90625 -65.484375 32.90625 -53.078125 C 32.90625 -33.253906 37.5 -20.15625 46.6875 -13.78125 Z M 46.6875 -13.78125 "/></g></g></g><g fill="#ffffff" fill-opacity="1"><g transform="translate(766.652096, 379.901584)"><g><path d="M 9.25 -52.65625 C 9.25 -60.882812 10.535156 -68.476562 13.109375 -75.4375 C 15.679688 -82.394531 19.265625 -88.171875 23.859375 -92.765625 C 32.910156 -101.816406 44.945312 -106.34375 59.96875 -106.34375 C 75.113281 -106.34375 87.332031 -101.800781 96.625 -92.71875 C 105.914062 -83.632812 110.5625 -70.742188 110.5625 -54.046875 C 110.5625 -37.347656 106.273438 -23.820312 97.703125 -13.46875 C 89.140625 -3.113281 76.5625 2.0625 59.96875 2.0625 C 43.375 2.0625 30.769531 -2.957031 22.15625 -13 C 13.550781 -23.050781 9.25 -36.269531 9.25 -52.65625 Z M 59.96875 -10.28125 C 67.914062 -10.28125 74.375 -13.914062 79.34375 -21.1875 C 84.320312 -28.457031 86.8125 -38.675781 86.8125 -51.84375 C 86.8125 -73.03125 81.460938 -86.257812 70.765625 -91.53125 C 67.472656 -93.175781 63.875 -94 59.96875 -94 C 47.28125 -94 39.015625 -86.320312 35.171875 -70.96875 C 33.804688 -65.6875 33.125 -59.515625 33.125 -52.453125 C 33.125 -38.878906 35.609375 -28.457031 40.578125 -21.1875 C 45.546875 -13.914062 52.007812 -10.28125 59.96875 -10.28125 Z M 59.96875 -10.28125 "/></g></g></g><g fill="#000000" fill-opacity="0.4"><g transform="translate(159.998802, 458.50559)"><g><path d="M 19.421875 0.6875 C 16.160156 0.6875 13.285156 0.0195312 10.796875 -1.3125 C 8.316406 -2.65625 6.382812 -4.523438 5 -6.921875 C 3.625 -9.328125 2.9375 -12.09375 2.9375 -15.21875 L 2.9375 -28.640625 C 2.9375 -31.722656 3.625 -34.453125 5 -36.828125 C 6.382812 -39.210938 8.316406 -41.0625 10.796875 -42.375 C 13.285156 -43.695312 16.160156 -44.359375 19.421875 -44.359375 C 22.722656 -44.359375 25.613281 -43.695312 28.09375 -42.375 C 30.582031 -41.0625 32.515625 -39.210938 33.890625 -36.828125 C 35.273438 -34.453125 35.96875 -31.722656 35.96875 -28.640625 L 35.96875 -15.21875 C 35.96875 -12.09375 35.273438 -9.316406 33.890625 -6.890625 C 32.515625 -4.472656 30.582031 -2.601562 28.09375 -1.28125 C 25.613281 0.03125 22.722656 0.6875 19.421875 0.6875 Z M 19.421875 -6.890625 C 21.722656 -6.890625 23.582031 -7.617188 25 -9.078125 C 26.414062 -10.546875 27.125 -12.488281 27.125 -14.90625 L 27.125 -28.703125 C 27.125 -31.117188 26.425781 -33.066406 25.03125 -34.546875 C 23.632812 -36.035156 21.765625 -36.78125 19.421875 -36.78125 C 17.128906 -36.78125 15.28125 -36.035156 13.875 -34.546875 C 12.476562 -33.066406 11.78125 -31.117188 11.78125 -28.703125 L 11.78125 -14.90625 C 11.78125 -12.488281 12.476562 -10.546875 13.875 -9.078125 C 15.28125 -7.617188 17.128906 -6.890625 19.421875 -6.890625 Z M 19.421875 -6.890625 "/></g></g></g><g fill="#000000" fill-opacity="0.4"><g transform="translate(205.147139, 458.50559)"><g><path d="M 32.078125 -23.5 C 32.785156 -21.488281 33.140625 -18.984375 33.140625 -15.984375 C 33.140625 -12.890625 32.742188 -10.296875 31.953125 -8.203125 C 31.035156 -5.535156 29.519531 -3.40625 27.40625 -1.8125 C 25.300781 -0.226562 22.828125 0.5625 19.984375 0.5625 C 16.890625 0.5625 14.507812 -0.457031 12.84375 -2.5 C 12.757812 -2.625 12.664062 -2.664062 12.5625 -2.625 C 12.457031 -2.582031 12.40625 -2.476562 12.40625 -2.3125 L 12.40625 10.59375 C 12.40625 11.300781 12.050781 11.65625 11.34375 11.65625 L 4.640625 11.65625 C 3.929688 11.65625 3.578125 11.300781 3.578125 10.59375 L 3.578125 -31.140625 C 3.578125 -31.847656 3.929688 -32.203125 4.640625 -32.203125 L 11.34375 -32.203125 C 12.050781 -32.203125 12.40625 -31.847656 12.40625 -31.140625 L 12.40625 -29.453125 C 12.40625 -29.285156 12.457031 -29.191406 12.5625 -29.171875 C 12.664062 -29.148438 12.757812 -29.203125 12.84375 -29.328125 C 14.550781 -31.578125 16.929688 -32.703125 19.984375 -32.703125 C 22.828125 -32.703125 25.34375 -31.851562 27.53125 -30.15625 C 29.726562 -28.46875 31.242188 -26.25 32.078125 -23.5 Z M 22.375 -9.59375 C 23.375 -11.257812 23.875 -13.453125 23.875 -16.171875 C 23.875 -18.628906 23.4375 -20.675781 22.5625 -22.3125 C 21.550781 -24.101562 20.023438 -25 17.984375 -25 C 16.140625 -25 14.71875 -24.101562 13.71875 -22.3125 C 12.882812 -20.757812 12.46875 -18.691406 12.46875 -16.109375 C 12.46875 -13.390625 12.90625 -11.238281 13.78125 -9.65625 C 14.820312 -8.019531 16.222656 -7.203125 17.984375 -7.203125 C 19.898438 -7.203125 21.363281 -8 22.375 -9.59375 Z M 22.375 -9.59375 "/></g></g></g><g fill="#000000" fill-opacity="0.4"><g transform="translate(246.413424, 458.50559)"><g><path d="M 17.546875 0.5 C 13.992188 0.5 10.960938 -0.414062 8.453125 -2.25 C 5.953125 -4.09375 4.242188 -6.601562 3.328125 -9.78125 C 2.734375 -11.738281 2.4375 -13.867188 2.4375 -16.171875 C 2.4375 -18.710938 2.753906 -20.925781 3.390625 -22.8125 C 4.347656 -25.894531 6.066406 -28.3125 8.546875 -30.0625 C 11.035156 -31.820312 14.054688 -32.703125 17.609375 -32.703125 C 21.035156 -32.703125 23.96875 -31.820312 26.40625 -30.0625 C 28.851562 -28.3125 30.554688 -25.914062 31.515625 -22.875 C 32.140625 -20.945312 32.453125 -18.753906 32.453125 -16.296875 C 32.453125 -14.117188 32.179688 -12.007812 31.640625 -9.96875 C 30.679688 -6.707031 28.957031 -4.144531 26.46875 -2.28125 C 23.988281 -0.425781 21.015625 0.5 17.546875 0.5 Z M 17.546875 -7.078125 C 18.878906 -7.078125 20.023438 -7.492188 20.984375 -8.328125 C 21.953125 -9.171875 22.644531 -10.320312 23.0625 -11.78125 C 23.394531 -12.90625 23.5625 -14.367188 23.5625 -16.171875 C 23.5625 -17.921875 23.394531 -19.398438 23.0625 -20.609375 C 22.644531 -22.035156 21.953125 -23.144531 20.984375 -23.9375 C 20.023438 -24.726562 18.835938 -25.125 17.421875 -25.125 C 16.035156 -25.125 14.863281 -24.726562 13.90625 -23.9375 C 12.945312 -23.144531 12.257812 -22.035156 11.84375 -20.609375 C 11.507812 -19.398438 11.34375 -17.921875 11.34375 -16.171875 C 11.34375 -14.453125 11.507812 -12.988281 11.84375 -11.78125 C 12.257812 -10.320312 12.957031 -9.171875 13.9375 -8.328125 C 14.914062 -7.492188 16.117188 -7.078125 17.546875 -7.078125 Z M 17.546875 -7.078125 "/></g></g></g><g fill="#000000" fill-opacity="0.4"><g transform="translate(287.554479, 458.50559)"><g><path d="M 19.296875 -32.640625 C 20.628906 -32.640625 21.738281 -32.390625 22.625 -31.890625 C 23.125 -31.640625 23.3125 -31.203125 23.1875 -30.578125 L 22 -24 C 21.945312 -23.625 21.828125 -23.394531 21.640625 -23.3125 C 21.453125 -23.226562 21.148438 -23.226562 20.734375 -23.3125 C 20.066406 -23.476562 19.460938 -23.5625 18.921875 -23.5625 C 18.628906 -23.5625 18.148438 -23.519531 17.484375 -23.4375 C 15.972656 -23.3125 14.695312 -22.753906 13.65625 -21.765625 C 12.613281 -20.785156 12.09375 -19.484375 12.09375 -17.859375 L 12.09375 -1.0625 C 12.09375 -0.351562 11.738281 0 11.03125 0 L 4.328125 0 C 3.617188 0 3.265625 -0.351562 3.265625 -1.0625 L 3.265625 -31.140625 C 3.265625 -31.847656 3.617188 -32.203125 4.328125 -32.203125 L 11.03125 -32.203125 C 11.738281 -32.203125 12.09375 -31.847656 12.09375 -31.140625 L 12.09375 -29.203125 C 12.09375 -29.035156 12.132812 -28.929688 12.21875 -28.890625 C 12.300781 -28.847656 12.40625 -28.890625 12.53125 -29.015625 C 14.195312 -31.429688 16.453125 -32.640625 19.296875 -32.640625 Z M 19.296875 -32.640625 "/></g></g></g><g fill="#000000" fill-opacity="0.4"><g transform="translate(317.80076, 458.50559)"><g><path d="M 21.734375 -26.1875 C 21.734375 -25.476562 21.378906 -25.125 20.671875 -25.125 L 15.03125 -25.125 C 14.78125 -25.125 14.65625 -25 14.65625 -24.75 L 14.65625 -11.78125 C 14.65625 -10.40625 14.9375 -9.390625 15.5 -8.734375 C 16.070312 -8.085938 16.984375 -7.765625 18.234375 -7.765625 L 19.984375 -7.765625 C 20.691406 -7.765625 21.046875 -7.410156 21.046875 -6.703125 L 21.046875 -1.3125 C 21.046875 -0.644531 20.691406 -0.269531 19.984375 -0.1875 C 18.398438 -0.101562 17.253906 -0.0625 16.546875 -0.0625 C 13.078125 -0.0625 10.484375 -0.644531 8.765625 -1.8125 C 7.054688 -2.988281 6.179688 -5.160156 6.140625 -8.328125 L 6.140625 -24.75 C 6.140625 -25 6.015625 -25.125 5.765625 -25.125 L 2.5625 -25.125 C 1.851562 -25.125 1.5 -25.476562 1.5 -26.1875 L 1.5 -31.140625 C 1.5 -31.847656 1.851562 -32.203125 2.5625 -32.203125 L 5.765625 -32.203125 C 6.015625 -32.203125 6.140625 -32.328125 6.140625 -32.578125 L 6.140625 -39.65625 C 6.140625 -40.363281 6.492188 -40.71875 7.203125 -40.71875 L 13.59375 -40.71875 C 14.300781 -40.71875 14.65625 -40.363281 14.65625 -39.65625 L 14.65625 -32.578125 C 14.65625 -32.328125 14.78125 -32.203125 15.03125 -32.203125 L 20.671875 -32.203125 C 21.378906 -32.203125 21.734375 -31.847656 21.734375 -31.140625 Z M 21.734375 -26.1875 "/></g></g></g><g fill="#000000" fill-opacity="0.4"><g transform="translate(347.859164, 458.50559)"><g><path d="M 22.0625 -31.140625 C 22.0625 -31.847656 22.414062 -32.203125 23.125 -32.203125 L 29.828125 -32.203125 C 30.535156 -32.203125 30.890625 -31.847656 30.890625 -31.140625 L 30.890625 -1.0625 C 30.890625 -0.351562 30.535156 0 29.828125 0 L 23.125 0 C 22.414062 0 22.0625 -0.351562 22.0625 -1.0625 L 22.0625 -2.75 C 22.0625 -2.914062 22.003906 -3.007812 21.890625 -3.03125 C 21.785156 -3.050781 21.691406 -3 21.609375 -2.875 C 19.984375 -0.664062 17.414062 0.4375 13.90625 0.4375 C 10.726562 0.4375 8.113281 -0.519531 6.0625 -2.4375 C 4.019531 -4.363281 3 -7.0625 3 -10.53125 L 3 -31.140625 C 3 -31.847656 3.359375 -32.203125 4.078125 -32.203125 L 10.71875 -32.203125 C 11.425781 -32.203125 11.78125 -31.847656 11.78125 -31.140625 L 11.78125 -12.71875 C 11.78125 -11.050781 12.226562 -9.691406 13.125 -8.640625 C 14.019531 -7.597656 15.265625 -7.078125 16.859375 -7.078125 C 18.273438 -7.078125 19.441406 -7.503906 20.359375 -8.359375 C 21.273438 -9.222656 21.84375 -10.34375 22.0625 -11.71875 Z M 22.0625 -31.140625 "/></g></g></g><g fill="#000000" fill-opacity="0.4"><g transform="translate(388.248828, 458.50559)"><g><path d="M 20.046875 -32.703125 C 23.390625 -32.703125 26.082031 -31.675781 28.125 -29.625 C 30.175781 -27.582031 31.203125 -24.804688 31.203125 -21.296875 L 31.203125 -1.0625 C 31.203125 -0.351562 30.847656 0 30.140625 0 L 23.4375 0 C 22.726562 0 22.375 -0.351562 22.375 -1.0625 L 22.375 -19.484375 C 22.375 -21.160156 21.910156 -22.519531 20.984375 -23.5625 C 20.066406 -24.601562 18.835938 -25.125 17.296875 -25.125 C 15.742188 -25.125 14.488281 -24.601562 13.53125 -23.5625 C 12.570312 -22.519531 12.09375 -21.160156 12.09375 -19.484375 L 12.09375 -1.0625 C 12.09375 -0.351562 11.738281 0 11.03125 0 L 4.328125 0 C 3.617188 0 3.265625 -0.351562 3.265625 -1.0625 L 3.265625 -31.140625 C 3.265625 -31.847656 3.617188 -32.203125 4.328125 -32.203125 L 11.03125 -32.203125 C 11.738281 -32.203125 12.09375 -31.847656 12.09375 -31.140625 L 12.09375 -29.390625 C 12.09375 -29.222656 12.132812 -29.117188 12.21875 -29.078125 C 12.300781 -29.035156 12.382812 -29.078125 12.46875 -29.203125 C 14.175781 -31.535156 16.703125 -32.703125 20.046875 -32.703125 Z M 20.046875 -32.703125 "/></g></g></g><g fill="#000000" fill-opacity="0.4"><g transform="translate(428.763721, 458.50559)"><g><path d="M 8.140625 -35.28125 C 6.554688 -35.28125 5.257812 -35.769531 4.25 -36.75 C 3.25 -37.726562 2.75 -38.988281 2.75 -40.53125 C 2.75 -42.082031 3.25 -43.347656 4.25 -44.328125 C 5.257812 -45.304688 6.554688 -45.796875 8.140625 -45.796875 C 9.773438 -45.796875 11.082031 -45.316406 12.0625 -44.359375 C 13.039062 -43.398438 13.53125 -42.125 13.53125 -40.53125 C 13.53125 -38.945312 13.039062 -37.675781 12.0625 -36.71875 C 11.082031 -35.757812 9.773438 -35.28125 8.140625 -35.28125 Z M 4.828125 0 C 4.117188 0 3.765625 -0.351562 3.765625 -1.0625 L 3.765625 -31.140625 C 3.765625 -31.847656 4.117188 -32.203125 4.828125 -32.203125 L 11.53125 -32.203125 C 12.238281 -32.203125 12.59375 -31.847656 12.59375 -31.140625 L 12.59375 -1.0625 C 12.59375 -0.351562 12.238281 0 11.53125 0 Z M 4.828125 0 "/></g></g></g><g fill="#000000" fill-opacity="0.4"><g transform="translate(451.308482, 458.50559)"><g><path d="M 22.6875 -42.796875 C 22.6875 -43.503906 23.039062 -43.859375 23.75 -43.859375 L 30.453125 -43.859375 C 31.160156 -43.859375 31.515625 -43.503906 31.515625 -42.796875 L 31.515625 -1.0625 C 31.515625 -0.351562 31.160156 0 30.453125 0 L 23.75 0 C 23.039062 0 22.6875 -0.351562 22.6875 -1.0625 L 22.6875 -2.75 C 22.6875 -2.914062 22.632812 -3.007812 22.53125 -3.03125 C 22.425781 -3.050781 22.332031 -3 22.25 -2.875 C 20.53125 -0.625 18.144531 0.5 15.09375 0.5 C 12.257812 0.5 9.742188 -0.34375 7.546875 -2.03125 C 5.359375 -3.726562 3.84375 -5.953125 3 -8.703125 C 2.289062 -10.710938 1.9375 -13.222656 1.9375 -16.234375 C 1.9375 -19.316406 2.332031 -21.90625 3.125 -24 C 4.050781 -26.664062 5.566406 -28.789062 7.671875 -30.375 C 9.785156 -31.96875 12.257812 -32.765625 15.09375 -32.765625 C 18.1875 -32.765625 20.570312 -31.742188 22.25 -29.703125 C 22.332031 -29.578125 22.425781 -29.535156 22.53125 -29.578125 C 22.632812 -29.617188 22.6875 -29.722656 22.6875 -29.890625 Z M 21.359375 -9.90625 C 22.203125 -11.445312 22.625 -13.515625 22.625 -16.109375 C 22.625 -18.859375 22.179688 -21.007812 21.296875 -22.5625 C 20.253906 -24.1875 18.859375 -25 17.109375 -25 C 15.179688 -25 13.71875 -24.207031 12.71875 -22.625 C 11.71875 -20.945312 11.21875 -18.753906 11.21875 -16.046875 C 11.21875 -13.578125 11.65625 -11.53125 12.53125 -9.90625 C 13.53125 -8.101562 15.054688 -7.203125 17.109375 -7.203125 C 18.941406 -7.203125 20.359375 -8.101562 21.359375 -9.90625 Z M 21.359375 -9.90625 "/></g></g></g><g fill="#000000" fill-opacity="0.4"><g transform="translate(492.449526, 458.50559)"><g><path d="M 16.171875 -32.703125 C 18.878906 -32.703125 21.296875 -32.234375 23.421875 -31.296875 C 25.554688 -30.359375 27.21875 -29.070312 28.40625 -27.4375 C 29.601562 -25.8125 30.203125 -24 30.203125 -22 L 30.203125 -1.0625 C 30.203125 -0.351562 29.847656 0 29.140625 0 L 22.4375 0 C 21.71875 0 21.359375 -0.351562 21.359375 -1.0625 L 21.359375 -2.5625 C 21.359375 -2.726562 21.316406 -2.820312 21.234375 -2.84375 C 21.148438 -2.863281 21.046875 -2.8125 20.921875 -2.6875 C 19.003906 -0.5625 16.144531 0.5 12.34375 0.5 C 9.125 0.5 6.53125 -0.289062 4.5625 -1.875 C 2.601562 -3.46875 1.625 -5.804688 1.625 -8.890625 C 1.625 -12.109375 2.75 -14.601562 5 -16.375 C 7.257812 -18.15625 10.476562 -19.046875 14.65625 -19.046875 L 20.984375 -19.046875 C 21.234375 -19.046875 21.359375 -19.171875 21.359375 -19.421875 L 21.359375 -20.734375 C 21.359375 -22.117188 20.929688 -23.195312 20.078125 -23.96875 C 19.222656 -24.738281 17.984375 -25.125 16.359375 -25.125 C 15.097656 -25.125 14.0625 -24.914062 13.25 -24.5 C 12.4375 -24.082031 11.882812 -23.5 11.59375 -22.75 C 11.34375 -22.15625 10.925781 -21.878906 10.34375 -21.921875 L 3.390625 -22.8125 C 3.046875 -22.851562 2.78125 -22.945312 2.59375 -23.09375 C 2.40625 -23.238281 2.332031 -23.4375 2.375 -23.6875 C 2.582031 -25.394531 3.300781 -26.9375 4.53125 -28.3125 C 5.769531 -29.695312 7.398438 -30.773438 9.421875 -31.546875 C 11.453125 -32.316406 13.703125 -32.703125 16.171875 -32.703125 Z M 14.90625 -6.078125 C 16.707031 -6.078125 18.234375 -6.554688 19.484375 -7.515625 C 20.734375 -8.472656 21.359375 -9.707031 21.359375 -11.21875 L 21.359375 -13.40625 C 21.359375 -13.65625 21.234375 -13.78125 20.984375 -13.78125 L 16.546875 -13.78125 C 14.660156 -13.78125 13.175781 -13.425781 12.09375 -12.71875 C 11.007812 -12.007812 10.46875 -11.007812 10.46875 -9.71875 C 10.46875 -8.582031 10.875 -7.691406 11.6875 -7.046875 C 12.5 -6.398438 13.570312 -6.078125 14.90625 -6.078125 Z M 14.90625 -6.078125 "/></g></g></g><g fill="#000000" fill-opacity="0.4"><g transform="translate(531.774797, 458.50559)"><g><path d="M 22.6875 -42.796875 C 22.6875 -43.503906 23.039062 -43.859375 23.75 -43.859375 L 30.453125 -43.859375 C 31.160156 -43.859375 31.515625 -43.503906 31.515625 -42.796875 L 31.515625 -1.0625 C 31.515625 -0.351562 31.160156 0 30.453125 0 L 23.75 0 C 23.039062 0 22.6875 -0.351562 22.6875 -1.0625 L 22.6875 -2.75 C 22.6875 -2.914062 22.632812 -3.007812 22.53125 -3.03125 C 22.425781 -3.050781 22.332031 -3 22.25 -2.875 C 20.53125 -0.625 18.144531 0.5 15.09375 0.5 C 12.257812 0.5 9.742188 -0.34375 7.546875 -2.03125 C 5.359375 -3.726562 3.84375 -5.953125 3 -8.703125 C 2.289062 -10.710938 1.9375 -13.222656 1.9375 -16.234375 C 1.9375 -19.316406 2.332031 -21.90625 3.125 -24 C 4.050781 -26.664062 5.566406 -28.789062 7.671875 -30.375 C 9.785156 -31.96875 12.257812 -32.765625 15.09375 -32.765625 C 18.1875 -32.765625 20.570312 -31.742188 22.25 -29.703125 C 22.332031 -29.578125 22.425781 -29.535156 22.53125 -29.578125 C 22.632812 -29.617188 22.6875 -29.722656 22.6875 -29.890625 Z M 21.359375 -9.90625 C 22.203125 -11.445312 22.625 -13.515625 22.625 -16.109375 C 22.625 -18.859375 22.179688 -21.007812 21.296875 -22.5625 C 20.253906 -24.1875 18.859375 -25 17.109375 -25 C 15.179688 -25 13.71875 -24.207031 12.71875 -22.625 C 11.71875 -20.945312 11.21875 -18.753906 11.21875 -16.046875 C 11.21875 -13.578125 11.65625 -11.53125 12.53125 -9.90625 C 13.53125 -8.101562 15.054688 -7.203125 17.109375 -7.203125 C 18.941406 -7.203125 20.359375 -8.101562 21.359375 -9.90625 Z M 21.359375 -9.90625 "/></g></g></g><g fill="#000000" fill-opacity="0.4"><g transform="translate(572.915841, 458.50559)"><g><path d="M 18.796875 -6.953125 C 21.554688 -7.078125 23.664062 -8.039062 25.125 -9.84375 C 25.375 -10.132812 25.644531 -10.28125 25.9375 -10.28125 C 26.1875 -10.28125 26.414062 -10.175781 26.625 -9.96875 L 30.203125 -6.515625 C 30.453125 -6.265625 30.578125 -6.015625 30.578125 -5.765625 C 30.578125 -5.472656 30.492188 -5.222656 30.328125 -5.015625 C 28.953125 -3.296875 27.1875 -1.945312 25.03125 -0.96875 C 22.875 0.0078125 20.523438 0.5 17.984375 0.5 C 14.140625 0.5 10.953125 -0.476562 8.421875 -2.4375 C 5.898438 -4.40625 4.203125 -7.101562 3.328125 -10.53125 C 2.816406 -12.363281 2.5625 -14.304688 2.5625 -16.359375 C 2.5625 -18.773438 2.796875 -20.820312 3.265625 -22.5 C 4.097656 -25.582031 5.773438 -28.0625 8.296875 -29.9375 C 10.828125 -31.820312 13.828125 -32.765625 17.296875 -32.765625 C 21.390625 -32.765625 24.632812 -31.550781 27.03125 -29.125 C 29.4375 -26.707031 30.992188 -23.304688 31.703125 -18.921875 C 31.867188 -17.546875 31.992188 -16.019531 32.078125 -14.34375 C 32.078125 -13.632812 31.722656 -13.28125 31.015625 -13.28125 L 11.78125 -13.28125 C 11.53125 -13.28125 11.40625 -13.15625 11.40625 -12.90625 C 11.53125 -12.03125 11.675781 -11.382812 11.84375 -10.96875 C 12.257812 -9.664062 13.082031 -8.671875 14.3125 -7.984375 C 15.550781 -7.296875 17.046875 -6.953125 18.796875 -6.953125 Z M 17.171875 -25.125 C 15.828125 -25.125 14.707031 -24.800781 13.8125 -24.15625 C 12.914062 -23.507812 12.300781 -22.597656 11.96875 -21.421875 C 11.757812 -20.628906 11.632812 -20.109375 11.59375 -19.859375 C 11.550781 -19.609375 11.65625 -19.484375 11.90625 -19.484375 L 22.5625 -19.484375 C 22.769531 -19.484375 22.875 -19.566406 22.875 -19.734375 C 22.875 -20.191406 22.789062 -20.671875 22.625 -21.171875 C 22.25 -22.390625 21.597656 -23.351562 20.671875 -24.0625 C 19.753906 -24.769531 18.585938 -25.125 17.171875 -25.125 Z M 17.171875 -25.125 "/></g></g></g><g fill="#000000" fill-opacity="0.4"><g transform="translate(613.430734, 458.50559)"><g/></g></g><g fill="#000000" fill-opacity="0.4"><g transform="translate(632.218674, 458.50559)"><g><path d="M 4.890625 0 C 4.179688 0 3.828125 -0.351562 3.828125 -1.0625 L 3.828125 -42.796875 C 3.828125 -43.503906 4.179688 -43.859375 4.890625 -43.859375 L 20.234375 -43.859375 C 23.367188 -43.859375 26.113281 -43.300781 28.46875 -42.1875 C 30.832031 -41.082031 32.660156 -39.53125 33.953125 -37.53125 C 35.253906 -35.53125 35.90625 -33.210938 35.90625 -30.578125 L 35.90625 -13.28125 C 35.90625 -10.644531 35.253906 -8.328125 33.953125 -6.328125 C 32.660156 -4.328125 30.832031 -2.769531 28.46875 -1.65625 C 26.113281 -0.550781 23.367188 0 20.234375 0 Z M 12.65625 -7.953125 C 12.65625 -7.703125 12.78125 -7.578125 13.03125 -7.578125 L 20.546875 -7.578125 C 22.472656 -7.578125 24.03125 -8.222656 25.21875 -9.515625 C 26.40625 -10.816406 27.019531 -12.550781 27.0625 -14.71875 L 27.0625 -29.140625 C 27.0625 -31.304688 26.46875 -33.035156 25.28125 -34.328125 C 24.09375 -35.628906 22.492188 -36.28125 20.484375 -36.28125 L 13.03125 -36.28125 C 12.78125 -36.28125 12.65625 -36.15625 12.65625 -35.90625 Z M 12.65625 -7.953125 "/></g></g></g><g fill="#000000" fill-opacity="0.4"><g transform="translate(677.179176, 458.50559)"><g><path d="M 8.140625 -35.28125 C 6.554688 -35.28125 5.257812 -35.769531 4.25 -36.75 C 3.25 -37.726562 2.75 -38.988281 2.75 -40.53125 C 2.75 -42.082031 3.25 -43.347656 4.25 -44.328125 C 5.257812 -45.304688 6.554688 -45.796875 8.140625 -45.796875 C 9.773438 -45.796875 11.082031 -45.316406 12.0625 -44.359375 C 13.039062 -43.398438 13.53125 -42.125 13.53125 -40.53125 C 13.53125 -38.945312 13.039062 -37.675781 12.0625 -36.71875 C 11.082031 -35.757812 9.773438 -35.28125 8.140625 -35.28125 Z M 4.828125 0 C 4.117188 0 3.765625 -0.351562 3.765625 -1.0625 L 3.765625 -31.140625 C 3.765625 -31.847656 4.117188 -32.203125 4.828125 -32.203125 L 11.53125 -32.203125 C 12.238281 -32.203125 12.59375 -31.847656 12.59375 -31.140625 L 12.59375 -1.0625 C 12.59375 -0.351562 12.238281 0 11.53125 0 Z M 4.828125 0 "/></g></g></g><g fill="#000000" fill-opacity="0.4"><g transform="translate(699.723937, 458.50559)"><g><path d="M 22.9375 -31.140625 C 22.9375 -31.847656 23.289062 -32.203125 24 -32.203125 L 30.703125 -32.203125 C 31.410156 -32.203125 31.765625 -31.847656 31.765625 -31.140625 L 31.765625 -2.875 C 31.765625 2.59375 30.195312 6.492188 27.0625 8.828125 C 23.9375 11.171875 19.90625 12.34375 14.96875 12.34375 C 13.59375 12.34375 12.03125 12.238281 10.28125 12.03125 C 9.644531 11.988281 9.328125 11.613281 9.328125 10.90625 L 9.59375 5.078125 C 9.59375 4.742188 9.707031 4.484375 9.9375 4.296875 C 10.164062 4.109375 10.445312 4.054688 10.78125 4.140625 C 12.320312 4.347656 13.59375 4.453125 14.59375 4.453125 C 17.269531 4.453125 19.328125 3.863281 20.765625 2.6875 C 22.210938 1.519531 22.9375 -0.351562 22.9375 -2.9375 C 22.9375 -3.0625 22.894531 -3.132812 22.8125 -3.15625 C 22.726562 -3.1875 22.625 -3.132812 22.5 -3 C 20.945312 -1.332031 18.644531 -0.5 15.59375 -0.5 C 12.882812 -0.5 10.390625 -1.15625 8.109375 -2.46875 C 5.835938 -3.789062 4.222656 -5.910156 3.265625 -8.828125 C 2.628906 -10.753906 2.3125 -13.242188 2.3125 -16.296875 C 2.3125 -19.546875 2.691406 -22.195312 3.453125 -24.25 C 4.328125 -26.789062 5.804688 -28.832031 7.890625 -30.375 C 9.984375 -31.925781 12.40625 -32.703125 15.15625 -32.703125 C 18.289062 -32.703125 20.738281 -31.765625 22.5 -29.890625 C 22.625 -29.765625 22.726562 -29.722656 22.8125 -29.765625 C 22.894531 -29.804688 22.9375 -29.910156 22.9375 -30.078125 Z M 22.4375 -11.21875 C 22.769531 -12.46875 22.9375 -14.179688 22.9375 -16.359375 C 22.9375 -17.648438 22.894531 -18.648438 22.8125 -19.359375 C 22.726562 -20.066406 22.582031 -20.734375 22.375 -21.359375 C 21.988281 -22.492188 21.359375 -23.40625 20.484375 -24.09375 C 19.609375 -24.78125 18.523438 -25.125 17.234375 -25.125 C 15.972656 -25.125 14.90625 -24.78125 14.03125 -24.09375 C 13.15625 -23.40625 12.507812 -22.492188 12.09375 -21.359375 C 11.507812 -20.109375 11.21875 -18.421875 11.21875 -16.296875 C 11.21875 -13.953125 11.46875 -12.28125 11.96875 -11.28125 C 12.34375 -10.15625 13 -9.242188 13.9375 -8.546875 C 14.875 -7.859375 15.992188 -7.515625 17.296875 -7.515625 C 18.628906 -7.515625 19.734375 -7.859375 20.609375 -8.546875 C 21.484375 -9.242188 22.09375 -10.132812 22.4375 -11.21875 Z M 22.4375 -11.21875 "/></g></g></g><g fill="#000000" fill-opacity="0.4"><g transform="translate(740.802388, 458.50559)"><g><path d="M 8.140625 -35.28125 C 6.554688 -35.28125 5.257812 -35.769531 4.25 -36.75 C 3.25 -37.726562 2.75 -38.988281 2.75 -40.53125 C 2.75 -42.082031 3.25 -43.347656 4.25 -44.328125 C 5.257812 -45.304688 6.554688 -45.796875 8.140625 -45.796875 C 9.773438 -45.796875 11.082031 -45.316406 12.0625 -44.359375 C 13.039062 -43.398438 13.53125 -42.125 13.53125 -40.53125 C 13.53125 -38.945312 13.039062 -37.675781 12.0625 -36.71875 C 11.082031 -35.757812 9.773438 -35.28125 8.140625 -35.28125 Z M 4.828125 0 C 4.117188 0 3.765625 -0.351562 3.765625 -1.0625 L 3.765625 -31.140625 C 3.765625 -31.847656 4.117188 -32.203125 4.828125 -32.203125 L 11.53125 -32.203125 C 12.238281 -32.203125 12.59375 -31.847656 12.59375 -31.140625 L 12.59375 -1.0625 C 12.59375 -0.351562 12.238281 0 11.53125 0 Z M 4.828125 0 "/></g></g></g><g fill="#000000" fill-opacity="0.4"><g transform="translate(763.347149, 458.50559)"><g><path d="M 21.734375 -26.1875 C 21.734375 -25.476562 21.378906 -25.125 20.671875 -25.125 L 15.03125 -25.125 C 14.78125 -25.125 14.65625 -25 14.65625 -24.75 L 14.65625 -11.78125 C 14.65625 -10.40625 14.9375 -9.390625 15.5 -8.734375 C 16.070312 -8.085938 16.984375 -7.765625 18.234375 -7.765625 L 19.984375 -7.765625 C 20.691406 -7.765625 21.046875 -7.410156 21.046875 -6.703125 L 21.046875 -1.3125 C 21.046875 -0.644531 20.691406 -0.269531 19.984375 -0.1875 C 18.398438 -0.101562 17.253906 -0.0625 16.546875 -0.0625 C 13.078125 -0.0625 10.484375 -0.644531 8.765625 -1.8125 C 7.054688 -2.988281 6.179688 -5.160156 6.140625 -8.328125 L 6.140625 -24.75 C 6.140625 -25 6.015625 -25.125 5.765625 -25.125 L 2.5625 -25.125 C 1.851562 -25.125 1.5 -25.476562 1.5 -26.1875 L 1.5 -31.140625 C 1.5 -31.847656 1.851562 -32.203125 2.5625 -32.203125 L 5.765625 -32.203125 C 6.015625 -32.203125 6.140625 -32.328125 6.140625 -32.578125 L 6.140625 -39.65625 C 6.140625 -40.363281 6.492188 -40.71875 7.203125 -40.71875 L 13.59375 -40.71875 C 14.300781 -40.71875 14.65625 -40.363281 14.65625 -39.65625 L 14.65625 -32.578125 C 14.65625 -32.328125 14.78125 -32.203125 15.03125 -32.203125 L 20.671875 -32.203125 C 21.378906 -32.203125 21.734375 -31.847656 21.734375 -31.140625 Z M 21.734375 -26.1875 "/></g></g></g><g fill="#000000" fill-opacity="0.4"><g transform="translate(793.405553, 458.50559)"><g><path d="M 16.171875 -32.703125 C 18.878906 -32.703125 21.296875 -32.234375 23.421875 -31.296875 C 25.554688 -30.359375 27.21875 -29.070312 28.40625 -27.4375 C 29.601562 -25.8125 30.203125 -24 30.203125 -22 L 30.203125 -1.0625 C 30.203125 -0.351562 29.847656 0 29.140625 0 L 22.4375 0 C 21.71875 0 21.359375 -0.351562 21.359375 -1.0625 L 21.359375 -2.5625 C 21.359375 -2.726562 21.316406 -2.820312 21.234375 -2.84375 C 21.148438 -2.863281 21.046875 -2.8125 20.921875 -2.6875 C 19.003906 -0.5625 16.144531 0.5 12.34375 0.5 C 9.125 0.5 6.53125 -0.289062 4.5625 -1.875 C 2.601562 -3.46875 1.625 -5.804688 1.625 -8.890625 C 1.625 -12.109375 2.75 -14.601562 5 -16.375 C 7.257812 -18.15625 10.476562 -19.046875 14.65625 -19.046875 L 20.984375 -19.046875 C 21.234375 -19.046875 21.359375 -19.171875 21.359375 -19.421875 L 21.359375 -20.734375 C 21.359375 -22.117188 20.929688 -23.195312 20.078125 -23.96875 C 19.222656 -24.738281 17.984375 -25.125 16.359375 -25.125 C 15.097656 -25.125 14.0625 -24.914062 13.25 -24.5 C 12.4375 -24.082031 11.882812 -23.5 11.59375 -22.75 C 11.34375 -22.15625 10.925781 -21.878906 10.34375 -21.921875 L 3.390625 -22.8125 C 3.046875 -22.851562 2.78125 -22.945312 2.59375 -23.09375 C 2.40625 -23.238281 2.332031 -23.4375 2.375 -23.6875 C 2.582031 -25.394531 3.300781 -26.9375 4.53125 -28.3125 C 5.769531 -29.695312 7.398438 -30.773438 9.421875 -31.546875 C 11.453125 -32.316406 13.703125 -32.703125 16.171875 -32.703125 Z M 14.90625 -6.078125 C 16.707031 -6.078125 18.234375 -6.554688 19.484375 -7.515625 C 20.734375 -8.472656 21.359375 -9.707031 21.359375 -11.21875 L 21.359375 -13.40625 C 21.359375 -13.65625 21.234375 -13.78125 20.984375 -13.78125 L 16.546875 -13.78125 C 14.660156 -13.78125 13.175781 -13.425781 12.09375 -12.71875 C 11.007812 -12.007812 10.46875 -11.007812 10.46875 -9.71875 C 10.46875 -8.582031 10.875 -7.691406 11.6875 -7.046875 C 12.5 -6.398438 13.570312 -6.078125 14.90625 -6.078125 Z M 14.90625 -6.078125 "/></g></g></g><g fill="#000000" fill-opacity="0.4"><g transform="translate(832.730823, 458.50559)"><g><path d="M 4.453125 0 C 3.742188 0 3.390625 -0.351562 3.390625 -1.0625 L 3.390625 -42.796875 C 3.390625 -43.503906 3.742188 -43.859375 4.453125 -43.859375 L 11.15625 -43.859375 C 11.863281 -43.859375 12.21875 -43.503906 12.21875 -42.796875 L 12.21875 -1.0625 C 12.21875 -0.351562 11.863281 0 11.15625 0 Z M 4.453125 0 "/></g></g></g><g fill="#ffffff" fill-opacity="1"><g transform="translate(154.461114, 452.967903)"><g><path d="M 19.421875 0.6875 C 16.160156 0.6875 13.285156 0.0195312 10.796875 -1.3125 C 8.316406 -2.65625 6.382812 -4.523438 5 -6.921875 C 3.625 -9.328125 2.9375 -12.09375 2.9375 -15.21875 L 2.9375 -28.640625 C 2.9375 -31.722656 3.625 -34.453125 5 -36.828125 C 6.382812 -39.210938 8.316406 -41.0625 10.796875 -42.375 C 13.285156 -43.695312 16.160156 -44.359375 19.421875 -44.359375 C 22.722656 -44.359375 25.613281 -43.695312 28.09375 -42.375 C 30.582031 -41.0625 32.515625 -39.210938 33.890625 -36.828125 C 35.273438 -34.453125 35.96875 -31.722656 35.96875 -28.640625 L 35.96875 -15.21875 C 35.96875 -12.09375 35.273438 -9.316406 33.890625 -6.890625 C 32.515625 -4.472656 30.582031 -2.601562 28.09375 -1.28125 C 25.613281 0.03125 22.722656 0.6875 19.421875 0.6875 Z M 19.421875 -6.890625 C 21.722656 -6.890625 23.582031 -7.617188 25 -9.078125 C 26.414062 -10.546875 27.125 -12.488281 27.125 -14.90625 L 27.125 -28.703125 C 27.125 -31.117188 26.425781 -33.066406 25.03125 -34.546875 C 23.632812 -36.035156 21.765625 -36.78125 19.421875 -36.78125 C 17.128906 -36.78125 15.28125 -36.035156 13.875 -34.546875 C 12.476562 -33.066406 11.78125 -31.117188 11.78125 -28.703125 L 11.78125 -14.90625 C 11.78125 -12.488281 12.476562 -10.546875 13.875 -9.078125 C 15.28125 -7.617188 17.128906 -6.890625 19.421875 -6.890625 Z M 19.421875 -6.890625 "/></g></g></g><g fill="#ffffff" fill-opacity="1"><g transform="translate(199.609451, 452.967903)"><g><path d="M 32.078125 -23.5 C 32.785156 -21.488281 33.140625 -18.984375 33.140625 -15.984375 C 33.140625 -12.890625 32.742188 -10.296875 31.953125 -8.203125 C 31.035156 -5.535156 29.519531 -3.40625 27.40625 -1.8125 C 25.300781 -0.226562 22.828125 0.5625 19.984375 0.5625 C 16.890625 0.5625 14.507812 -0.457031 12.84375 -2.5 C 12.757812 -2.625 12.664062 -2.664062 12.5625 -2.625 C 12.457031 -2.582031 12.40625 -2.476562 12.40625 -2.3125 L 12.40625 10.59375 C 12.40625 11.300781 12.050781 11.65625 11.34375 11.65625 L 4.640625 11.65625 C 3.929688 11.65625 3.578125 11.300781 3.578125 10.59375 L 3.578125 -31.140625 C 3.578125 -31.847656 3.929688 -32.203125 4.640625 -32.203125 L 11.34375 -32.203125 C 12.050781 -32.203125 12.40625 -31.847656 12.40625 -31.140625 L 12.40625 -29.453125 C 12.40625 -29.285156 12.457031 -29.191406 12.5625 -29.171875 C 12.664062 -29.148438 12.757812 -29.203125 12.84375 -29.328125 C 14.550781 -31.578125 16.929688 -32.703125 19.984375 -32.703125 C 22.828125 -32.703125 25.34375 -31.851562 27.53125 -30.15625 C 29.726562 -28.46875 31.242188 -26.25 32.078125 -23.5 Z M 22.375 -9.59375 C 23.375 -11.257812 23.875 -13.453125 23.875 -16.171875 C 23.875 -18.628906 23.4375 -20.675781 22.5625 -22.3125 C 21.550781 -24.101562 20.023438 -25 17.984375 -25 C 16.140625 -25 14.71875 -24.101562 13.71875 -22.3125 C 12.882812 -20.757812 12.46875 -18.691406 12.46875 -16.109375 C 12.46875 -13.390625 12.90625 -11.238281 13.78125 -9.65625 C 14.820312 -8.019531 16.222656 -7.203125 17.984375 -7.203125 C 19.898438 -7.203125 21.363281 -8 22.375 -9.59375 Z M 22.375 -9.59375 "/></g></g></g><g fill="#ffffff" fill-opacity="1"><g transform="translate(240.875737, 452.967903)"><g><path d="M 17.546875 0.5 C 13.992188 0.5 10.960938 -0.414062 8.453125 -2.25 C 5.953125 -4.09375 4.242188 -6.601562 3.328125 -9.78125 C 2.734375 -11.738281 2.4375 -13.867188 2.4375 -16.171875 C 2.4375 -18.710938 2.753906 -20.925781 3.390625 -22.8125 C 4.347656 -25.894531 6.066406 -28.3125 8.546875 -30.0625 C 11.035156 -31.820312 14.054688 -32.703125 17.609375 -32.703125 C 21.035156 -32.703125 23.96875 -31.820312 26.40625 -30.0625 C 28.851562 -28.3125 30.554688 -25.914062 31.515625 -22.875 C 32.140625 -20.945312 32.453125 -18.753906 32.453125 -16.296875 C 32.453125 -14.117188 32.179688 -12.007812 31.640625 -9.96875 C 30.679688 -6.707031 28.957031 -4.144531 26.46875 -2.28125 C 23.988281 -0.425781 21.015625 0.5 17.546875 0.5 Z M 17.546875 -7.078125 C 18.878906 -7.078125 20.023438 -7.492188 20.984375 -8.328125 C 21.953125 -9.171875 22.644531 -10.320312 23.0625 -11.78125 C 23.394531 -12.90625 23.5625 -14.367188 23.5625 -16.171875 C 23.5625 -17.921875 23.394531 -19.398438 23.0625 -20.609375 C 22.644531 -22.035156 21.953125 -23.144531 20.984375 -23.9375 C 20.023438 -24.726562 18.835938 -25.125 17.421875 -25.125 C 16.035156 -25.125 14.863281 -24.726562 13.90625 -23.9375 C 12.945312 -23.144531 12.257812 -22.035156 11.84375 -20.609375 C 11.507812 -19.398438 11.34375 -17.921875 11.34375 -16.171875 C 11.34375 -14.453125 11.507812 -12.988281 11.84375 -11.78125 C 12.257812 -10.320312 12.957031 -9.171875 13.9375 -8.328125 C 14.914062 -7.492188 16.117188 -7.078125 17.546875 -7.078125 Z M 17.546875 -7.078125 "/></g></g></g><g fill="#ffffff" fill-opacity="1"><g transform="translate(282.016792, 452.967903)"><g><path d="M 19.296875 -32.640625 C 20.628906 -32.640625 21.738281 -32.390625 22.625 -31.890625 C 23.125 -31.640625 23.3125 -31.203125 23.1875 -30.578125 L 22 -24 C 21.945312 -23.625 21.828125 -23.394531 21.640625 -23.3125 C 21.453125 -23.226562 21.148438 -23.226562 20.734375 -23.3125 C 20.066406 -23.476562 19.460938 -23.5625 18.921875 -23.5625 C 18.628906 -23.5625 18.148438 -23.519531 17.484375 -23.4375 C 15.972656 -23.3125 14.695312 -22.753906 13.65625 -21.765625 C 12.613281 -20.785156 12.09375 -19.484375 12.09375 -17.859375 L 12.09375 -1.0625 C 12.09375 -0.351562 11.738281 0 11.03125 0 L 4.328125 0 C 3.617188 0 3.265625 -0.351562 3.265625 -1.0625 L 3.265625 -31.140625 C 3.265625 -31.847656 3.617188 -32.203125 4.328125 -32.203125 L 11.03125 -32.203125 C 11.738281 -32.203125 12.09375 -31.847656 12.09375 -31.140625 L 12.09375 -29.203125 C 12.09375 -29.035156 12.132812 -28.929688 12.21875 -28.890625 C 12.300781 -28.847656 12.40625 -28.890625 12.53125 -29.015625 C 14.195312 -31.429688 16.453125 -32.640625 19.296875 -32.640625 Z M 19.296875 -32.640625 "/></g></g></g><g fill="#ffffff" fill-opacity="1"><g transform="translate(312.263073, 452.967903)"><g><path d="M 21.734375 -26.1875 C 21.734375 -25.476562 21.378906 -25.125 20.671875 -25.125 L 15.03125 -25.125 C 14.78125 -25.125 14.65625 -25 14.65625 -24.75 L 14.65625 -11.78125 C 14.65625 -10.40625 14.9375 -9.390625 15.5 -8.734375 C 16.070312 -8.085938 16.984375 -7.765625 18.234375 -7.765625 L 19.984375 -7.765625 C 20.691406 -7.765625 21.046875 -7.410156 21.046875 -6.703125 L 21.046875 -1.3125 C 21.046875 -0.644531 20.691406 -0.269531 19.984375 -0.1875 C 18.398438 -0.101562 17.253906 -0.0625 16.546875 -0.0625 C 13.078125 -0.0625 10.484375 -0.644531 8.765625 -1.8125 C 7.054688 -2.988281 6.179688 -5.160156 6.140625 -8.328125 L 6.140625 -24.75 C 6.140625 -25 6.015625 -25.125 5.765625 -25.125 L 2.5625 -25.125 C 1.851562 -25.125 1.5 -25.476562 1.5 -26.1875 L 1.5 -31.140625 C 1.5 -31.847656 1.851562 -32.203125 2.5625 -32.203125 L 5.765625 -32.203125 C 6.015625 -32.203125 6.140625 -32.328125 6.140625 -32.578125 L 6.140625 -39.65625 C 6.140625 -40.363281 6.492188 -40.71875 7.203125 -40.71875 L 13.59375 -40.71875 C 14.300781 -40.71875 14.65625 -40.363281 14.65625 -39.65625 L 14.65625 -32.578125 C 14.65625 -32.328125 14.78125 -32.203125 15.03125 -32.203125 L 20.671875 -32.203125 C 21.378906 -32.203125 21.734375 -31.847656 21.734375 -31.140625 Z M 21.734375 -26.1875 "/></g></g></g><g fill="#ffffff" fill-opacity="1"><g transform="translate(342.321477, 452.967903)"><g><path d="M 22.0625 -31.140625 C 22.0625 -31.847656 22.414062 -32.203125 23.125 -32.203125 L 29.828125 -32.203125 C 30.535156 -32.203125 30.890625 -31.847656 30.890625 -31.140625 L 30.890625 -1.0625 C 30.890625 -0.351562 30.535156 0 29.828125 0 L 23.125 0 C 22.414062 0 22.0625 -0.351562 22.0625 -1.0625 L 22.0625 -2.75 C 22.0625 -2.914062 22.003906 -3.007812 21.890625 -3.03125 C 21.785156 -3.050781 21.691406 -3 21.609375 -2.875 C 19.984375 -0.664062 17.414062 0.4375 13.90625 0.4375 C 10.726562 0.4375 8.113281 -0.519531 6.0625 -2.4375 C 4.019531 -4.363281 3 -7.0625 3 -10.53125 L 3 -31.140625 C 3 -31.847656 3.359375 -32.203125 4.078125 -32.203125 L 10.71875 -32.203125 C 11.425781 -32.203125 11.78125 -31.847656 11.78125 -31.140625 L 11.78125 -12.71875 C 11.78125 -11.050781 12.226562 -9.691406 13.125 -8.640625 C 14.019531 -7.597656 15.265625 -7.078125 16.859375 -7.078125 C 18.273438 -7.078125 19.441406 -7.503906 20.359375 -8.359375 C 21.273438 -9.222656 21.84375 -10.34375 22.0625 -11.71875 Z M 22.0625 -31.140625 "/></g></g></g><g fill="#ffffff" fill-opacity="1"><g transform="translate(382.71114, 452.967903)"><g><path d="M 20.046875 -32.703125 C 23.390625 -32.703125 26.082031 -31.675781 28.125 -29.625 C 30.175781 -27.582031 31.203125 -24.804688 31.203125 -21.296875 L 31.203125 -1.0625 C 31.203125 -0.351562 30.847656 0 30.140625 0 L 23.4375 0 C 22.726562 0 22.375 -0.351562 22.375 -1.0625 L 22.375 -19.484375 C 22.375 -21.160156 21.910156 -22.519531 20.984375 -23.5625 C 20.066406 -24.601562 18.835938 -25.125 17.296875 -25.125 C 15.742188 -25.125 14.488281 -24.601562 13.53125 -23.5625 C 12.570312 -22.519531 12.09375 -21.160156 12.09375 -19.484375 L 12.09375 -1.0625 C 12.09375 -0.351562 11.738281 0 11.03125 0 L 4.328125 0 C 3.617188 0 3.265625 -0.351562 3.265625 -1.0625 L 3.265625 -31.140625 C 3.265625 -31.847656 3.617188 -32.203125 4.328125 -32.203125 L 11.03125 -32.203125 C 11.738281 -32.203125 12.09375 -31.847656 12.09375 -31.140625 L 12.09375 -29.390625 C 12.09375 -29.222656 12.132812 -29.117188 12.21875 -29.078125 C 12.300781 -29.035156 12.382812 -29.078125 12.46875 -29.203125 C 14.175781 -31.535156 16.703125 -32.703125 20.046875 -32.703125 Z M 20.046875 -32.703125 "/></g></g></g><g fill="#ffffff" fill-opacity="1"><g transform="translate(423.226033, 452.967903)"><g><path d="M 8.140625 -35.28125 C 6.554688 -35.28125 5.257812 -35.769531 4.25 -36.75 C 3.25 -37.726562 2.75 -38.988281 2.75 -40.53125 C 2.75 -42.082031 3.25 -43.347656 4.25 -44.328125 C 5.257812 -45.304688 6.554688 -45.796875 8.140625 -45.796875 C 9.773438 -45.796875 11.082031 -45.316406 12.0625 -44.359375 C 13.039062 -43.398438 13.53125 -42.125 13.53125 -40.53125 C 13.53125 -38.945312 13.039062 -37.675781 12.0625 -36.71875 C 11.082031 -35.757812 9.773438 -35.28125 8.140625 -35.28125 Z M 4.828125 0 C 4.117188 0 3.765625 -0.351562 3.765625 -1.0625 L 3.765625 -31.140625 C 3.765625 -31.847656 4.117188 -32.203125 4.828125 -32.203125 L 11.53125 -32.203125 C 12.238281 -32.203125 12.59375 -31.847656 12.59375 -31.140625 L 12.59375 -1.0625 C 12.59375 -0.351562 12.238281 0 11.53125 0 Z M 4.828125 0 "/></g></g></g><g fill="#ffffff" fill-opacity="1"><g transform="translate(445.770794, 452.967903)"><g><path d="M 22.6875 -42.796875 C 22.6875 -43.503906 23.039062 -43.859375 23.75 -43.859375 L 30.453125 -43.859375 C 31.160156 -43.859375 31.515625 -43.503906 31.515625 -42.796875 L 31.515625 -1.0625 C 31.515625 -0.351562 31.160156 0 30.453125 0 L 23.75 0 C 23.039062 0 22.6875 -0.351562 22.6875 -1.0625 L 22.6875 -2.75 C 22.6875 -2.914062 22.632812 -3.007812 22.53125 -3.03125 C 22.425781 -3.050781 22.332031 -3 22.25 -2.875 C 20.53125 -0.625 18.144531 0.5 15.09375 0.5 C 12.257812 0.5 9.742188 -0.34375 7.546875 -2.03125 C 5.359375 -3.726562 3.84375 -5.953125 3 -8.703125 C 2.289062 -10.710938 1.9375 -13.222656 1.9375 -16.234375 C 1.9375 -19.316406 2.332031 -21.90625 3.125 -24 C 4.050781 -26.664062 5.566406 -28.789062 7.671875 -30.375 C 9.785156 -31.96875 12.257812 -32.765625 15.09375 -32.765625 C 18.1875 -32.765625 20.570312 -31.742188 22.25 -29.703125 C 22.332031 -29.578125 22.425781 -29.535156 22.53125 -29.578125 C 22.632812 -29.617188 22.6875 -29.722656 22.6875 -29.890625 Z M 21.359375 -9.90625 C 22.203125 -11.445312 22.625 -13.515625 22.625 -16.109375 C 22.625 -18.859375 22.179688 -21.007812 21.296875 -22.5625 C 20.253906 -24.1875 18.859375 -25 17.109375 -25 C 15.179688 -25 13.71875 -24.207031 12.71875 -22.625 C 11.71875 -20.945312 11.21875 -18.753906 11.21875 -16.046875 C 11.21875 -13.578125 11.65625 -11.53125 12.53125 -9.90625 C 13.53125 -8.101562 15.054688 -7.203125 17.109375 -7.203125 C 18.941406 -7.203125 20.359375 -8.101562 21.359375 -9.90625 Z M 21.359375 -9.90625 "/></g></g></g><g fill="#ffffff" fill-opacity="1"><g transform="translate(486.911839, 452.967903)"><g><path d="M 16.171875 -32.703125 C 18.878906 -32.703125 21.296875 -32.234375 23.421875 -31.296875 C 25.554688 -30.359375 27.21875 -29.070312 28.40625 -27.4375 C 29.601562 -25.8125 30.203125 -24 30.203125 -22 L 30.203125 -1.0625 C 30.203125 -0.351562 29.847656 0 29.140625 0 L 22.4375 0 C 21.71875 0 21.359375 -0.351562 21.359375 -1.0625 L 21.359375 -2.5625 C 21.359375 -2.726562 21.316406 -2.820312 21.234375 -2.84375 C 21.148438 -2.863281 21.046875 -2.8125 20.921875 -2.6875 C 19.003906 -0.5625 16.144531 0.5 12.34375 0.5 C 9.125 0.5 6.53125 -0.289062 4.5625 -1.875 C 2.601562 -3.46875 1.625 -5.804688 1.625 -8.890625 C 1.625 -12.109375 2.75 -14.601562 5 -16.375 C 7.257812 -18.15625 10.476562 -19.046875 14.65625 -19.046875 L 20.984375 -19.046875 C 21.234375 -19.046875 21.359375 -19.171875 21.359375 -19.421875 L 21.359375 -20.734375 C 21.359375 -22.117188 20.929688 -23.195312 20.078125 -23.96875 C 19.222656 -24.738281 17.984375 -25.125 16.359375 -25.125 C 15.097656 -25.125 14.0625 -24.914062 13.25 -24.5 C 12.4375 -24.082031 11.882812 -23.5 11.59375 -22.75 C 11.34375 -22.15625 10.925781 -21.878906 10.34375 -21.921875 L 3.390625 -22.8125 C 3.046875 -22.851562 2.78125 -22.945312 2.59375 -23.09375 C 2.40625 -23.238281 2.332031 -23.4375 2.375 -23.6875 C 2.582031 -25.394531 3.300781 -26.9375 4.53125 -28.3125 C 5.769531 -29.695312 7.398438 -30.773438 9.421875 -31.546875 C 11.453125 -32.316406 13.703125 -32.703125 16.171875 -32.703125 Z M 14.90625 -6.078125 C 16.707031 -6.078125 18.234375 -6.554688 19.484375 -7.515625 C 20.734375 -8.472656 21.359375 -9.707031 21.359375 -11.21875 L 21.359375 -13.40625 C 21.359375 -13.65625 21.234375 -13.78125 20.984375 -13.78125 L 16.546875 -13.78125 C 14.660156 -13.78125 13.175781 -13.425781 12.09375 -12.71875 C 11.007812 -12.007812 10.46875 -11.007812 10.46875 -9.71875 C 10.46875 -8.582031 10.875 -7.691406 11.6875 -7.046875 C 12.5 -6.398438 13.570312 -6.078125 14.90625 -6.078125 Z M 14.90625 -6.078125 "/></g></g></g><g fill="#ffffff" fill-opacity="1"><g transform="translate(526.237109, 452.967903)"><g><path d="M 22.6875 -42.796875 C 22.6875 -43.503906 23.039062 -43.859375 23.75 -43.859375 L 30.453125 -43.859375 C 31.160156 -43.859375 31.515625 -43.503906 31.515625 -42.796875 L 31.515625 -1.0625 C 31.515625 -0.351562 31.160156 0 30.453125 0 L 23.75 0 C 23.039062 0 22.6875 -0.351562 22.6875 -1.0625 L 22.6875 -2.75 C 22.6875 -2.914062 22.632812 -3.007812 22.53125 -3.03125 C 22.425781 -3.050781 22.332031 -3 22.25 -2.875 C 20.53125 -0.625 18.144531 0.5 15.09375 0.5 C 12.257812 0.5 9.742188 -0.34375 7.546875 -2.03125 C 5.359375 -3.726562 3.84375 -5.953125 3 -8.703125 C 2.289062 -10.710938 1.9375 -13.222656 1.9375 -16.234375 C 1.9375 -19.316406 2.332031 -21.90625 3.125 -24 C 4.050781 -26.664062 5.566406 -28.789062 7.671875 -30.375 C 9.785156 -31.96875 12.257812 -32.765625 15.09375 -32.765625 C 18.1875 -32.765625 20.570312 -31.742188 22.25 -29.703125 C 22.332031 -29.578125 22.425781 -29.535156 22.53125 -29.578125 C 22.632812 -29.617188 22.6875 -29.722656 22.6875 -29.890625 Z M 21.359375 -9.90625 C 22.203125 -11.445312 22.625 -13.515625 22.625 -16.109375 C 22.625 -18.859375 22.179688 -21.007812 21.296875 -22.5625 C 20.253906 -24.1875 18.859375 -25 17.109375 -25 C 15.179688 -25 13.71875 -24.207031 12.71875 -22.625 C 11.71875 -20.945312 11.21875 -18.753906 11.21875 -16.046875 C 11.21875 -13.578125 11.65625 -11.53125 12.53125 -9.90625 C 13.53125 -8.101562 15.054688 -7.203125 17.109375 -7.203125 C 18.941406 -7.203125 20.359375 -8.101562 21.359375 -9.90625 Z M 21.359375 -9.90625 "/></g></g></g><g fill="#ffffff" fill-opacity="1"><g transform="translate(567.378153, 452.967903)"><g><path d="M 18.796875 -6.953125 C 21.554688 -7.078125 23.664062 -8.039062 25.125 -9.84375 C 25.375 -10.132812 25.644531 -10.28125 25.9375 -10.28125 C 26.1875 -10.28125 26.414062 -10.175781 26.625 -9.96875 L 30.203125 -6.515625 C 30.453125 -6.265625 30.578125 -6.015625 30.578125 -5.765625 C 30.578125 -5.472656 30.492188 -5.222656 30.328125 -5.015625 C 28.953125 -3.296875 27.1875 -1.945312 25.03125 -0.96875 C 22.875 0.0078125 20.523438 0.5 17.984375 0.5 C 14.140625 0.5 10.953125 -0.476562 8.421875 -2.4375 C 5.898438 -4.40625 4.203125 -7.101562 3.328125 -10.53125 C 2.816406 -12.363281 2.5625 -14.304688 2.5625 -16.359375 C 2.5625 -18.773438 2.796875 -20.820312 3.265625 -22.5 C 4.097656 -25.582031 5.773438 -28.0625 8.296875 -29.9375 C 10.828125 -31.820312 13.828125 -32.765625 17.296875 -32.765625 C 21.390625 -32.765625 24.632812 -31.550781 27.03125 -29.125 C 29.4375 -26.707031 30.992188 -23.304688 31.703125 -18.921875 C 31.867188 -17.546875 31.992188 -16.019531 32.078125 -14.34375 C 32.078125 -13.632812 31.722656 -13.28125 31.015625 -13.28125 L 11.78125 -13.28125 C 11.53125 -13.28125 11.40625 -13.15625 11.40625 -12.90625 C 11.53125 -12.03125 11.675781 -11.382812 11.84375 -10.96875 C 12.257812 -9.664062 13.082031 -8.671875 14.3125 -7.984375 C 15.550781 -7.296875 17.046875 -6.953125 18.796875 -6.953125 Z M 17.171875 -25.125 C 15.828125 -25.125 14.707031 -24.800781 13.8125 -24.15625 C 12.914062 -23.507812 12.300781 -22.597656 11.96875 -21.421875 C 11.757812 -20.628906 11.632812 -20.109375 11.59375 -19.859375 C 11.550781 -19.609375 11.65625 -19.484375 11.90625 -19.484375 L 22.5625 -19.484375 C 22.769531 -19.484375 22.875 -19.566406 22.875 -19.734375 C 22.875 -20.191406 22.789062 -20.671875 22.625 -21.171875 C 22.25 -22.390625 21.597656 -23.351562 20.671875 -24.0625 C 19.753906 -24.769531 18.585938 -25.125 17.171875 -25.125 Z M 17.171875 -25.125 "/></g></g></g><g fill="#ffffff" fill-opacity="1"><g transform="translate(607.893047, 452.967903)"><g/></g></g><g fill="#ffffff" fill-opacity="1"><g transform="translate(626.680986, 452.967903)"><g><path d="M 4.890625 0 C 4.179688 0 3.828125 -0.351562 3.828125 -1.0625 L 3.828125 -42.796875 C 3.828125 -43.503906 4.179688 -43.859375 4.890625 -43.859375 L 20.234375 -43.859375 C 23.367188 -43.859375 26.113281 -43.300781 28.46875 -42.1875 C 30.832031 -41.082031 32.660156 -39.53125 33.953125 -37.53125 C 35.253906 -35.53125 35.90625 -33.210938 35.90625 -30.578125 L 35.90625 -13.28125 C 35.90625 -10.644531 35.253906 -8.328125 33.953125 -6.328125 C 32.660156 -4.328125 30.832031 -2.769531 28.46875 -1.65625 C 26.113281 -0.550781 23.367188 0 20.234375 0 Z M 12.65625 -7.953125 C 12.65625 -7.703125 12.78125 -7.578125 13.03125 -7.578125 L 20.546875 -7.578125 C 22.472656 -7.578125 24.03125 -8.222656 25.21875 -9.515625 C 26.40625 -10.816406 27.019531 -12.550781 27.0625 -14.71875 L 27.0625 -29.140625 C 27.0625 -31.304688 26.46875 -33.035156 25.28125 -34.328125 C 24.09375 -35.628906 22.492188 -36.28125 20.484375 -36.28125 L 13.03125 -36.28125 C 12.78125 -36.28125 12.65625 -36.15625 12.65625 -35.90625 Z M 12.65625 -7.953125 "/></g></g></g><g fill="#ffffff" fill-opacity="1"><g transform="translate(671.641489, 452.967903)"><g><path d="M 8.140625 -35.28125 C 6.554688 -35.28125 5.257812 -35.769531 4.25 -36.75 C 3.25 -37.726562 2.75 -38.988281 2.75 -40.53125 C 2.75 -42.082031 3.25 -43.347656 4.25 -44.328125 C 5.257812 -45.304688 6.554688 -45.796875 8.140625 -45.796875 C 9.773438 -45.796875 11.082031 -45.316406 12.0625 -44.359375 C 13.039062 -43.398438 13.53125 -42.125 13.53125 -40.53125 C 13.53125 -38.945312 13.039062 -37.675781 12.0625 -36.71875 C 11.082031 -35.757812 9.773438 -35.28125 8.140625 -35.28125 Z M 4.828125 0 C 4.117188 0 3.765625 -0.351562 3.765625 -1.0625 L 3.765625 -31.140625 C 3.765625 -31.847656 4.117188 -32.203125 4.828125 -32.203125 L 11.53125 -32.203125 C 12.238281 -32.203125 12.59375 -31.847656 12.59375 -31.140625 L 12.59375 -1.0625 C 12.59375 -0.351562 12.238281 0 11.53125 0 Z M 4.828125 0 "/></g></g></g><g fill="#ffffff" fill-opacity="1"><g transform="translate(694.18625, 452.967903)"><g><path d="M 22.9375 -31.140625 C 22.9375 -31.847656 23.289062 -32.203125 24 -32.203125 L 30.703125 -32.203125 C 31.410156 -32.203125 31.765625 -31.847656 31.765625 -31.140625 L 31.765625 -2.875 C 31.765625 2.59375 30.195312 6.492188 27.0625 8.828125 C 23.9375 11.171875 19.90625 12.34375 14.96875 12.34375 C 13.59375 12.34375 12.03125 12.238281 10.28125 12.03125 C 9.644531 11.988281 9.328125 11.613281 9.328125 10.90625 L 9.59375 5.078125 C 9.59375 4.742188 9.707031 4.484375 9.9375 4.296875 C 10.164062 4.109375 10.445312 4.054688 10.78125 4.140625 C 12.320312 4.347656 13.59375 4.453125 14.59375 4.453125 C 17.269531 4.453125 19.328125 3.863281 20.765625 2.6875 C 22.210938 1.519531 22.9375 -0.351562 22.9375 -2.9375 C 22.9375 -3.0625 22.894531 -3.132812 22.8125 -3.15625 C 22.726562 -3.1875 22.625 -3.132812 22.5 -3 C 20.945312 -1.332031 18.644531 -0.5 15.59375 -0.5 C 12.882812 -0.5 10.390625 -1.15625 8.109375 -2.46875 C 5.835938 -3.789062 4.222656 -5.910156 3.265625 -8.828125 C 2.628906 -10.753906 2.3125 -13.242188 2.3125 -16.296875 C 2.3125 -19.546875 2.691406 -22.195312 3.453125 -24.25 C 4.328125 -26.789062 5.804688 -28.832031 7.890625 -30.375 C 9.984375 -31.925781 12.40625 -32.703125 15.15625 -32.703125 C 18.289062 -32.703125 20.738281 -31.765625 22.5 -29.890625 C 22.625 -29.765625 22.726562 -29.722656 22.8125 -29.765625 C 22.894531 -29.804688 22.9375 -29.910156 22.9375 -30.078125 Z M 22.4375 -11.21875 C 22.769531 -12.46875 22.9375 -14.179688 22.9375 -16.359375 C 22.9375 -17.648438 22.894531 -18.648438 22.8125 -19.359375 C 22.726562 -20.066406 22.582031 -20.734375 22.375 -21.359375 C 21.988281 -22.492188 21.359375 -23.40625 20.484375 -24.09375 C 19.609375 -24.78125 18.523438 -25.125 17.234375 -25.125 C 15.972656 -25.125 14.90625 -24.78125 14.03125 -24.09375 C 13.15625 -23.40625 12.507812 -22.492188 12.09375 -21.359375 C 11.507812 -20.109375 11.21875 -18.421875 11.21875 -16.296875 C 11.21875 -13.953125 11.46875 -12.28125 11.96875 -11.28125 C 12.34375 -10.15625 13 -9.242188 13.9375 -8.546875 C 14.875 -7.859375 15.992188 -7.515625 17.296875 -7.515625 C 18.628906 -7.515625 19.734375 -7.859375 20.609375 -8.546875 C 21.484375 -9.242188 22.09375 -10.132812 22.4375 -11.21875 Z M 22.4375 -11.21875 "/></g></g></g><g fill="#ffffff" fill-opacity="1"><g transform="translate(735.2647, 452.967903)"><g><path d="M 8.140625 -35.28125 C 6.554688 -35.28125 5.257812 -35.769531 4.25 -36.75 C 3.25 -37.726562 2.75 -38.988281 2.75 -40.53125 C 2.75 -42.082031 3.25 -43.347656 4.25 -44.328125 C 5.257812 -45.304688 6.554688 -45.796875 8.140625 -45.796875 C 9.773438 -45.796875 11.082031 -45.316406 12.0625 -44.359375 C 13.039062 -43.398438 13.53125 -42.125 13.53125 -40.53125 C 13.53125 -38.945312 13.039062 -37.675781 12.0625 -36.71875 C 11.082031 -35.757812 9.773438 -35.28125 8.140625 -35.28125 Z M 4.828125 0 C 4.117188 0 3.765625 -0.351562 3.765625 -1.0625 L 3.765625 -31.140625 C 3.765625 -31.847656 4.117188 -32.203125 4.828125 -32.203125 L 11.53125 -32.203125 C 12.238281 -32.203125 12.59375 -31.847656 12.59375 -31.140625 L 12.59375 -1.0625 C 12.59375 -0.351562 12.238281 0 11.53125 0 Z M 4.828125 0 "/></g></g></g><g fill="#ffffff" fill-opacity="1"><g transform="translate(757.809461, 452.967903)"><g><path d="M 21.734375 -26.1875 C 21.734375 -25.476562 21.378906 -25.125 20.671875 -25.125 L 15.03125 -25.125 C 14.78125 -25.125 14.65625 -25 14.65625 -24.75 L 14.65625 -11.78125 C 14.65625 -10.40625 14.9375 -9.390625 15.5 -8.734375 C 16.070312 -8.085938 16.984375 -7.765625 18.234375 -7.765625 L 19.984375 -7.765625 C 20.691406 -7.765625 21.046875 -7.410156 21.046875 -6.703125 L 21.046875 -1.3125 C 21.046875 -0.644531 20.691406 -0.269531 19.984375 -0.1875 C 18.398438 -0.101562 17.253906 -0.0625 16.546875 -0.0625 C 13.078125 -0.0625 10.484375 -0.644531 8.765625 -1.8125 C 7.054688 -2.988281 6.179688 -5.160156 6.140625 -8.328125 L 6.140625 -24.75 C 6.140625 -25 6.015625 -25.125 5.765625 -25.125 L 2.5625 -25.125 C 1.851562 -25.125 1.5 -25.476562 1.5 -26.1875 L 1.5 -31.140625 C 1.5 -31.847656 1.851562 -32.203125 2.5625 -32.203125 L 5.765625 -32.203125 C 6.015625 -32.203125 6.140625 -32.328125 6.140625 -32.578125 L 6.140625 -39.65625 C 6.140625 -40.363281 6.492188 -40.71875 7.203125 -40.71875 L 13.59375 -40.71875 C 14.300781 -40.71875 14.65625 -40.363281 14.65625 -39.65625 L 14.65625 -32.578125 C 14.65625 -32.328125 14.78125 -32.203125 15.03125 -32.203125 L 20.671875 -32.203125 C 21.378906 -32.203125 21.734375 -31.847656 21.734375 -31.140625 Z M 21.734375 -26.1875 "/></g></g></g><g fill="#ffffff" fill-opacity="1"><g transform="translate(787.867865, 452.967903)"><g><path d="M 16.171875 -32.703125 C 18.878906 -32.703125 21.296875 -32.234375 23.421875 -31.296875 C 25.554688 -30.359375 27.21875 -29.070312 28.40625 -27.4375 C 29.601562 -25.8125 30.203125 -24 30.203125 -22 L 30.203125 -1.0625 C 30.203125 -0.351562 29.847656 0 29.140625 0 L 22.4375 0 C 21.71875 0 21.359375 -0.351562 21.359375 -1.0625 L 21.359375 -2.5625 C 21.359375 -2.726562 21.316406 -2.820312 21.234375 -2.84375 C 21.148438 -2.863281 21.046875 -2.8125 20.921875 -2.6875 C 19.003906 -0.5625 16.144531 0.5 12.34375 0.5 C 9.125 0.5 6.53125 -0.289062 4.5625 -1.875 C 2.601562 -3.46875 1.625 -5.804688 1.625 -8.890625 C 1.625 -12.109375 2.75 -14.601562 5 -16.375 C 7.257812 -18.15625 10.476562 -19.046875 14.65625 -19.046875 L 20.984375 -19.046875 C 21.234375 -19.046875 21.359375 -19.171875 21.359375 -19.421875 L 21.359375 -20.734375 C 21.359375 -22.117188 20.929688 -23.195312 20.078125 -23.96875 C 19.222656 -24.738281 17.984375 -25.125 16.359375 -25.125 C 15.097656 -25.125 14.0625 -24.914062 13.25 -24.5 C 12.4375 -24.082031 11.882812 -23.5 11.59375 -22.75 C 11.34375 -22.15625 10.925781 -21.878906 10.34375 -21.921875 L 3.390625 -22.8125 C 3.046875 -22.851562 2.78125 -22.945312 2.59375 -23.09375 C 2.40625 -23.238281 2.332031 -23.4375 2.375 -23.6875 C 2.582031 -25.394531 3.300781 -26.9375 4.53125 -28.3125 C 5.769531 -29.695312 7.398438 -30.773438 9.421875 -31.546875 C 11.453125 -32.316406 13.703125 -32.703125 16.171875 -32.703125 Z M 14.90625 -6.078125 C 16.707031 -6.078125 18.234375 -6.554688 19.484375 -7.515625 C 20.734375 -8.472656 21.359375 -9.707031 21.359375 -11.21875 L 21.359375 -13.40625 C 21.359375 -13.65625 21.234375 -13.78125 20.984375 -13.78125 L 16.546875 -13.78125 C 14.660156 -13.78125 13.175781 -13.425781 12.09375 -12.71875 C 11.007812 -12.007812 10.46875 -11.007812 10.46875 -9.71875 C 10.46875 -8.582031 10.875 -7.691406 11.6875 -7.046875 C 12.5 -6.398438 13.570312 -6.078125 14.90625 -6.078125 Z M 14.90625 -6.078125 "/></g></g></g><g fill="#ffffff" fill-opacity="1"><g transform="translate(827.193136, 452.967903)"><g><path d="M 4.453125 0 C 3.742188 0 3.390625 -0.351562 3.390625 -1.0625 L 3.390625 -42.796875 C 3.390625 -43.503906 3.742188 -43.859375 4.453125 -43.859375 L 11.15625 -43.859375 C 11.863281 -43.859375 12.21875 -43.503906 12.21875 -42.796875 L 12.21875 -1.0625 C 12.21875 -0.351562 11.863281 0 11.15625 0 Z M 4.453125 0 "/></g></g></g><g mask="url(#26c052bdc5)"><g transform="matrix(1, 0, 0, 1, 816, 105)"><g clip-path="url(#d8d00035b5)"><g clip-path="url(#82b4e88263)"><g clip-path="url(#eca54ac782)"><g clip-path="url(#ac2ce54cd7)"><g clip-path="url(#3299cbaa05)"><path fill="#000000" d="M 34.152344 121.648438 L 31.457031 129.519531 L 120.3125 193.222656 L 126.910156 188.132812 Z M 82.382812 97.40625 C 92.566406 100.628906 107.4375 95.261719 126.589844 81.472656 C 132.117188 77.496094 137.171875 73.402344 141.277344 69.902344 C 139.074219 75.132812 136.570312 81.546875 134.390625 88.367188 C 127 111.429688 127.089844 127.125 134.648438 135.011719 C 146.335938 147.199219 170.070312 145.84375 184.683594 143.566406 L 132.355469 183.925781 L 36.390625 115.128906 L 57.597656 53.273438 C 59.921875 68.582031 66.117188 92.265625 82.382812 97.40625 Z M 152.382812 54.832031 C 152.753906 55.097656 153.09375 55.398438 153.40625 55.730469 C 153.714844 56.0625 153.992188 56.421875 154.230469 56.8125 C 154.472656 57.199219 154.671875 57.605469 154.832031 58.03125 C 154.992188 58.460938 155.105469 58.898438 155.179688 59.347656 C 155.253906 59.796875 155.28125 60.253906 155.265625 60.707031 C 155.25 61.164062 155.191406 61.617188 155.085938 62.0625 C 154.980469 62.503906 154.835938 62.9375 154.644531 63.351562 C 154.457031 63.769531 154.226562 64.164062 153.960938 64.535156 C 153.695312 64.90625 153.394531 65.25 153.0625 65.5625 C 152.730469 65.875 152.367188 66.152344 151.980469 66.394531 C 151.59375 66.636719 151.183594 66.835938 150.757812 67 C 150.332031 67.160156 149.890625 67.28125 149.441406 67.355469 C 148.992188 67.429688 148.539062 67.460938 148.082031 67.449219 C 147.628906 67.433594 147.179688 67.375 146.734375 67.273438 C 146.289062 67.167969 145.859375 67.023438 145.445312 66.835938 C 145.03125 66.648438 144.640625 66.421875 144.269531 66.15625 C 143.898438 65.894531 143.558594 65.59375 143.246094 65.261719 C 142.9375 64.929688 142.660156 64.570312 142.421875 64.183594 C 142.179688 63.792969 141.980469 63.386719 141.820312 62.960938 C 141.660156 62.535156 141.542969 62.09375 141.46875 61.644531 C 141.398438 61.195312 141.367188 60.742188 141.382812 60.285156 C 141.398438 59.828125 141.460938 59.378906 141.5625 58.933594 C 141.667969 58.488281 141.816406 58.054688 142.003906 57.640625 C 142.191406 57.222656 142.421875 56.828125 142.6875 56.457031 C 142.953125 56.085938 143.253906 55.746094 143.589844 55.433594 C 143.921875 55.121094 144.28125 54.84375 144.671875 54.601562 C 145.058594 54.359375 145.464844 54.15625 145.894531 53.996094 C 146.320312 53.832031 146.757812 53.714844 147.207031 53.640625 C 147.660156 53.5625 148.113281 53.535156 148.566406 53.546875 C 149.023438 53.5625 149.472656 53.621094 149.917969 53.722656 C 150.359375 53.824219 150.789062 53.96875 151.207031 54.15625 C 151.621094 54.34375 152.011719 54.570312 152.382812 54.832031 Z M 199.375 134.945312 C 199.746094 135.210938 200.085938 135.511719 200.398438 135.84375 C 200.710938 136.175781 200.984375 136.535156 201.222656 136.921875 C 201.464844 137.308594 201.664062 137.71875 201.824219 138.144531 C 201.984375 138.570312 202.101562 139.011719 202.171875 139.460938 C 202.246094 139.910156 202.273438 140.363281 202.257812 140.820312 C 202.242188 141.277344 202.183594 141.726562 202.078125 142.171875 C 201.972656 142.617188 201.828125 143.046875 201.636719 143.464844 C 201.449219 143.882812 201.222656 144.273438 200.953125 144.648438 C 200.6875 145.019531 200.386719 145.359375 200.054688 145.671875 C 199.722656 145.988281 199.359375 146.265625 198.972656 146.507812 C 198.585938 146.746094 198.179688 146.949219 197.75 147.113281 C 197.324219 147.273438 196.886719 147.390625 196.433594 147.46875 C 195.984375 147.542969 195.53125 147.574219 195.078125 147.558594 C 194.621094 147.546875 194.171875 147.488281 193.726562 147.382812 C 193.285156 147.28125 192.855469 147.136719 192.4375 146.949219 C 192.023438 146.761719 191.632812 146.535156 191.261719 146.269531 C 190.890625 146.003906 190.550781 145.707031 190.238281 145.375 C 189.929688 145.042969 189.652344 144.679688 189.414062 144.292969 C 189.171875 143.90625 188.972656 143.5 188.8125 143.074219 C 188.652344 142.644531 188.535156 142.207031 188.464844 141.757812 C 188.390625 141.304688 188.359375 140.851562 188.378906 140.394531 C 188.394531 139.941406 188.453125 139.488281 188.558594 139.042969 C 188.660156 138.597656 188.808594 138.167969 188.996094 137.753906 C 189.1875 137.335938 189.414062 136.941406 189.679688 136.570312 C 189.945312 136.199219 190.246094 135.855469 190.582031 135.542969 C 190.917969 135.230469 191.277344 134.953125 191.664062 134.710938 C 192.054688 134.46875 192.460938 134.265625 192.890625 134.105469 C 193.316406 133.945312 193.757812 133.824219 194.207031 133.75 C 194.65625 133.675781 195.109375 133.644531 195.566406 133.660156 C 196.023438 133.675781 196.472656 133.734375 196.917969 133.835938 C 197.363281 133.9375 197.792969 134.085938 198.207031 134.273438 C 198.621094 134.460938 199.015625 134.6875 199.386719 134.953125 Z M 62.660156 38.210938 C 63.03125 38.472656 63.375 38.773438 63.683594 39.105469 C 63.996094 39.4375 64.273438 39.796875 64.511719 40.183594 C 64.753906 40.570312 64.953125 40.976562 65.113281 41.40625 C 65.273438 41.832031 65.390625 42.269531 65.464844 42.722656 C 65.539062 43.171875 65.570312 43.625 65.554688 44.082031 C 65.539062 44.539062 65.476562 44.988281 65.375 45.433594 C 65.269531 45.878906 65.125 46.308594 64.933594 46.726562 C 64.746094 47.144531 64.519531 47.539062 64.253906 47.910156 C 63.988281 48.28125 63.6875 48.625 63.355469 48.9375 C 63.019531 49.25 62.660156 49.53125 62.273438 49.773438 C 61.886719 50.015625 61.476562 50.214844 61.050781 50.378906 C 60.625 50.542969 60.183594 50.660156 59.734375 50.734375 C 59.285156 50.8125 58.832031 50.84375 58.375 50.828125 C 57.917969 50.816406 57.46875 50.757812 57.027344 50.65625 C 56.582031 50.550781 56.152344 50.40625 55.738281 50.21875 C 55.320312 50.03125 54.929688 49.808594 54.558594 49.542969 C 54.1875 49.277344 53.847656 48.976562 53.535156 48.644531 C 53.226562 48.3125 52.949219 47.953125 52.707031 47.566406 C 52.46875 47.179688 52.269531 46.769531 52.109375 46.34375 C 51.949219 45.917969 51.832031 45.476562 51.757812 45.027344 C 51.683594 44.578125 51.65625 44.125 51.671875 43.667969 C 51.6875 43.210938 51.746094 42.761719 51.851562 42.316406 C 51.957031 41.871094 52.101562 41.4375 52.292969 41.023438 C 52.480469 40.605469 52.707031 40.210938 52.972656 39.839844 C 53.242188 39.46875 53.542969 39.125 53.875 38.8125 C 54.207031 38.5 54.570312 38.222656 54.957031 37.980469 C 55.34375 37.742188 55.753906 37.539062 56.179688 37.375 C 56.605469 37.214844 57.046875 37.097656 57.496094 37.019531 C 57.945312 36.945312 58.398438 36.914062 58.855469 36.929688 C 59.308594 36.941406 59.761719 37 60.203125 37.101562 C 60.648438 37.207031 61.078125 37.351562 61.492188 37.539062 C 61.90625 37.726562 62.300781 37.949219 62.671875 38.214844 Z M 62.660156 38.210938 " fill-opacity="1" fill-rule="nonzero"/></g></g></g></g></g></g></g><g clip-path="url(#90c4785f2a)"><g clip-path="url(#f5351bc854)"><g clip-path="url(#6ee5ac2aec)"><path fill="#ffffff" d="M 844.84375 228.644531 L 842.214844 236.355469 L 929.710938 299.082031 L 936.179688 294.109375 Z M 892.167969 205.003906 C 902.1875 208.195312 916.78125 202.972656 935.5625 189.5 C 940.984375 185.617188 945.941406 181.617188 949.964844 178.195312 C 947.8125 183.320312 945.371094 189.601562 943.25 196.285156 C 936.050781 218.882812 936.183594 234.277344 943.632812 242.03125 C 955.152344 254.019531 978.472656 252.757812 992.824219 250.5625 L 941.519531 289.996094 L 847.027344 222.253906 L 867.691406 161.648438 C 870.015625 176.671875 876.171875 199.914062 892.167969 205.003906 Z M 960.835938 163.449219 C 961.199219 163.710938 961.535156 164.003906 961.84375 164.332031 C 962.148438 164.65625 962.421875 165.011719 962.65625 165.390625 C 962.894531 165.773438 963.089844 166.171875 963.25 166.59375 C 963.40625 167.011719 963.523438 167.441406 963.597656 167.882812 C 963.667969 168.324219 963.699219 168.769531 963.683594 169.21875 C 963.671875 169.664062 963.613281 170.109375 963.511719 170.542969 C 963.410156 170.980469 963.265625 171.402344 963.082031 171.808594 C 962.898438 172.21875 962.675781 172.601562 962.414062 172.964844 C 962.152344 173.332031 961.859375 173.664062 961.53125 173.972656 C 961.207031 174.277344 960.851562 174.546875 960.472656 174.785156 C 960.089844 175.019531 959.691406 175.21875 959.273438 175.375 C 958.851562 175.53125 958.421875 175.648438 957.980469 175.71875 C 957.539062 175.792969 957.09375 175.820312 956.644531 175.808594 C 956.199219 175.792969 955.757812 175.734375 955.320312 175.632812 C 954.882812 175.53125 954.460938 175.386719 954.050781 175.199219 C 953.644531 175.015625 953.257812 174.792969 952.894531 174.53125 C 952.527344 174.269531 952.195312 173.976562 951.886719 173.648438 C 951.582031 173.324219 951.308594 172.96875 951.070312 172.589844 C 950.835938 172.207031 950.636719 171.808594 950.480469 171.386719 C 950.320312 170.96875 950.203125 170.539062 950.132812 170.097656 C 950.058594 169.65625 950.027344 169.210938 950.042969 168.761719 C 950.054688 168.316406 950.113281 167.875 950.214844 167.4375 C 950.316406 167 950.460938 166.578125 950.644531 166.171875 C 950.828125 165.761719 951.050781 165.378906 951.3125 165.011719 C 951.574219 164.648438 951.867188 164.316406 952.195312 164.011719 C 952.519531 163.703125 952.875 163.433594 953.253906 163.199219 C 953.636719 162.960938 954.035156 162.765625 954.457031 162.609375 C 954.875 162.449219 955.304688 162.335938 955.746094 162.261719 C 956.1875 162.191406 956.632812 162.160156 957.082031 162.175781 C 957.53125 162.191406 957.972656 162.25 958.410156 162.351562 C 958.84375 162.453125 959.269531 162.59375 959.675781 162.78125 C 960.085938 162.964844 960.472656 163.1875 960.835938 163.449219 Z M 1007.238281 242.148438 C 1007.605469 242.410156 1007.9375 242.707031 1008.246094 243.03125 C 1008.550781 243.359375 1008.824219 243.714844 1009.0625 244.09375 C 1009.296875 244.476562 1009.496094 244.875 1009.652344 245.292969 C 1009.8125 245.714844 1009.925781 246.144531 1010 246.585938 C 1010.074219 247.027344 1010.101562 247.472656 1010.089844 247.921875 C 1010.074219 248.367188 1010.015625 248.808594 1009.914062 249.246094 C 1009.8125 249.679688 1009.671875 250.101562 1009.484375 250.511719 C 1009.300781 250.917969 1009.078125 251.304688 1008.816406 251.667969 C 1008.558594 252.03125 1008.261719 252.367188 1007.9375 252.671875 C 1007.609375 252.980469 1007.253906 253.25 1006.875 253.488281 C 1006.496094 253.722656 1006.09375 253.917969 1005.675781 254.078125 C 1005.257812 254.234375 1004.828125 254.347656 1004.382812 254.421875 C 1003.941406 254.496094 1003.496094 254.523438 1003.050781 254.507812 C 1002.601562 254.492188 1002.160156 254.433594 1001.722656 254.332031 C 1001.285156 254.230469 1000.863281 254.085938 1000.457031 253.902344 C 1000.046875 253.71875 999.660156 253.496094 999.296875 253.234375 C 998.933594 252.972656 998.597656 252.679688 998.289062 252.351562 C 997.984375 252.023438 997.710938 251.671875 997.476562 251.289062 C 997.238281 250.910156 997.039062 250.511719 996.882812 250.089844 C 996.722656 249.671875 996.609375 249.242188 996.535156 248.800781 C 996.460938 248.355469 996.433594 247.914062 996.445312 247.464844 C 996.460938 247.015625 996.519531 246.574219 996.621094 246.140625 C 996.71875 245.703125 996.863281 245.28125 997.046875 244.875 C 997.230469 244.464844 997.453125 244.078125 997.714844 243.714844 C 997.976562 243.351562 998.269531 243.015625 998.597656 242.710938 C 998.925781 242.40625 999.28125 242.132812 999.660156 241.898438 C 1000.042969 241.660156 1000.441406 241.464844 1000.863281 241.308594 C 1001.28125 241.152344 1001.714844 241.035156 1002.15625 240.964844 C 1002.597656 240.890625 1003.042969 240.863281 1003.492188 240.878906 C 1003.941406 240.894531 1004.382812 240.953125 1004.820312 241.054688 C 1005.257812 241.15625 1005.679688 241.300781 1006.089844 241.484375 C 1006.496094 241.671875 1006.882812 241.894531 1007.25 242.15625 Z M 872.625 146.890625 C 872.988281 147.152344 873.324219 147.445312 873.632812 147.773438 C 873.9375 148.097656 874.210938 148.453125 874.449219 148.832031 C 874.6875 149.214844 874.882812 149.613281 875.042969 150.03125 C 875.199219 150.449219 875.316406 150.882812 875.390625 151.324219 C 875.464844 151.765625 875.496094 152.210938 875.480469 152.660156 C 875.46875 153.105469 875.410156 153.546875 875.308594 153.984375 C 875.207031 154.421875 875.066406 154.84375 874.882812 155.25 C 874.695312 155.660156 874.476562 156.046875 874.214844 156.410156 C 873.953125 156.773438 873.660156 157.109375 873.332031 157.414062 C 873.007812 157.722656 872.652344 157.992188 872.273438 158.230469 C 871.894531 158.464844 871.492188 158.664062 871.074219 158.820312 C 870.65625 158.980469 870.222656 159.09375 869.78125 159.167969 C 869.339844 159.242188 868.894531 159.269531 868.445312 159.253906 C 868 159.242188 867.558594 159.183594 867.121094 159.082031 C 866.683594 158.980469 866.261719 158.835938 865.851562 158.652344 C 865.445312 158.464844 865.058594 158.242188 864.691406 157.980469 C 864.328125 157.722656 863.992188 157.425781 863.683594 157.101562 C 863.378906 156.773438 863.105469 156.417969 862.867188 156.039062 C 862.632812 155.660156 862.433594 155.257812 862.277344 154.839844 C 862.117188 154.421875 862 153.988281 861.925781 153.546875 C 861.855469 153.105469 861.824219 152.660156 861.839844 152.210938 C 861.851562 151.765625 861.910156 151.324219 862.011719 150.886719 C 862.113281 150.449219 862.253906 150.027344 862.441406 149.621094 C 862.625 149.210938 862.847656 148.828125 863.109375 148.460938 C 863.371094 148.097656 863.664062 147.765625 863.992188 147.457031 C 864.316406 147.152344 864.671875 146.882812 865.050781 146.644531 C 865.433594 146.410156 865.832031 146.214844 866.25 146.054688 C 866.671875 145.898438 867.101562 145.785156 867.542969 145.710938 C 867.984375 145.640625 868.429688 145.609375 868.878906 145.625 C 869.324219 145.640625 869.769531 145.699219 870.203125 145.800781 C 870.640625 145.902344 871.0625 146.042969 871.472656 146.230469 C 871.878906 146.414062 872.265625 146.636719 872.632812 146.898438 Z M 872.625 146.890625 " fill-opacity="1" fill-rule="nonzero"/></g></g></g></svg>